<?xml version="1.0" encoding="utf-8" standalone="no"?>
<!DOCTYPE svg PUBLIC "-//W3C//DTD SVG 1.1//EN"
  "http://www.w3.org/Graphics/SVG/1.1/DTD/svg11.dtd">
<svg xmlns:xlink="http://www.w3.org/1999/xlink" width="1080pt" height="720pt" viewBox="0 0 1080 720" xmlns="http://www.w3.org/2000/svg" version="1.1">
 <metadata>
  <rdf:RDF xmlns:dc="http://purl.org/dc/elements/1.1/" xmlns:cc="http://creativecommons.org/ns#" xmlns:rdf="http://www.w3.org/1999/02/22-rdf-syntax-ns#">
   <cc:Work>
    <dc:type rdf:resource="http://purl.org/dc/dcmitype/StillImage"/>
    <dc:date>2022-05-11T15:26:05.125330</dc:date>
    <dc:format>image/svg+xml</dc:format>
    <dc:creator>
     <cc:Agent>
      <dc:title>Matplotlib v3.5.2, https://matplotlib.org/</dc:title>
     </cc:Agent>
    </dc:creator>
   </cc:Work>
  </rdf:RDF>
 </metadata>
 <defs>
  <style type="text/css">*{stroke-linejoin: round; stroke-linecap: butt}</style>
 </defs>
 <g id="figure_1">
  <g id="patch_1">
   <path d="M 0 720 
L 1080 720 
L 1080 0 
L 0 0 
z
" style="fill: #ffffff"/>
  </g>
  <g id="axes_1">
   <g id="patch_2">
    <path d="M 85.411 341.35 
L 532.382 341.35 
L 532.382 85.472 
L 85.411 85.472 
z
" style="fill: #ffffff"/>
   </g>
   <g id="matplotlib.axis_1">
    <g id="xtick_1">
     <g id="line2d_1">
      <path d="M 105.727864 341.35 
L 105.727864 85.472 
" clip-path="url(#p6493a5af07)" style="fill: none; stroke: #cccccc; stroke-width: 0.8; stroke-linecap: round"/>
     </g>
    </g>
    <g id="xtick_2">
     <g id="line2d_2">
      <path d="M 186.995318 341.35 
L 186.995318 85.472 
" clip-path="url(#p6493a5af07)" style="fill: none; stroke: #cccccc; stroke-width: 0.8; stroke-linecap: round"/>
     </g>
    </g>
    <g id="xtick_3">
     <g id="line2d_3">
      <path d="M 268.262773 341.35 
L 268.262773 85.472 
" clip-path="url(#p6493a5af07)" style="fill: none; stroke: #cccccc; stroke-width: 0.8; stroke-linecap: round"/>
     </g>
    </g>
    <g id="xtick_4">
     <g id="line2d_4">
      <path d="M 349.530227 341.35 
L 349.530227 85.472 
" clip-path="url(#p6493a5af07)" style="fill: none; stroke: #cccccc; stroke-width: 0.8; stroke-linecap: round"/>
     </g>
    </g>
    <g id="xtick_5">
     <g id="line2d_5">
      <path d="M 430.797682 341.35 
L 430.797682 85.472 
" clip-path="url(#p6493a5af07)" style="fill: none; stroke: #cccccc; stroke-width: 0.8; stroke-linecap: round"/>
     </g>
    </g>
    <g id="xtick_6">
     <g id="line2d_6">
      <path d="M 512.065136 341.35 
L 512.065136 85.472 
" clip-path="url(#p6493a5af07)" style="fill: none; stroke: #cccccc; stroke-width: 0.8; stroke-linecap: round"/>
     </g>
    </g>
   </g>
   <g id="matplotlib.axis_2">
    <g id="ytick_1">
     <g id="line2d_7">
      <path d="M 85.411 329.719182 
L 532.382 329.719182 
" clip-path="url(#p6493a5af07)" style="fill: none; stroke: #cccccc; stroke-width: 0.8; stroke-linecap: round"/>
     </g>
     <g id="text_1">
      <!-- 40 -->
      <g style="fill: #262626" transform="translate(54.715 336.405807)scale(0.176 -0.176)">
       <defs>
        <path id="DejaVuSans-34" d="M 2419 4116 
L 825 1625 
L 2419 1625 
L 2419 4116 
z
M 2253 4666 
L 3047 4666 
L 3047 1625 
L 3713 1625 
L 3713 1100 
L 3047 1100 
L 3047 0 
L 2419 0 
L 2419 1100 
L 313 1100 
L 313 1709 
L 2253 4666 
z
" transform="scale(0.015625)"/>
        <path id="DejaVuSans-30" d="M 2034 4250 
Q 1547 4250 1301 3770 
Q 1056 3291 1056 2328 
Q 1056 1369 1301 889 
Q 1547 409 2034 409 
Q 2525 409 2770 889 
Q 3016 1369 3016 2328 
Q 3016 3291 2770 3770 
Q 2525 4250 2034 4250 
z
M 2034 4750 
Q 2819 4750 3233 4129 
Q 3647 3509 3647 2328 
Q 3647 1150 3233 529 
Q 2819 -91 2034 -91 
Q 1250 -91 836 529 
Q 422 1150 422 2328 
Q 422 3509 836 4129 
Q 1250 4750 2034 4750 
z
" transform="scale(0.015625)"/>
       </defs>
       <use xlink:href="#DejaVuSans-34"/>
       <use xlink:href="#DejaVuSans-30" x="63.623047"/>
      </g>
     </g>
    </g>
    <g id="ytick_2">
     <g id="line2d_8">
      <path d="M 85.411 290.949788 
L 532.382 290.949788 
" clip-path="url(#p6493a5af07)" style="fill: none; stroke: #cccccc; stroke-width: 0.8; stroke-linecap: round"/>
     </g>
     <g id="text_2">
      <!-- 50 -->
      <g style="fill: #262626" transform="translate(54.715 297.636413)scale(0.176 -0.176)">
       <defs>
        <path id="DejaVuSans-35" d="M 691 4666 
L 3169 4666 
L 3169 4134 
L 1269 4134 
L 1269 2991 
Q 1406 3038 1543 3061 
Q 1681 3084 1819 3084 
Q 2600 3084 3056 2656 
Q 3513 2228 3513 1497 
Q 3513 744 3044 326 
Q 2575 -91 1722 -91 
Q 1428 -91 1123 -41 
Q 819 9 494 109 
L 494 744 
Q 775 591 1075 516 
Q 1375 441 1709 441 
Q 2250 441 2565 725 
Q 2881 1009 2881 1497 
Q 2881 1984 2565 2268 
Q 2250 2553 1709 2553 
Q 1456 2553 1204 2497 
Q 953 2441 691 2322 
L 691 4666 
z
" transform="scale(0.015625)"/>
       </defs>
       <use xlink:href="#DejaVuSans-35"/>
       <use xlink:href="#DejaVuSans-30" x="63.623047"/>
      </g>
     </g>
    </g>
    <g id="ytick_3">
     <g id="line2d_9">
      <path d="M 85.411 252.180394 
L 532.382 252.180394 
" clip-path="url(#p6493a5af07)" style="fill: none; stroke: #cccccc; stroke-width: 0.8; stroke-linecap: round"/>
     </g>
     <g id="text_3">
      <!-- 60 -->
      <g style="fill: #262626" transform="translate(54.715 258.867019)scale(0.176 -0.176)">
       <defs>
        <path id="DejaVuSans-36" d="M 2113 2584 
Q 1688 2584 1439 2293 
Q 1191 2003 1191 1497 
Q 1191 994 1439 701 
Q 1688 409 2113 409 
Q 2538 409 2786 701 
Q 3034 994 3034 1497 
Q 3034 2003 2786 2293 
Q 2538 2584 2113 2584 
z
M 3366 4563 
L 3366 3988 
Q 3128 4100 2886 4159 
Q 2644 4219 2406 4219 
Q 1781 4219 1451 3797 
Q 1122 3375 1075 2522 
Q 1259 2794 1537 2939 
Q 1816 3084 2150 3084 
Q 2853 3084 3261 2657 
Q 3669 2231 3669 1497 
Q 3669 778 3244 343 
Q 2819 -91 2113 -91 
Q 1303 -91 875 529 
Q 447 1150 447 2328 
Q 447 3434 972 4092 
Q 1497 4750 2381 4750 
Q 2619 4750 2861 4703 
Q 3103 4656 3366 4563 
z
" transform="scale(0.015625)"/>
       </defs>
       <use xlink:href="#DejaVuSans-36"/>
       <use xlink:href="#DejaVuSans-30" x="63.623047"/>
      </g>
     </g>
    </g>
    <g id="ytick_4">
     <g id="line2d_10">
      <path d="M 85.411 213.411 
L 532.382 213.411 
" clip-path="url(#p6493a5af07)" style="fill: none; stroke: #cccccc; stroke-width: 0.8; stroke-linecap: round"/>
     </g>
     <g id="text_4">
      <!-- 70 -->
      <g style="fill: #262626" transform="translate(54.715 220.097625)scale(0.176 -0.176)">
       <defs>
        <path id="DejaVuSans-37" d="M 525 4666 
L 3525 4666 
L 3525 4397 
L 1831 0 
L 1172 0 
L 2766 4134 
L 525 4134 
L 525 4666 
z
" transform="scale(0.015625)"/>
       </defs>
       <use xlink:href="#DejaVuSans-37"/>
       <use xlink:href="#DejaVuSans-30" x="63.623047"/>
      </g>
     </g>
    </g>
    <g id="ytick_5">
     <g id="line2d_11">
      <path d="M 85.411 174.641606 
L 532.382 174.641606 
" clip-path="url(#p6493a5af07)" style="fill: none; stroke: #cccccc; stroke-width: 0.8; stroke-linecap: round"/>
     </g>
     <g id="text_5">
      <!-- 80 -->
      <g style="fill: #262626" transform="translate(54.715 181.328231)scale(0.176 -0.176)">
       <defs>
        <path id="DejaVuSans-38" d="M 2034 2216 
Q 1584 2216 1326 1975 
Q 1069 1734 1069 1313 
Q 1069 891 1326 650 
Q 1584 409 2034 409 
Q 2484 409 2743 651 
Q 3003 894 3003 1313 
Q 3003 1734 2745 1975 
Q 2488 2216 2034 2216 
z
M 1403 2484 
Q 997 2584 770 2862 
Q 544 3141 544 3541 
Q 544 4100 942 4425 
Q 1341 4750 2034 4750 
Q 2731 4750 3128 4425 
Q 3525 4100 3525 3541 
Q 3525 3141 3298 2862 
Q 3072 2584 2669 2484 
Q 3125 2378 3379 2068 
Q 3634 1759 3634 1313 
Q 3634 634 3220 271 
Q 2806 -91 2034 -91 
Q 1263 -91 848 271 
Q 434 634 434 1313 
Q 434 1759 690 2068 
Q 947 2378 1403 2484 
z
M 1172 3481 
Q 1172 3119 1398 2916 
Q 1625 2713 2034 2713 
Q 2441 2713 2670 2916 
Q 2900 3119 2900 3481 
Q 2900 3844 2670 4047 
Q 2441 4250 2034 4250 
Q 1625 4250 1398 4047 
Q 1172 3844 1172 3481 
z
" transform="scale(0.015625)"/>
       </defs>
       <use xlink:href="#DejaVuSans-38"/>
       <use xlink:href="#DejaVuSans-30" x="63.623047"/>
      </g>
     </g>
    </g>
    <g id="ytick_6">
     <g id="line2d_12">
      <path d="M 85.411 135.872212 
L 532.382 135.872212 
" clip-path="url(#p6493a5af07)" style="fill: none; stroke: #cccccc; stroke-width: 0.8; stroke-linecap: round"/>
     </g>
     <g id="text_6">
      <!-- 90 -->
      <g style="fill: #262626" transform="translate(54.715 142.558837)scale(0.176 -0.176)">
       <defs>
        <path id="DejaVuSans-39" d="M 703 97 
L 703 672 
Q 941 559 1184 500 
Q 1428 441 1663 441 
Q 2288 441 2617 861 
Q 2947 1281 2994 2138 
Q 2813 1869 2534 1725 
Q 2256 1581 1919 1581 
Q 1219 1581 811 2004 
Q 403 2428 403 3163 
Q 403 3881 828 4315 
Q 1253 4750 1959 4750 
Q 2769 4750 3195 4129 
Q 3622 3509 3622 2328 
Q 3622 1225 3098 567 
Q 2575 -91 1691 -91 
Q 1453 -91 1209 -44 
Q 966 3 703 97 
z
M 1959 2075 
Q 2384 2075 2632 2365 
Q 2881 2656 2881 3163 
Q 2881 3666 2632 3958 
Q 2384 4250 1959 4250 
Q 1534 4250 1286 3958 
Q 1038 3666 1038 3163 
Q 1038 2656 1286 2365 
Q 1534 2075 1959 2075 
z
" transform="scale(0.015625)"/>
       </defs>
       <use xlink:href="#DejaVuSans-39"/>
       <use xlink:href="#DejaVuSans-30" x="63.623047"/>
      </g>
     </g>
    </g>
    <g id="ytick_7">
     <g id="line2d_13">
      <path d="M 85.411 97.102818 
L 532.382 97.102818 
" clip-path="url(#p6493a5af07)" style="fill: none; stroke: #cccccc; stroke-width: 0.8; stroke-linecap: round"/>
     </g>
     <g id="text_7">
      <!-- 100 -->
      <g style="fill: #262626" transform="translate(43.517 103.789443)scale(0.176 -0.176)">
       <defs>
        <path id="DejaVuSans-31" d="M 794 531 
L 1825 531 
L 1825 4091 
L 703 3866 
L 703 4441 
L 1819 4666 
L 2450 4666 
L 2450 531 
L 3481 531 
L 3481 0 
L 794 0 
L 794 531 
z
" transform="scale(0.015625)"/>
       </defs>
       <use xlink:href="#DejaVuSans-31"/>
       <use xlink:href="#DejaVuSans-30" x="63.623047"/>
       <use xlink:href="#DejaVuSans-30" x="127.246094"/>
      </g>
     </g>
    </g>
    <g id="text_8">
     <!-- Percentage of variability -->
     <g style="fill: #262626" transform="translate(35.524 330.3645)rotate(-90)scale(0.192 -0.192)">
      <defs>
       <path id="DejaVuSans-50" d="M 1259 4147 
L 1259 2394 
L 2053 2394 
Q 2494 2394 2734 2622 
Q 2975 2850 2975 3272 
Q 2975 3691 2734 3919 
Q 2494 4147 2053 4147 
L 1259 4147 
z
M 628 4666 
L 2053 4666 
Q 2838 4666 3239 4311 
Q 3641 3956 3641 3272 
Q 3641 2581 3239 2228 
Q 2838 1875 2053 1875 
L 1259 1875 
L 1259 0 
L 628 0 
L 628 4666 
z
" transform="scale(0.015625)"/>
       <path id="DejaVuSans-65" d="M 3597 1894 
L 3597 1613 
L 953 1613 
Q 991 1019 1311 708 
Q 1631 397 2203 397 
Q 2534 397 2845 478 
Q 3156 559 3463 722 
L 3463 178 
Q 3153 47 2828 -22 
Q 2503 -91 2169 -91 
Q 1331 -91 842 396 
Q 353 884 353 1716 
Q 353 2575 817 3079 
Q 1281 3584 2069 3584 
Q 2775 3584 3186 3129 
Q 3597 2675 3597 1894 
z
M 3022 2063 
Q 3016 2534 2758 2815 
Q 2500 3097 2075 3097 
Q 1594 3097 1305 2825 
Q 1016 2553 972 2059 
L 3022 2063 
z
" transform="scale(0.015625)"/>
       <path id="DejaVuSans-72" d="M 2631 2963 
Q 2534 3019 2420 3045 
Q 2306 3072 2169 3072 
Q 1681 3072 1420 2755 
Q 1159 2438 1159 1844 
L 1159 0 
L 581 0 
L 581 3500 
L 1159 3500 
L 1159 2956 
Q 1341 3275 1631 3429 
Q 1922 3584 2338 3584 
Q 2397 3584 2469 3576 
Q 2541 3569 2628 3553 
L 2631 2963 
z
" transform="scale(0.015625)"/>
       <path id="DejaVuSans-63" d="M 3122 3366 
L 3122 2828 
Q 2878 2963 2633 3030 
Q 2388 3097 2138 3097 
Q 1578 3097 1268 2742 
Q 959 2388 959 1747 
Q 959 1106 1268 751 
Q 1578 397 2138 397 
Q 2388 397 2633 464 
Q 2878 531 3122 666 
L 3122 134 
Q 2881 22 2623 -34 
Q 2366 -91 2075 -91 
Q 1284 -91 818 406 
Q 353 903 353 1747 
Q 353 2603 823 3093 
Q 1294 3584 2113 3584 
Q 2378 3584 2631 3529 
Q 2884 3475 3122 3366 
z
" transform="scale(0.015625)"/>
       <path id="DejaVuSans-6e" d="M 3513 2113 
L 3513 0 
L 2938 0 
L 2938 2094 
Q 2938 2591 2744 2837 
Q 2550 3084 2163 3084 
Q 1697 3084 1428 2787 
Q 1159 2491 1159 1978 
L 1159 0 
L 581 0 
L 581 3500 
L 1159 3500 
L 1159 2956 
Q 1366 3272 1645 3428 
Q 1925 3584 2291 3584 
Q 2894 3584 3203 3211 
Q 3513 2838 3513 2113 
z
" transform="scale(0.015625)"/>
       <path id="DejaVuSans-74" d="M 1172 4494 
L 1172 3500 
L 2356 3500 
L 2356 3053 
L 1172 3053 
L 1172 1153 
Q 1172 725 1289 603 
Q 1406 481 1766 481 
L 2356 481 
L 2356 0 
L 1766 0 
Q 1100 0 847 248 
Q 594 497 594 1153 
L 594 3053 
L 172 3053 
L 172 3500 
L 594 3500 
L 594 4494 
L 1172 4494 
z
" transform="scale(0.015625)"/>
       <path id="DejaVuSans-61" d="M 2194 1759 
Q 1497 1759 1228 1600 
Q 959 1441 959 1056 
Q 959 750 1161 570 
Q 1363 391 1709 391 
Q 2188 391 2477 730 
Q 2766 1069 2766 1631 
L 2766 1759 
L 2194 1759 
z
M 3341 1997 
L 3341 0 
L 2766 0 
L 2766 531 
Q 2569 213 2275 61 
Q 1981 -91 1556 -91 
Q 1019 -91 701 211 
Q 384 513 384 1019 
Q 384 1609 779 1909 
Q 1175 2209 1959 2209 
L 2766 2209 
L 2766 2266 
Q 2766 2663 2505 2880 
Q 2244 3097 1772 3097 
Q 1472 3097 1187 3025 
Q 903 2953 641 2809 
L 641 3341 
Q 956 3463 1253 3523 
Q 1550 3584 1831 3584 
Q 2591 3584 2966 3190 
Q 3341 2797 3341 1997 
z
" transform="scale(0.015625)"/>
       <path id="DejaVuSans-67" d="M 2906 1791 
Q 2906 2416 2648 2759 
Q 2391 3103 1925 3103 
Q 1463 3103 1205 2759 
Q 947 2416 947 1791 
Q 947 1169 1205 825 
Q 1463 481 1925 481 
Q 2391 481 2648 825 
Q 2906 1169 2906 1791 
z
M 3481 434 
Q 3481 -459 3084 -895 
Q 2688 -1331 1869 -1331 
Q 1566 -1331 1297 -1286 
Q 1028 -1241 775 -1147 
L 775 -588 
Q 1028 -725 1275 -790 
Q 1522 -856 1778 -856 
Q 2344 -856 2625 -561 
Q 2906 -266 2906 331 
L 2906 616 
Q 2728 306 2450 153 
Q 2172 0 1784 0 
Q 1141 0 747 490 
Q 353 981 353 1791 
Q 353 2603 747 3093 
Q 1141 3584 1784 3584 
Q 2172 3584 2450 3431 
Q 2728 3278 2906 2969 
L 2906 3500 
L 3481 3500 
L 3481 434 
z
" transform="scale(0.015625)"/>
       <path id="DejaVuSans-20" transform="scale(0.015625)"/>
       <path id="DejaVuSans-6f" d="M 1959 3097 
Q 1497 3097 1228 2736 
Q 959 2375 959 1747 
Q 959 1119 1226 758 
Q 1494 397 1959 397 
Q 2419 397 2687 759 
Q 2956 1122 2956 1747 
Q 2956 2369 2687 2733 
Q 2419 3097 1959 3097 
z
M 1959 3584 
Q 2709 3584 3137 3096 
Q 3566 2609 3566 1747 
Q 3566 888 3137 398 
Q 2709 -91 1959 -91 
Q 1206 -91 779 398 
Q 353 888 353 1747 
Q 353 2609 779 3096 
Q 1206 3584 1959 3584 
z
" transform="scale(0.015625)"/>
       <path id="DejaVuSans-66" d="M 2375 4863 
L 2375 4384 
L 1825 4384 
Q 1516 4384 1395 4259 
Q 1275 4134 1275 3809 
L 1275 3500 
L 2222 3500 
L 2222 3053 
L 1275 3053 
L 1275 0 
L 697 0 
L 697 3053 
L 147 3053 
L 147 3500 
L 697 3500 
L 697 3744 
Q 697 4328 969 4595 
Q 1241 4863 1831 4863 
L 2375 4863 
z
" transform="scale(0.015625)"/>
       <path id="DejaVuSans-76" d="M 191 3500 
L 800 3500 
L 1894 563 
L 2988 3500 
L 3597 3500 
L 2284 0 
L 1503 0 
L 191 3500 
z
" transform="scale(0.015625)"/>
       <path id="DejaVuSans-69" d="M 603 3500 
L 1178 3500 
L 1178 0 
L 603 0 
L 603 3500 
z
M 603 4863 
L 1178 4863 
L 1178 4134 
L 603 4134 
L 603 4863 
z
" transform="scale(0.015625)"/>
       <path id="DejaVuSans-62" d="M 3116 1747 
Q 3116 2381 2855 2742 
Q 2594 3103 2138 3103 
Q 1681 3103 1420 2742 
Q 1159 2381 1159 1747 
Q 1159 1113 1420 752 
Q 1681 391 2138 391 
Q 2594 391 2855 752 
Q 3116 1113 3116 1747 
z
M 1159 2969 
Q 1341 3281 1617 3432 
Q 1894 3584 2278 3584 
Q 2916 3584 3314 3078 
Q 3713 2572 3713 1747 
Q 3713 922 3314 415 
Q 2916 -91 2278 -91 
Q 1894 -91 1617 61 
Q 1341 213 1159 525 
L 1159 0 
L 581 0 
L 581 4863 
L 1159 4863 
L 1159 2969 
z
" transform="scale(0.015625)"/>
       <path id="DejaVuSans-6c" d="M 603 4863 
L 1178 4863 
L 1178 0 
L 603 0 
L 603 4863 
z
" transform="scale(0.015625)"/>
       <path id="DejaVuSans-79" d="M 2059 -325 
Q 1816 -950 1584 -1140 
Q 1353 -1331 966 -1331 
L 506 -1331 
L 506 -850 
L 844 -850 
Q 1081 -850 1212 -737 
Q 1344 -625 1503 -206 
L 1606 56 
L 191 3500 
L 800 3500 
L 1894 763 
L 2988 3500 
L 3597 3500 
L 2059 -325 
z
" transform="scale(0.015625)"/>
      </defs>
      <use xlink:href="#DejaVuSans-50"/>
      <use xlink:href="#DejaVuSans-65" x="56.677734"/>
      <use xlink:href="#DejaVuSans-72" x="118.201172"/>
      <use xlink:href="#DejaVuSans-63" x="157.064453"/>
      <use xlink:href="#DejaVuSans-65" x="212.044922"/>
      <use xlink:href="#DejaVuSans-6e" x="273.568359"/>
      <use xlink:href="#DejaVuSans-74" x="336.947266"/>
      <use xlink:href="#DejaVuSans-61" x="376.15625"/>
      <use xlink:href="#DejaVuSans-67" x="437.435547"/>
      <use xlink:href="#DejaVuSans-65" x="500.912109"/>
      <use xlink:href="#DejaVuSans-20" x="562.435547"/>
      <use xlink:href="#DejaVuSans-6f" x="594.222656"/>
      <use xlink:href="#DejaVuSans-66" x="655.404297"/>
      <use xlink:href="#DejaVuSans-20" x="690.609375"/>
      <use xlink:href="#DejaVuSans-76" x="722.396484"/>
      <use xlink:href="#DejaVuSans-61" x="781.576172"/>
      <use xlink:href="#DejaVuSans-72" x="842.855469"/>
      <use xlink:href="#DejaVuSans-69" x="883.96875"/>
      <use xlink:href="#DejaVuSans-61" x="911.751953"/>
      <use xlink:href="#DejaVuSans-62" x="973.03125"/>
      <use xlink:href="#DejaVuSans-69" x="1036.507812"/>
      <use xlink:href="#DejaVuSans-6c" x="1064.291016"/>
      <use xlink:href="#DejaVuSans-69" x="1092.074219"/>
      <use xlink:href="#DejaVuSans-74" x="1119.857422"/>
      <use xlink:href="#DejaVuSans-79" x="1159.066406"/>
     </g>
    </g>
   </g>
   <g id="PolyCollection_1">
    <defs>
     <path id="m3cea0ee0c8" d="M 146.361591 -623.892555 
L 146.361591 -620.530171 
L 186.995318 -621.238788 
L 227.629045 -618.929098 
L 268.262773 -617.425581 
L 308.8965 -616.913449 
L 349.530227 -615.304627 
L 390.163955 -615.96885 
L 430.797682 -616.394102 
L 471.431409 -617.428455 
L 512.065136 -618.260371 
L 512.065136 -626.743988 
L 512.065136 -626.743988 
L 471.431409 -626.663945 
L 430.797682 -625.873467 
L 390.163955 -624.311975 
L 349.530227 -623.977969 
L 308.8965 -626.557093 
L 268.262773 -625.09287 
L 227.629045 -623.967912 
L 186.995318 -625.412623 
L 146.361591 -623.892555 
z
" style="stroke: #008000; stroke-opacity: 0.2; stroke-width: 0.8"/>
    </defs>
    <g clip-path="url(#p6493a5af07)">
     <use xlink:href="#m3cea0ee0c8" x="0" y="720" style="fill: #008000; fill-opacity: 0.2; stroke: #008000; stroke-opacity: 0.2; stroke-width: 0.8"/>
    </g>
   </g>
   <g id="PolyCollection_2">
    <defs>
     <path id="m21ea11a501" d="M 146.361591 -629.94102 
L 146.361591 -595.033059 
L 186.995318 -573.125167 
L 227.629045 -555.739741 
L 268.262773 -529.915088 
L 308.8965 -516.636719 
L 349.530227 -497.188502 
L 390.163955 -479.758418 
L 430.797682 -460.946513 
L 471.431409 -458.481677 
L 512.065136 -446.890811 
L 512.065136 -502.675277 
L 512.065136 -502.675277 
L 471.431409 -512.810011 
L 430.797682 -528.443159 
L 390.163955 -542.16425 
L 349.530227 -553.822063 
L 308.8965 -573.014867 
L 268.262773 -588.355617 
L 227.629045 -610.678744 
L 186.995318 -629.666848 
L 146.361591 -629.94102 
z
" style="stroke: #6786c6; stroke-opacity: 0.2; stroke-width: 0.8"/>
    </defs>
    <g clip-path="url(#p6493a5af07)">
     <use xlink:href="#m21ea11a501" x="0" y="720" style="fill: #6786c6; fill-opacity: 0.2; stroke: #6786c6; stroke-opacity: 0.2; stroke-width: 0.8"/>
    </g>
   </g>
   <g id="PolyCollection_3">
    <defs>
     <path id="mf4c6dfa52a" d="M 146.361591 -624.275163 
L 146.361591 -612.510803 
L 186.995318 -613.495006 
L 227.629045 -605.510521 
L 268.262773 -596.826561 
L 308.8965 -593.597874 
L 349.530227 -584.015318 
L 390.163955 -579.439531 
L 430.797682 -572.900777 
L 471.431409 -562.195276 
L 512.065136 -558.117398 
L 512.065136 -615.495426 
L 512.065136 -615.495426 
L 471.431409 -622.157619 
L 430.797682 -626.938298 
L 390.163955 -620.600647 
L 349.530227 -615.246867 
L 308.8965 -619.622592 
L 268.262773 -621.732766 
L 227.629045 -618.349803 
L 186.995318 -622.538171 
L 146.361591 -624.275163 
z
" style="stroke: #e19252; stroke-opacity: 0.2; stroke-width: 0.8"/>
    </defs>
    <g clip-path="url(#p6493a5af07)">
     <use xlink:href="#mf4c6dfa52a" x="0" y="720" style="fill: #e19252; fill-opacity: 0.2; stroke: #e19252; stroke-opacity: 0.2; stroke-width: 0.8"/>
    </g>
   </g>
   <g id="line2d_14">
    <path d="M 105.727864 97.102818 
L 146.361591 97.789613 
L 186.995318 96.528271 
L 227.629045 98.68336 
L 268.262773 98.669989 
L 308.8965 98.211 
L 349.530227 100.256664 
L 390.163955 99.609181 
L 430.797682 98.542693 
L 471.431409 97.688393 
L 512.065136 97.512453 
" clip-path="url(#p6493a5af07)" style="fill: none; stroke: #008000; stroke-width: 1.2; stroke-linecap: round"/>
   </g>
   <g id="line2d_15">
    <path d="M 105.727864 97.102818 
L 146.361591 106.630908 
L 186.995318 119.019505 
L 227.629045 136.789071 
L 268.262773 163.324868 
L 308.8965 175.686 
L 349.530227 197.820751 
L 390.163955 211.173073 
L 430.797682 230.006838 
L 471.431409 235.216813 
L 512.065136 245.588119 
" clip-path="url(#p6493a5af07)" style="fill: none; stroke: #6786c6; stroke-width: 1.2; stroke-linecap: round"/>
   </g>
   <g id="line2d_16">
    <path d="M 105.727864 97.102818 
L 146.361591 101.950607 
L 186.995318 101.464279 
L 227.629045 108.04197 
L 268.262773 110.419211 
L 308.8965 113.077805 
L 349.530227 119.58759 
L 390.163955 119.417229 
L 430.797682 120.601804 
L 471.431409 127.968205 
L 512.065136 133.868023 
" clip-path="url(#p6493a5af07)" style="fill: none; stroke: #e19252; stroke-width: 1.2; stroke-linecap: round"/>
   </g>
   <g id="line2d_17"/>
   <g id="line2d_18"/>
   <g id="line2d_19"/>
   <g id="patch_3">
    <path d="M 85.411 341.35 
L 85.411 85.472 
" style="fill: none; stroke: #cccccc; stroke-linejoin: miter; stroke-linecap: square"/>
   </g>
   <g id="patch_4">
    <path d="M 532.382 341.35 
L 532.382 85.472 
" style="fill: none; stroke: #cccccc; stroke-linejoin: miter; stroke-linecap: square"/>
   </g>
   <g id="patch_5">
    <path d="M 85.411 341.35 
L 532.382 341.35 
" style="fill: none; stroke: #cccccc; stroke-linejoin: miter; stroke-linecap: square"/>
   </g>
   <g id="patch_6">
    <path d="M 85.411 85.472 
L 532.382 85.472 
" style="fill: none; stroke: #cccccc; stroke-linejoin: miter; stroke-linecap: square"/>
   </g>
   <g id="text_9">
    <!-- a -->
    <g style="fill: #262626" transform="translate(85.411 81.479)scale(0.192 -0.192)">
     <defs>
      <path id="DejaVuSans-Bold-61" d="M 2106 1575 
Q 1756 1575 1579 1456 
Q 1403 1338 1403 1106 
Q 1403 894 1545 773 
Q 1688 653 1941 653 
Q 2256 653 2472 879 
Q 2688 1106 2688 1447 
L 2688 1575 
L 2106 1575 
z
M 3816 1997 
L 3816 0 
L 2688 0 
L 2688 519 
Q 2463 200 2181 54 
Q 1900 -91 1497 -91 
Q 953 -91 614 226 
Q 275 544 275 1050 
Q 275 1666 698 1953 
Q 1122 2241 2028 2241 
L 2688 2241 
L 2688 2328 
Q 2688 2594 2478 2717 
Q 2269 2841 1825 2841 
Q 1466 2841 1156 2769 
Q 847 2697 581 2553 
L 581 3406 
Q 941 3494 1303 3539 
Q 1666 3584 2028 3584 
Q 2975 3584 3395 3211 
Q 3816 2838 3816 1997 
z
" transform="scale(0.015625)"/>
     </defs>
     <use xlink:href="#DejaVuSans-Bold-61"/>
    </g>
   </g>
   <g id="text_10">
    <!-- Dim. 1 -->
    <g style="fill: #262626" transform="translate(277.2765 79.472)scale(0.192 -0.192)">
     <defs>
      <path id="DejaVuSans-44" d="M 1259 4147 
L 1259 519 
L 2022 519 
Q 2988 519 3436 956 
Q 3884 1394 3884 2338 
Q 3884 3275 3436 3711 
Q 2988 4147 2022 4147 
L 1259 4147 
z
M 628 4666 
L 1925 4666 
Q 3281 4666 3915 4102 
Q 4550 3538 4550 2338 
Q 4550 1131 3912 565 
Q 3275 0 1925 0 
L 628 0 
L 628 4666 
z
" transform="scale(0.015625)"/>
      <path id="DejaVuSans-6d" d="M 3328 2828 
Q 3544 3216 3844 3400 
Q 4144 3584 4550 3584 
Q 5097 3584 5394 3201 
Q 5691 2819 5691 2113 
L 5691 0 
L 5113 0 
L 5113 2094 
Q 5113 2597 4934 2840 
Q 4756 3084 4391 3084 
Q 3944 3084 3684 2787 
Q 3425 2491 3425 1978 
L 3425 0 
L 2847 0 
L 2847 2094 
Q 2847 2600 2669 2842 
Q 2491 3084 2119 3084 
Q 1678 3084 1418 2786 
Q 1159 2488 1159 1978 
L 1159 0 
L 581 0 
L 581 3500 
L 1159 3500 
L 1159 2956 
Q 1356 3278 1631 3431 
Q 1906 3584 2284 3584 
Q 2666 3584 2933 3390 
Q 3200 3197 3328 2828 
z
" transform="scale(0.015625)"/>
      <path id="DejaVuSans-2e" d="M 684 794 
L 1344 794 
L 1344 0 
L 684 0 
L 684 794 
z
" transform="scale(0.015625)"/>
     </defs>
     <use xlink:href="#DejaVuSans-44"/>
     <use xlink:href="#DejaVuSans-69" x="77.001953"/>
     <use xlink:href="#DejaVuSans-6d" x="104.785156"/>
     <use xlink:href="#DejaVuSans-2e" x="202.197266"/>
     <use xlink:href="#DejaVuSans-20" x="233.984375"/>
     <use xlink:href="#DejaVuSans-31" x="265.771484"/>
    </g>
   </g>
  </g>
  <g id="axes_2">
   <g id="patch_7">
    <path d="M 612.293 341.35 
L 1059.264 341.35 
L 1059.264 85.472 
L 612.293 85.472 
z
" style="fill: #ffffff"/>
   </g>
   <g id="matplotlib.axis_3">
    <g id="xtick_7">
     <g id="line2d_20">
      <path d="M 632.609864 341.35 
L 632.609864 85.472 
" clip-path="url(#p69b2bb2ffc)" style="fill: none; stroke: #cccccc; stroke-width: 0.8; stroke-linecap: round"/>
     </g>
    </g>
    <g id="xtick_8">
     <g id="line2d_21">
      <path d="M 713.877318 341.35 
L 713.877318 85.472 
" clip-path="url(#p69b2bb2ffc)" style="fill: none; stroke: #cccccc; stroke-width: 0.8; stroke-linecap: round"/>
     </g>
    </g>
    <g id="xtick_9">
     <g id="line2d_22">
      <path d="M 795.144773 341.35 
L 795.144773 85.472 
" clip-path="url(#p69b2bb2ffc)" style="fill: none; stroke: #cccccc; stroke-width: 0.8; stroke-linecap: round"/>
     </g>
    </g>
    <g id="xtick_10">
     <g id="line2d_23">
      <path d="M 876.412227 341.35 
L 876.412227 85.472 
" clip-path="url(#p69b2bb2ffc)" style="fill: none; stroke: #cccccc; stroke-width: 0.8; stroke-linecap: round"/>
     </g>
    </g>
    <g id="xtick_11">
     <g id="line2d_24">
      <path d="M 957.679682 341.35 
L 957.679682 85.472 
" clip-path="url(#p69b2bb2ffc)" style="fill: none; stroke: #cccccc; stroke-width: 0.8; stroke-linecap: round"/>
     </g>
    </g>
    <g id="xtick_12">
     <g id="line2d_25">
      <path d="M 1038.947136 341.35 
L 1038.947136 85.472 
" clip-path="url(#p69b2bb2ffc)" style="fill: none; stroke: #cccccc; stroke-width: 0.8; stroke-linecap: round"/>
     </g>
    </g>
   </g>
   <g id="matplotlib.axis_4">
    <g id="ytick_8">
     <g id="line2d_26">
      <path d="M 612.293 341.35 
L 1059.264 341.35 
" clip-path="url(#p69b2bb2ffc)" style="fill: none; stroke: #cccccc; stroke-width: 0.8; stroke-linecap: round"/>
     </g>
     <g id="text_11">
      <!-- 0.0 -->
      <g style="fill: #262626" transform="translate(576.0035 348.036625)scale(0.176 -0.176)">
       <use xlink:href="#DejaVuSans-30"/>
       <use xlink:href="#DejaVuSans-2e" x="63.623047"/>
       <use xlink:href="#DejaVuSans-30" x="95.410156"/>
      </g>
     </g>
    </g>
    <g id="ytick_9">
     <g id="line2d_27">
      <path d="M 612.293 293.965185 
L 1059.264 293.965185 
" clip-path="url(#p69b2bb2ffc)" style="fill: none; stroke: #cccccc; stroke-width: 0.8; stroke-linecap: round"/>
     </g>
     <g id="text_12">
      <!-- 0.5 -->
      <g style="fill: #262626" transform="translate(576.0035 300.65181)scale(0.176 -0.176)">
       <use xlink:href="#DejaVuSans-30"/>
       <use xlink:href="#DejaVuSans-2e" x="63.623047"/>
       <use xlink:href="#DejaVuSans-35" x="95.410156"/>
      </g>
     </g>
    </g>
    <g id="ytick_10">
     <g id="line2d_28">
      <path d="M 612.293 246.58037 
L 1059.264 246.58037 
" clip-path="url(#p69b2bb2ffc)" style="fill: none; stroke: #cccccc; stroke-width: 0.8; stroke-linecap: round"/>
     </g>
     <g id="text_13">
      <!-- 1.0 -->
      <g style="fill: #262626" transform="translate(576.0035 253.266995)scale(0.176 -0.176)">
       <use xlink:href="#DejaVuSans-31"/>
       <use xlink:href="#DejaVuSans-2e" x="63.623047"/>
       <use xlink:href="#DejaVuSans-30" x="95.410156"/>
      </g>
     </g>
    </g>
    <g id="ytick_11">
     <g id="line2d_29">
      <path d="M 612.293 199.195556 
L 1059.264 199.195556 
" clip-path="url(#p69b2bb2ffc)" style="fill: none; stroke: #cccccc; stroke-width: 0.8; stroke-linecap: round"/>
     </g>
     <g id="text_14">
      <!-- 1.5 -->
      <g style="fill: #262626" transform="translate(576.0035 205.882181)scale(0.176 -0.176)">
       <use xlink:href="#DejaVuSans-31"/>
       <use xlink:href="#DejaVuSans-2e" x="63.623047"/>
       <use xlink:href="#DejaVuSans-35" x="95.410156"/>
      </g>
     </g>
    </g>
    <g id="ytick_12">
     <g id="line2d_30">
      <path d="M 612.293 151.810741 
L 1059.264 151.810741 
" clip-path="url(#p69b2bb2ffc)" style="fill: none; stroke: #cccccc; stroke-width: 0.8; stroke-linecap: round"/>
     </g>
     <g id="text_15">
      <!-- 2.0 -->
      <g style="fill: #262626" transform="translate(576.0035 158.497366)scale(0.176 -0.176)">
       <defs>
        <path id="DejaVuSans-32" d="M 1228 531 
L 3431 531 
L 3431 0 
L 469 0 
L 469 531 
Q 828 903 1448 1529 
Q 2069 2156 2228 2338 
Q 2531 2678 2651 2914 
Q 2772 3150 2772 3378 
Q 2772 3750 2511 3984 
Q 2250 4219 1831 4219 
Q 1534 4219 1204 4116 
Q 875 4013 500 3803 
L 500 4441 
Q 881 4594 1212 4672 
Q 1544 4750 1819 4750 
Q 2544 4750 2975 4387 
Q 3406 4025 3406 3419 
Q 3406 3131 3298 2873 
Q 3191 2616 2906 2266 
Q 2828 2175 2409 1742 
Q 1991 1309 1228 531 
z
" transform="scale(0.015625)"/>
       </defs>
       <use xlink:href="#DejaVuSans-32"/>
       <use xlink:href="#DejaVuSans-2e" x="63.623047"/>
       <use xlink:href="#DejaVuSans-30" x="95.410156"/>
      </g>
     </g>
    </g>
    <g id="ytick_13">
     <g id="line2d_31">
      <path d="M 612.293 104.425926 
L 1059.264 104.425926 
" clip-path="url(#p69b2bb2ffc)" style="fill: none; stroke: #cccccc; stroke-width: 0.8; stroke-linecap: round"/>
     </g>
     <g id="text_16">
      <!-- 2.5 -->
      <g style="fill: #262626" transform="translate(576.0035 111.112551)scale(0.176 -0.176)">
       <use xlink:href="#DejaVuSans-32"/>
       <use xlink:href="#DejaVuSans-2e" x="63.623047"/>
       <use xlink:href="#DejaVuSans-35" x="95.410156"/>
      </g>
     </g>
    </g>
    <g id="text_17">
     <!-- Standard deviation -->
     <g style="fill: #262626" transform="translate(568.0105 304.7595)rotate(-90)scale(0.192 -0.192)">
      <defs>
       <path id="DejaVuSans-53" d="M 3425 4513 
L 3425 3897 
Q 3066 4069 2747 4153 
Q 2428 4238 2131 4238 
Q 1616 4238 1336 4038 
Q 1056 3838 1056 3469 
Q 1056 3159 1242 3001 
Q 1428 2844 1947 2747 
L 2328 2669 
Q 3034 2534 3370 2195 
Q 3706 1856 3706 1288 
Q 3706 609 3251 259 
Q 2797 -91 1919 -91 
Q 1588 -91 1214 -16 
Q 841 59 441 206 
L 441 856 
Q 825 641 1194 531 
Q 1563 422 1919 422 
Q 2459 422 2753 634 
Q 3047 847 3047 1241 
Q 3047 1584 2836 1778 
Q 2625 1972 2144 2069 
L 1759 2144 
Q 1053 2284 737 2584 
Q 422 2884 422 3419 
Q 422 4038 858 4394 
Q 1294 4750 2059 4750 
Q 2388 4750 2728 4690 
Q 3069 4631 3425 4513 
z
" transform="scale(0.015625)"/>
       <path id="DejaVuSans-64" d="M 2906 2969 
L 2906 4863 
L 3481 4863 
L 3481 0 
L 2906 0 
L 2906 525 
Q 2725 213 2448 61 
Q 2172 -91 1784 -91 
Q 1150 -91 751 415 
Q 353 922 353 1747 
Q 353 2572 751 3078 
Q 1150 3584 1784 3584 
Q 2172 3584 2448 3432 
Q 2725 3281 2906 2969 
z
M 947 1747 
Q 947 1113 1208 752 
Q 1469 391 1925 391 
Q 2381 391 2643 752 
Q 2906 1113 2906 1747 
Q 2906 2381 2643 2742 
Q 2381 3103 1925 3103 
Q 1469 3103 1208 2742 
Q 947 2381 947 1747 
z
" transform="scale(0.015625)"/>
      </defs>
      <use xlink:href="#DejaVuSans-53"/>
      <use xlink:href="#DejaVuSans-74" x="63.476562"/>
      <use xlink:href="#DejaVuSans-61" x="102.685547"/>
      <use xlink:href="#DejaVuSans-6e" x="163.964844"/>
      <use xlink:href="#DejaVuSans-64" x="227.34375"/>
      <use xlink:href="#DejaVuSans-61" x="290.820312"/>
      <use xlink:href="#DejaVuSans-72" x="352.099609"/>
      <use xlink:href="#DejaVuSans-64" x="391.462891"/>
      <use xlink:href="#DejaVuSans-20" x="454.939453"/>
      <use xlink:href="#DejaVuSans-64" x="486.726562"/>
      <use xlink:href="#DejaVuSans-65" x="550.203125"/>
      <use xlink:href="#DejaVuSans-76" x="611.726562"/>
      <use xlink:href="#DejaVuSans-69" x="670.90625"/>
      <use xlink:href="#DejaVuSans-61" x="698.689453"/>
      <use xlink:href="#DejaVuSans-74" x="759.96875"/>
      <use xlink:href="#DejaVuSans-69" x="799.177734"/>
      <use xlink:href="#DejaVuSans-6f" x="826.960938"/>
      <use xlink:href="#DejaVuSans-6e" x="888.142578"/>
     </g>
    </g>
   </g>
   <g id="PolyCollection_4">
    <defs>
     <path id="m0c83d45218" d="M 673.243591 -625.423071 
L 673.243591 -623.210163 
L 713.877318 -623.716154 
L 754.511045 -622.014906 
L 795.144773 -621.233486 
L 835.7785 -620.883752 
L 876.412227 -619.869172 
L 917.045955 -620.324339 
L 957.679682 -620.674916 
L 998.313409 -621.436355 
L 1038.947136 -621.471302 
L 1038.947136 -627.06758 
L 1038.947136 -627.06758 
L 998.313409 -627.168622 
L 957.679682 -626.369377 
L 917.045955 -625.56374 
L 876.412227 -625.403603 
L 835.7785 -627.109455 
L 795.144773 -626.155026 
L 754.511045 -625.331498 
L 713.877318 -626.330613 
L 673.243591 -625.423071 
z
" style="stroke: #008000; stroke-opacity: 0.2; stroke-width: 0.8"/>
    </defs>
    <g clip-path="url(#p69b2bb2ffc)">
     <use xlink:href="#m0c83d45218" x="0" y="720" style="fill: #008000; fill-opacity: 0.2; stroke: #008000; stroke-opacity: 0.2; stroke-width: 0.8"/>
    </g>
   </g>
   <g id="PolyCollection_5">
    <defs>
     <path id="m8346d65af4" d="M 673.243591 -434.583924 
L 673.243591 -429.889181 
L 713.877318 -426.86362 
L 754.511045 -424.163521 
L 795.144773 -420.219679 
L 835.7785 -418.869388 
L 876.412227 -416.025397 
L 917.045955 -413.172875 
L 957.679682 -410.589704 
L 998.313409 -410.622443 
L 1038.947136 -408.654031 
L 1038.947136 -416.639157 
L 1038.947136 -416.639157 
L 998.313409 -418.440034 
L 957.679682 -420.131561 
L 917.045955 -422.204783 
L 876.412227 -423.720763 
L 835.7785 -426.810162 
L 795.144773 -428.97045 
L 754.511045 -432.075017 
L 713.877318 -434.589262 
L 673.243591 -434.583924 
z
" style="stroke: #6786c6; stroke-opacity: 0.2; stroke-width: 0.8"/>
    </defs>
    <g clip-path="url(#p69b2bb2ffc)">
     <use xlink:href="#m8346d65af4" x="0" y="720" style="fill: #6786c6; fill-opacity: 0.2; stroke: #6786c6; stroke-opacity: 0.2; stroke-width: 0.8"/>
    </g>
   </g>
   <g id="PolyCollection_6">
    <defs>
     <path id="m57589ad28e" d="M 673.243591 -519.638639 
L 673.243591 -515.567201 
L 713.877318 -515.961334 
L 754.511045 -513.050383 
L 795.144773 -510.486501 
L 835.7785 -508.251745 
L 876.412227 -505.489778 
L 917.045955 -503.191787 
L 957.679682 -501.148521 
L 998.313409 -497.354717 
L 1038.947136 -495.544279 
L 1038.947136 -516.429256 
L 1038.947136 -516.429256 
L 998.313409 -519.343135 
L 957.679682 -520.338374 
L 917.045955 -518.140055 
L 876.412227 -516.616077 
L 835.7785 -518.206371 
L 795.144773 -519.042507 
L 754.511045 -517.525021 
L 713.877318 -519.347999 
L 673.243591 -519.638639 
z
" style="stroke: #e19252; stroke-opacity: 0.2; stroke-width: 0.8"/>
    </defs>
    <g clip-path="url(#p69b2bb2ffc)">
     <use xlink:href="#m57589ad28e" x="0" y="720" style="fill: #e19252; fill-opacity: 0.2; stroke: #e19252; stroke-opacity: 0.2; stroke-width: 0.8"/>
    </g>
   </g>
   <g id="line2d_32">
    <path d="M 632.609864 95.294603 
L 673.243591 95.730487 
L 713.877318 94.929959 
L 754.511045 96.297716 
L 795.144773 96.28923 
L 835.7785 95.997926 
L 876.412227 97.296236 
L 917.045955 96.885301 
L 957.679682 96.20844 
L 998.313409 95.666246 
L 1038.947136 95.554583 
" clip-path="url(#p69b2bb2ffc)" style="fill: none; stroke: #008000; stroke-width: 1.2; stroke-linecap: round"/>
   </g>
   <g id="line2d_33">
    <path d="M 632.609864 286.275865 
L 673.243591 287.629384 
L 713.877318 289.389255 
L 754.511045 291.913523 
L 795.144773 295.683085 
L 835.7785 297.439054 
L 876.412227 300.583421 
L 917.045955 302.480195 
L 957.679682 305.155639 
L 998.313409 305.895745 
L 1038.947136 307.369049 
" clip-path="url(#p69b2bb2ffc)" style="fill: none; stroke: #6786c6; stroke-width: 1.2; stroke-linecap: round"/>
   </g>
   <g id="line2d_34">
    <path d="M 632.609864 200.669977 
L 673.243591 202.429064 
L 713.877318 202.252593 
L 754.511045 204.639398 
L 795.144773 205.502012 
L 835.7785 206.466719 
L 876.412227 208.828883 
L 917.045955 208.767065 
L 957.679682 209.196904 
L 998.313409 211.869903 
L 1038.947136 214.010732 
" clip-path="url(#p69b2bb2ffc)" style="fill: none; stroke: #e19252; stroke-width: 1.2; stroke-linecap: round"/>
   </g>
   <g id="line2d_35"/>
   <g id="line2d_36"/>
   <g id="line2d_37"/>
   <g id="patch_8">
    <path d="M 612.293 341.35 
L 612.293 85.472 
" style="fill: none; stroke: #cccccc; stroke-linejoin: miter; stroke-linecap: square"/>
   </g>
   <g id="patch_9">
    <path d="M 1059.264 341.35 
L 1059.264 85.472 
" style="fill: none; stroke: #cccccc; stroke-linejoin: miter; stroke-linecap: square"/>
   </g>
   <g id="patch_10">
    <path d="M 612.293 341.35 
L 1059.264 341.35 
" style="fill: none; stroke: #cccccc; stroke-linejoin: miter; stroke-linecap: square"/>
   </g>
   <g id="patch_11">
    <path d="M 612.293 85.472 
L 1059.264 85.472 
" style="fill: none; stroke: #cccccc; stroke-linejoin: miter; stroke-linecap: square"/>
   </g>
   <g id="text_18">
    <!-- b -->
    <g style="fill: #262626" transform="translate(612.293 81.479)scale(0.192 -0.192)">
     <defs>
      <path id="DejaVuSans-Bold-62" d="M 2400 722 
Q 2759 722 2948 984 
Q 3138 1247 3138 1747 
Q 3138 2247 2948 2509 
Q 2759 2772 2400 2772 
Q 2041 2772 1848 2508 
Q 1656 2244 1656 1747 
Q 1656 1250 1848 986 
Q 2041 722 2400 722 
z
M 1656 2988 
Q 1888 3294 2169 3439 
Q 2450 3584 2816 3584 
Q 3463 3584 3878 3070 
Q 4294 2556 4294 1747 
Q 4294 938 3878 423 
Q 3463 -91 2816 -91 
Q 2450 -91 2169 54 
Q 1888 200 1656 506 
L 1656 0 
L 538 0 
L 538 4863 
L 1656 4863 
L 1656 2988 
z
" transform="scale(0.015625)"/>
     </defs>
     <use xlink:href="#DejaVuSans-Bold-62"/>
    </g>
   </g>
   <g id="text_19">
    <!-- Dim. 1 -->
    <g style="fill: #262626" transform="translate(804.1585 79.472)scale(0.192 -0.192)">
     <use xlink:href="#DejaVuSans-44"/>
     <use xlink:href="#DejaVuSans-69" x="77.001953"/>
     <use xlink:href="#DejaVuSans-6d" x="104.785156"/>
     <use xlink:href="#DejaVuSans-2e" x="202.197266"/>
     <use xlink:href="#DejaVuSans-20" x="233.984375"/>
     <use xlink:href="#DejaVuSans-31" x="265.771484"/>
    </g>
   </g>
  </g>
  <g id="axes_3">
   <g id="patch_12">
    <path d="M 85.411 649.964 
L 532.382 649.964 
L 532.382 394.086 
L 85.411 394.086 
z
" style="fill: #ffffff"/>
   </g>
   <g id="matplotlib.axis_5">
    <g id="xtick_13">
     <g id="line2d_38">
      <path d="M 105.727864 649.964 
L 105.727864 394.086 
" clip-path="url(#p203a29bed9)" style="fill: none; stroke: #cccccc; stroke-width: 0.8; stroke-linecap: round"/>
     </g>
     <g id="text_20">
      <!-- 0 -->
      <g style="fill: #262626" transform="translate(100.128864 671.63725)scale(0.176 -0.176)">
       <use xlink:href="#DejaVuSans-30"/>
      </g>
     </g>
    </g>
    <g id="xtick_14">
     <g id="line2d_39">
      <path d="M 186.995318 649.964 
L 186.995318 394.086 
" clip-path="url(#p203a29bed9)" style="fill: none; stroke: #cccccc; stroke-width: 0.8; stroke-linecap: round"/>
     </g>
     <g id="text_21">
      <!-- 2 -->
      <g style="fill: #262626" transform="translate(181.396318 671.63725)scale(0.176 -0.176)">
       <use xlink:href="#DejaVuSans-32"/>
      </g>
     </g>
    </g>
    <g id="xtick_15">
     <g id="line2d_40">
      <path d="M 268.262773 649.964 
L 268.262773 394.086 
" clip-path="url(#p203a29bed9)" style="fill: none; stroke: #cccccc; stroke-width: 0.8; stroke-linecap: round"/>
     </g>
     <g id="text_22">
      <!-- 4 -->
      <g style="fill: #262626" transform="translate(262.663773 671.63725)scale(0.176 -0.176)">
       <use xlink:href="#DejaVuSans-34"/>
      </g>
     </g>
    </g>
    <g id="xtick_16">
     <g id="line2d_41">
      <path d="M 349.530227 649.964 
L 349.530227 394.086 
" clip-path="url(#p203a29bed9)" style="fill: none; stroke: #cccccc; stroke-width: 0.8; stroke-linecap: round"/>
     </g>
     <g id="text_23">
      <!-- 6 -->
      <g style="fill: #262626" transform="translate(343.931227 671.63725)scale(0.176 -0.176)">
       <use xlink:href="#DejaVuSans-36"/>
      </g>
     </g>
    </g>
    <g id="xtick_17">
     <g id="line2d_42">
      <path d="M 430.797682 649.964 
L 430.797682 394.086 
" clip-path="url(#p203a29bed9)" style="fill: none; stroke: #cccccc; stroke-width: 0.8; stroke-linecap: round"/>
     </g>
     <g id="text_24">
      <!-- 8 -->
      <g style="fill: #262626" transform="translate(425.198682 671.63725)scale(0.176 -0.176)">
       <use xlink:href="#DejaVuSans-38"/>
      </g>
     </g>
    </g>
    <g id="xtick_18">
     <g id="line2d_43">
      <path d="M 512.065136 649.964 
L 512.065136 394.086 
" clip-path="url(#p203a29bed9)" style="fill: none; stroke: #cccccc; stroke-width: 0.8; stroke-linecap: round"/>
     </g>
     <g id="text_25">
      <!-- 10 -->
      <g style="fill: #262626" transform="translate(500.867136 671.63725)scale(0.176 -0.176)">
       <use xlink:href="#DejaVuSans-31"/>
       <use xlink:href="#DejaVuSans-30" x="63.623047"/>
      </g>
     </g>
    </g>
    <g id="text_26">
     <!-- iteration -->
     <g style="fill: #262626" transform="translate(268.341 693.8865)scale(0.192 -0.192)">
      <use xlink:href="#DejaVuSans-69"/>
      <use xlink:href="#DejaVuSans-74" x="27.783203"/>
      <use xlink:href="#DejaVuSans-65" x="66.992188"/>
      <use xlink:href="#DejaVuSans-72" x="128.515625"/>
      <use xlink:href="#DejaVuSans-61" x="169.628906"/>
      <use xlink:href="#DejaVuSans-74" x="230.908203"/>
      <use xlink:href="#DejaVuSans-69" x="270.117188"/>
      <use xlink:href="#DejaVuSans-6f" x="297.900391"/>
      <use xlink:href="#DejaVuSans-6e" x="359.082031"/>
     </g>
    </g>
   </g>
   <g id="matplotlib.axis_6">
    <g id="ytick_14">
     <g id="line2d_44">
      <path d="M 85.411 638.333182 
L 532.382 638.333182 
" clip-path="url(#p203a29bed9)" style="fill: none; stroke: #cccccc; stroke-width: 0.8; stroke-linecap: round"/>
     </g>
     <g id="text_27">
      <!-- 40 -->
      <g style="fill: #262626" transform="translate(54.715 645.019807)scale(0.176 -0.176)">
       <use xlink:href="#DejaVuSans-34"/>
       <use xlink:href="#DejaVuSans-30" x="63.623047"/>
      </g>
     </g>
    </g>
    <g id="ytick_15">
     <g id="line2d_45">
      <path d="M 85.411 599.563788 
L 532.382 599.563788 
" clip-path="url(#p203a29bed9)" style="fill: none; stroke: #cccccc; stroke-width: 0.8; stroke-linecap: round"/>
     </g>
     <g id="text_28">
      <!-- 50 -->
      <g style="fill: #262626" transform="translate(54.715 606.250413)scale(0.176 -0.176)">
       <use xlink:href="#DejaVuSans-35"/>
       <use xlink:href="#DejaVuSans-30" x="63.623047"/>
      </g>
     </g>
    </g>
    <g id="ytick_16">
     <g id="line2d_46">
      <path d="M 85.411 560.794394 
L 532.382 560.794394 
" clip-path="url(#p203a29bed9)" style="fill: none; stroke: #cccccc; stroke-width: 0.8; stroke-linecap: round"/>
     </g>
     <g id="text_29">
      <!-- 60 -->
      <g style="fill: #262626" transform="translate(54.715 567.481019)scale(0.176 -0.176)">
       <use xlink:href="#DejaVuSans-36"/>
       <use xlink:href="#DejaVuSans-30" x="63.623047"/>
      </g>
     </g>
    </g>
    <g id="ytick_17">
     <g id="line2d_47">
      <path d="M 85.411 522.025 
L 532.382 522.025 
" clip-path="url(#p203a29bed9)" style="fill: none; stroke: #cccccc; stroke-width: 0.8; stroke-linecap: round"/>
     </g>
     <g id="text_30">
      <!-- 70 -->
      <g style="fill: #262626" transform="translate(54.715 528.711625)scale(0.176 -0.176)">
       <use xlink:href="#DejaVuSans-37"/>
       <use xlink:href="#DejaVuSans-30" x="63.623047"/>
      </g>
     </g>
    </g>
    <g id="ytick_18">
     <g id="line2d_48">
      <path d="M 85.411 483.255606 
L 532.382 483.255606 
" clip-path="url(#p203a29bed9)" style="fill: none; stroke: #cccccc; stroke-width: 0.8; stroke-linecap: round"/>
     </g>
     <g id="text_31">
      <!-- 80 -->
      <g style="fill: #262626" transform="translate(54.715 489.942231)scale(0.176 -0.176)">
       <use xlink:href="#DejaVuSans-38"/>
       <use xlink:href="#DejaVuSans-30" x="63.623047"/>
      </g>
     </g>
    </g>
    <g id="ytick_19">
     <g id="line2d_49">
      <path d="M 85.411 444.486212 
L 532.382 444.486212 
" clip-path="url(#p203a29bed9)" style="fill: none; stroke: #cccccc; stroke-width: 0.8; stroke-linecap: round"/>
     </g>
     <g id="text_32">
      <!-- 90 -->
      <g style="fill: #262626" transform="translate(54.715 451.172837)scale(0.176 -0.176)">
       <use xlink:href="#DejaVuSans-39"/>
       <use xlink:href="#DejaVuSans-30" x="63.623047"/>
      </g>
     </g>
    </g>
    <g id="ytick_20">
     <g id="line2d_50">
      <path d="M 85.411 405.716818 
L 532.382 405.716818 
" clip-path="url(#p203a29bed9)" style="fill: none; stroke: #cccccc; stroke-width: 0.8; stroke-linecap: round"/>
     </g>
     <g id="text_33">
      <!-- 100 -->
      <g style="fill: #262626" transform="translate(43.517 412.403443)scale(0.176 -0.176)">
       <use xlink:href="#DejaVuSans-31"/>
       <use xlink:href="#DejaVuSans-30" x="63.623047"/>
       <use xlink:href="#DejaVuSans-30" x="127.246094"/>
      </g>
     </g>
    </g>
    <g id="text_34">
     <!-- Percentage of variability -->
     <g style="fill: #262626" transform="translate(35.524 638.9785)rotate(-90)scale(0.192 -0.192)">
      <use xlink:href="#DejaVuSans-50"/>
      <use xlink:href="#DejaVuSans-65" x="56.677734"/>
      <use xlink:href="#DejaVuSans-72" x="118.201172"/>
      <use xlink:href="#DejaVuSans-63" x="157.064453"/>
      <use xlink:href="#DejaVuSans-65" x="212.044922"/>
      <use xlink:href="#DejaVuSans-6e" x="273.568359"/>
      <use xlink:href="#DejaVuSans-74" x="336.947266"/>
      <use xlink:href="#DejaVuSans-61" x="376.15625"/>
      <use xlink:href="#DejaVuSans-67" x="437.435547"/>
      <use xlink:href="#DejaVuSans-65" x="500.912109"/>
      <use xlink:href="#DejaVuSans-20" x="562.435547"/>
      <use xlink:href="#DejaVuSans-6f" x="594.222656"/>
      <use xlink:href="#DejaVuSans-66" x="655.404297"/>
      <use xlink:href="#DejaVuSans-20" x="690.609375"/>
      <use xlink:href="#DejaVuSans-76" x="722.396484"/>
      <use xlink:href="#DejaVuSans-61" x="781.576172"/>
      <use xlink:href="#DejaVuSans-72" x="842.855469"/>
      <use xlink:href="#DejaVuSans-69" x="883.96875"/>
      <use xlink:href="#DejaVuSans-61" x="911.751953"/>
      <use xlink:href="#DejaVuSans-62" x="973.03125"/>
      <use xlink:href="#DejaVuSans-69" x="1036.507812"/>
      <use xlink:href="#DejaVuSans-6c" x="1064.291016"/>
      <use xlink:href="#DejaVuSans-69" x="1092.074219"/>
      <use xlink:href="#DejaVuSans-74" x="1119.857422"/>
      <use xlink:href="#DejaVuSans-79" x="1159.066406"/>
     </g>
    </g>
   </g>
   <g id="PolyCollection_7">
    <defs>
     <path id="meb42dcb749" d="M 146.361591 -286.929274 
L 146.361591 -268.236205 
L 186.995318 -261.406442 
L 227.629045 -241.635192 
L 268.262773 -222.00227 
L 308.8965 -217.197502 
L 349.530227 -212.590902 
L 390.163955 -207.184082 
L 430.797682 -203.796457 
L 471.431409 -200.198404 
L 512.065136 -197.622384 
L 512.065136 -236.784264 
L 512.065136 -236.784264 
L 471.431409 -244.230053 
L 430.797682 -247.392902 
L 390.163955 -254.706699 
L 349.530227 -255.253066 
L 308.8965 -260.593549 
L 268.262773 -258.855145 
L 227.629045 -264.342183 
L 186.995318 -276.033078 
L 146.361591 -286.929274 
z
" style="stroke: #008000; stroke-opacity: 0.2; stroke-width: 0.8"/>
    </defs>
    <g clip-path="url(#p203a29bed9)">
     <use xlink:href="#meb42dcb749" x="0" y="720" style="fill: #008000; fill-opacity: 0.2; stroke: #008000; stroke-opacity: 0.2; stroke-width: 0.8"/>
    </g>
   </g>
   <g id="PolyCollection_8">
    <defs>
     <path id="m45cc51b97c" d="M 146.361591 -243.502222 
L 146.361591 -173.179594 
L 186.995318 -140.554942 
L 227.629045 -133.594622 
L 268.262773 -107.417735 
L 308.8965 -99.989879 
L 349.530227 -95.608114 
L 390.163955 -84.122288 
L 430.797682 -76.763585 
L 471.431409 -75.089785 
L 512.065136 -76.206241 
L 512.065136 -102.673738 
L 512.065136 -102.673738 
L 471.431409 -96.895734 
L 430.797682 -101.115321 
L 390.163955 -119.522034 
L 349.530227 -118.674052 
L 308.8965 -146.475488 
L 268.262773 -128.160349 
L 227.629045 -168.90682 
L 186.995318 -206.770601 
L 146.361591 -243.502222 
z
" style="stroke: #6786c6; stroke-opacity: 0.2; stroke-width: 0.8"/>
    </defs>
    <g clip-path="url(#p203a29bed9)">
     <use xlink:href="#m45cc51b97c" x="0" y="720" style="fill: #6786c6; fill-opacity: 0.2; stroke: #6786c6; stroke-opacity: 0.2; stroke-width: 0.8"/>
    </g>
   </g>
   <g id="PolyCollection_9">
    <defs>
     <path id="m67ef7a52ad" d="M 146.361591 -289.510072 
L 146.361591 -268.208524 
L 186.995318 -259.563828 
L 227.629045 -230.048968 
L 268.262773 -198.212497 
L 308.8965 -187.255435 
L 349.530227 -175.417352 
L 390.163955 -157.882342 
L 430.797682 -144.879572 
L 471.431409 -140.166791 
L 512.065136 -125.402363 
L 512.065136 -192.595676 
L 512.065136 -192.595676 
L 471.431409 -212.043259 
L 430.797682 -221.044636 
L 390.163955 -232.221718 
L 349.530227 -238.31005 
L 308.8965 -248.469143 
L 268.262773 -250.399875 
L 227.629045 -262.819877 
L 186.995318 -279.389128 
L 146.361591 -289.510072 
z
" style="stroke: #e19252; stroke-opacity: 0.2; stroke-width: 0.8"/>
    </defs>
    <g clip-path="url(#p203a29bed9)">
     <use xlink:href="#m67ef7a52ad" x="0" y="720" style="fill: #e19252; fill-opacity: 0.2; stroke: #e19252; stroke-opacity: 0.2; stroke-width: 0.8"/>
    </g>
   </g>
   <g id="line2d_51">
    <path d="M 105.727864 405.716818 
L 146.361591 442.40413 
L 186.995318 451.187728 
L 227.629045 467.078437 
L 268.262773 479.278993 
L 308.8965 481.068697 
L 349.530227 487.570612 
L 390.163955 489.624593 
L 430.797682 494.33712 
L 471.431409 496.7123 
L 512.065136 502.471516 
" clip-path="url(#p203a29bed9)" style="fill: none; stroke: #008000; stroke-width: 1.2; stroke-linecap: round"/>
   </g>
   <g id="line2d_52">
    <path d="M 105.727864 405.716818 
L 146.361591 512.623262 
L 186.995318 547.3077 
L 227.629045 571.519573 
L 268.262773 602.154807 
L 308.8965 599.373737 
L 349.530227 613.550211 
L 390.163955 619.592854 
L 430.797682 631.815552 
L 471.431409 634.261668 
L 512.065136 631.494902 
" clip-path="url(#p203a29bed9)" style="fill: none; stroke: #6786c6; stroke-width: 1.2; stroke-linecap: round"/>
   </g>
   <g id="line2d_53">
    <path d="M 105.727864 405.716818 
L 146.361591 440.994595 
L 186.995318 450.597995 
L 227.629045 474.224438 
L 268.262773 494.726352 
L 308.8965 500.925979 
L 349.530227 514.099352 
L 390.163955 522.614352 
L 430.797682 534.675056 
L 471.431409 542.767049 
L 512.065136 558.917906 
" clip-path="url(#p203a29bed9)" style="fill: none; stroke: #e19252; stroke-width: 1.2; stroke-linecap: round"/>
   </g>
   <g id="line2d_54"/>
   <g id="line2d_55"/>
   <g id="line2d_56"/>
   <g id="patch_13">
    <path d="M 85.411 649.964 
L 85.411 394.086 
" style="fill: none; stroke: #cccccc; stroke-linejoin: miter; stroke-linecap: square"/>
   </g>
   <g id="patch_14">
    <path d="M 532.382 649.964 
L 532.382 394.086 
" style="fill: none; stroke: #cccccc; stroke-linejoin: miter; stroke-linecap: square"/>
   </g>
   <g id="patch_15">
    <path d="M 85.411 649.964 
L 532.382 649.964 
" style="fill: none; stroke: #cccccc; stroke-linejoin: miter; stroke-linecap: square"/>
   </g>
   <g id="patch_16">
    <path d="M 85.411 394.086 
L 532.382 394.086 
" style="fill: none; stroke: #cccccc; stroke-linejoin: miter; stroke-linecap: square"/>
   </g>
   <g id="text_35">
    <!-- c -->
    <g style="fill: #262626" transform="translate(85.411 390.093)scale(0.192 -0.192)">
     <defs>
      <path id="DejaVuSans-Bold-63" d="M 3366 3391 
L 3366 2478 
Q 3138 2634 2908 2709 
Q 2678 2784 2431 2784 
Q 1963 2784 1702 2511 
Q 1441 2238 1441 1747 
Q 1441 1256 1702 982 
Q 1963 709 2431 709 
Q 2694 709 2930 787 
Q 3166 866 3366 1019 
L 3366 103 
Q 3103 6 2833 -42 
Q 2563 -91 2291 -91 
Q 1344 -91 809 395 
Q 275 881 275 1747 
Q 275 2613 809 3098 
Q 1344 3584 2291 3584 
Q 2566 3584 2833 3536 
Q 3100 3488 3366 3391 
z
" transform="scale(0.015625)"/>
     </defs>
     <use xlink:href="#DejaVuSans-Bold-63"/>
    </g>
   </g>
   <g id="text_36">
    <!-- Dim. 2 -->
    <g style="fill: #262626" transform="translate(277.2765 388.086)scale(0.192 -0.192)">
     <use xlink:href="#DejaVuSans-44"/>
     <use xlink:href="#DejaVuSans-69" x="77.001953"/>
     <use xlink:href="#DejaVuSans-6d" x="104.785156"/>
     <use xlink:href="#DejaVuSans-2e" x="202.197266"/>
     <use xlink:href="#DejaVuSans-20" x="233.984375"/>
     <use xlink:href="#DejaVuSans-32" x="265.771484"/>
    </g>
   </g>
  </g>
  <g id="axes_4">
   <g id="patch_17">
    <path d="M 612.293 649.964 
L 1059.264 649.964 
L 1059.264 394.086 
L 612.293 394.086 
z
" style="fill: #ffffff"/>
   </g>
   <g id="matplotlib.axis_7">
    <g id="xtick_19">
     <g id="line2d_57">
      <path d="M 632.609864 649.964 
L 632.609864 394.086 
" clip-path="url(#p834cb1ef2c)" style="fill: none; stroke: #cccccc; stroke-width: 0.8; stroke-linecap: round"/>
     </g>
     <g id="text_37">
      <!-- 0 -->
      <g style="fill: #262626" transform="translate(627.010864 671.63725)scale(0.176 -0.176)">
       <use xlink:href="#DejaVuSans-30"/>
      </g>
     </g>
    </g>
    <g id="xtick_20">
     <g id="line2d_58">
      <path d="M 713.877318 649.964 
L 713.877318 394.086 
" clip-path="url(#p834cb1ef2c)" style="fill: none; stroke: #cccccc; stroke-width: 0.8; stroke-linecap: round"/>
     </g>
     <g id="text_38">
      <!-- 2 -->
      <g style="fill: #262626" transform="translate(708.278318 671.63725)scale(0.176 -0.176)">
       <use xlink:href="#DejaVuSans-32"/>
      </g>
     </g>
    </g>
    <g id="xtick_21">
     <g id="line2d_59">
      <path d="M 795.144773 649.964 
L 795.144773 394.086 
" clip-path="url(#p834cb1ef2c)" style="fill: none; stroke: #cccccc; stroke-width: 0.8; stroke-linecap: round"/>
     </g>
     <g id="text_39">
      <!-- 4 -->
      <g style="fill: #262626" transform="translate(789.545773 671.63725)scale(0.176 -0.176)">
       <use xlink:href="#DejaVuSans-34"/>
      </g>
     </g>
    </g>
    <g id="xtick_22">
     <g id="line2d_60">
      <path d="M 876.412227 649.964 
L 876.412227 394.086 
" clip-path="url(#p834cb1ef2c)" style="fill: none; stroke: #cccccc; stroke-width: 0.8; stroke-linecap: round"/>
     </g>
     <g id="text_40">
      <!-- 6 -->
      <g style="fill: #262626" transform="translate(870.813227 671.63725)scale(0.176 -0.176)">
       <use xlink:href="#DejaVuSans-36"/>
      </g>
     </g>
    </g>
    <g id="xtick_23">
     <g id="line2d_61">
      <path d="M 957.679682 649.964 
L 957.679682 394.086 
" clip-path="url(#p834cb1ef2c)" style="fill: none; stroke: #cccccc; stroke-width: 0.8; stroke-linecap: round"/>
     </g>
     <g id="text_41">
      <!-- 8 -->
      <g style="fill: #262626" transform="translate(952.080682 671.63725)scale(0.176 -0.176)">
       <use xlink:href="#DejaVuSans-38"/>
      </g>
     </g>
    </g>
    <g id="xtick_24">
     <g id="line2d_62">
      <path d="M 1038.947136 649.964 
L 1038.947136 394.086 
" clip-path="url(#p834cb1ef2c)" style="fill: none; stroke: #cccccc; stroke-width: 0.8; stroke-linecap: round"/>
     </g>
     <g id="text_42">
      <!-- 10 -->
      <g style="fill: #262626" transform="translate(1027.749136 671.63725)scale(0.176 -0.176)">
       <use xlink:href="#DejaVuSans-31"/>
       <use xlink:href="#DejaVuSans-30" x="63.623047"/>
      </g>
     </g>
    </g>
    <g id="text_43">
     <!-- iteration -->
     <g style="fill: #262626" transform="translate(795.223 693.8865)scale(0.192 -0.192)">
      <use xlink:href="#DejaVuSans-69"/>
      <use xlink:href="#DejaVuSans-74" x="27.783203"/>
      <use xlink:href="#DejaVuSans-65" x="66.992188"/>
      <use xlink:href="#DejaVuSans-72" x="128.515625"/>
      <use xlink:href="#DejaVuSans-61" x="169.628906"/>
      <use xlink:href="#DejaVuSans-74" x="230.908203"/>
      <use xlink:href="#DejaVuSans-69" x="270.117188"/>
      <use xlink:href="#DejaVuSans-6f" x="297.900391"/>
      <use xlink:href="#DejaVuSans-6e" x="359.082031"/>
     </g>
    </g>
   </g>
   <g id="matplotlib.axis_8">
    <g id="ytick_21">
     <g id="line2d_63">
      <path d="M 612.293 649.964 
L 1059.264 649.964 
" clip-path="url(#p834cb1ef2c)" style="fill: none; stroke: #cccccc; stroke-width: 0.8; stroke-linecap: round"/>
     </g>
     <g id="text_44">
      <!-- 0.0 -->
      <g style="fill: #262626" transform="translate(576.0035 656.650625)scale(0.176 -0.176)">
       <use xlink:href="#DejaVuSans-30"/>
       <use xlink:href="#DejaVuSans-2e" x="63.623047"/>
       <use xlink:href="#DejaVuSans-30" x="95.410156"/>
      </g>
     </g>
    </g>
    <g id="ytick_22">
     <g id="line2d_64">
      <path d="M 612.293 602.579185 
L 1059.264 602.579185 
" clip-path="url(#p834cb1ef2c)" style="fill: none; stroke: #cccccc; stroke-width: 0.8; stroke-linecap: round"/>
     </g>
     <g id="text_45">
      <!-- 0.5 -->
      <g style="fill: #262626" transform="translate(576.0035 609.26581)scale(0.176 -0.176)">
       <use xlink:href="#DejaVuSans-30"/>
       <use xlink:href="#DejaVuSans-2e" x="63.623047"/>
       <use xlink:href="#DejaVuSans-35" x="95.410156"/>
      </g>
     </g>
    </g>
    <g id="ytick_23">
     <g id="line2d_65">
      <path d="M 612.293 555.19437 
L 1059.264 555.19437 
" clip-path="url(#p834cb1ef2c)" style="fill: none; stroke: #cccccc; stroke-width: 0.8; stroke-linecap: round"/>
     </g>
     <g id="text_46">
      <!-- 1.0 -->
      <g style="fill: #262626" transform="translate(576.0035 561.880995)scale(0.176 -0.176)">
       <use xlink:href="#DejaVuSans-31"/>
       <use xlink:href="#DejaVuSans-2e" x="63.623047"/>
       <use xlink:href="#DejaVuSans-30" x="95.410156"/>
      </g>
     </g>
    </g>
    <g id="ytick_24">
     <g id="line2d_66">
      <path d="M 612.293 507.809556 
L 1059.264 507.809556 
" clip-path="url(#p834cb1ef2c)" style="fill: none; stroke: #cccccc; stroke-width: 0.8; stroke-linecap: round"/>
     </g>
     <g id="text_47">
      <!-- 1.5 -->
      <g style="fill: #262626" transform="translate(576.0035 514.496181)scale(0.176 -0.176)">
       <use xlink:href="#DejaVuSans-31"/>
       <use xlink:href="#DejaVuSans-2e" x="63.623047"/>
       <use xlink:href="#DejaVuSans-35" x="95.410156"/>
      </g>
     </g>
    </g>
    <g id="ytick_25">
     <g id="line2d_67">
      <path d="M 612.293 460.424741 
L 1059.264 460.424741 
" clip-path="url(#p834cb1ef2c)" style="fill: none; stroke: #cccccc; stroke-width: 0.8; stroke-linecap: round"/>
     </g>
     <g id="text_48">
      <!-- 2.0 -->
      <g style="fill: #262626" transform="translate(576.0035 467.111366)scale(0.176 -0.176)">
       <use xlink:href="#DejaVuSans-32"/>
       <use xlink:href="#DejaVuSans-2e" x="63.623047"/>
       <use xlink:href="#DejaVuSans-30" x="95.410156"/>
      </g>
     </g>
    </g>
    <g id="ytick_26">
     <g id="line2d_68">
      <path d="M 612.293 413.039926 
L 1059.264 413.039926 
" clip-path="url(#p834cb1ef2c)" style="fill: none; stroke: #cccccc; stroke-width: 0.8; stroke-linecap: round"/>
     </g>
     <g id="text_49">
      <!-- 2.5 -->
      <g style="fill: #262626" transform="translate(576.0035 419.726551)scale(0.176 -0.176)">
       <use xlink:href="#DejaVuSans-32"/>
       <use xlink:href="#DejaVuSans-2e" x="63.623047"/>
       <use xlink:href="#DejaVuSans-35" x="95.410156"/>
      </g>
     </g>
    </g>
    <g id="text_50">
     <!-- Standard deviation -->
     <g style="fill: #262626" transform="translate(568.0105 613.3735)rotate(-90)scale(0.192 -0.192)">
      <use xlink:href="#DejaVuSans-53"/>
      <use xlink:href="#DejaVuSans-74" x="63.476562"/>
      <use xlink:href="#DejaVuSans-61" x="102.685547"/>
      <use xlink:href="#DejaVuSans-6e" x="163.964844"/>
      <use xlink:href="#DejaVuSans-64" x="227.34375"/>
      <use xlink:href="#DejaVuSans-61" x="290.820312"/>
      <use xlink:href="#DejaVuSans-72" x="352.099609"/>
      <use xlink:href="#DejaVuSans-64" x="391.462891"/>
      <use xlink:href="#DejaVuSans-20" x="454.939453"/>
      <use xlink:href="#DejaVuSans-64" x="486.726562"/>
      <use xlink:href="#DejaVuSans-65" x="550.203125"/>
      <use xlink:href="#DejaVuSans-76" x="611.726562"/>
      <use xlink:href="#DejaVuSans-69" x="670.90625"/>
      <use xlink:href="#DejaVuSans-61" x="698.689453"/>
      <use xlink:href="#DejaVuSans-74" x="759.96875"/>
      <use xlink:href="#DejaVuSans-69" x="799.177734"/>
      <use xlink:href="#DejaVuSans-6f" x="826.960938"/>
      <use xlink:href="#DejaVuSans-6e" x="888.142578"/>
     </g>
    </g>
   </g>
   <g id="PolyCollection_10">
    <defs>
     <path id="m36c34a9e23" d="M 673.243591 -148.539942 
L 673.243591 -144.337052 
L 713.877318 -143.0173 
L 754.511045 -138.783805 
L 795.144773 -134.323912 
L 835.7785 -133.605831 
L 876.412227 -131.990747 
L 917.045955 -130.647315 
L 957.679682 -129.737592 
L 998.313409 -129.857666 
L 1038.947136 -128.997172 
L 1038.947136 -137.797147 
L 1038.947136 -137.797147 
L 998.313409 -139.059008 
L 957.679682 -140.026326 
L 917.045955 -140.821224 
L 876.412227 -141.474256 
L 835.7785 -142.712574 
L 795.144773 -142.346666 
L 754.511045 -143.828614 
L 713.877318 -146.10856 
L 673.243591 -148.539942 
z
" style="stroke: #008000; stroke-opacity: 0.2; stroke-width: 0.8"/>
    </defs>
    <g clip-path="url(#p834cb1ef2c)">
     <use xlink:href="#m36c34a9e23" x="0" y="720" style="fill: #008000; fill-opacity: 0.2; stroke: #008000; stroke-opacity: 0.2; stroke-width: 0.8"/>
    </g>
   </g>
   <g id="PolyCollection_11">
    <defs>
     <path id="m50c57f2c0e" d="M 673.243591 -93.960626 
L 673.243591 -88.5147 
L 713.877318 -86.113205 
L 754.511045 -85.607738 
L 795.144773 -83.490395 
L 835.7785 -82.980848 
L 876.412227 -82.708063 
L 917.045955 -81.872138 
L 957.679682 -81.291072 
L 998.313409 -81.168722 
L 1038.947136 -81.148206 
L 1038.947136 -83.239506 
L 1038.947136 -83.239506 
L 998.313409 -82.89634 
L 957.679682 -83.052443 
L 917.045955 -84.436259 
L 876.412227 -84.455683 
L 835.7785 -86.33375 
L 795.144773 -85.142555 
L 754.511045 -88.170762 
L 713.877318 -91.233395 
L 673.243591 -93.960626 
z
" style="stroke: #6786c6; stroke-opacity: 0.2; stroke-width: 0.8"/>
    </defs>
    <g clip-path="url(#p834cb1ef2c)">
     <use xlink:href="#m50c57f2c0e" x="0" y="720" style="fill: #6786c6; fill-opacity: 0.2; stroke: #6786c6; stroke-opacity: 0.2; stroke-width: 0.8"/>
    </g>
   </g>
   <g id="PolyCollection_12">
    <defs>
     <path id="m0af3f28f9a" d="M 673.243591 -197.411733 
L 673.243591 -189.629346 
L 713.877318 -186.673096 
L 754.511045 -176.6564 
L 795.144773 -165.782054 
L 835.7785 -161.856583 
L 876.412227 -157.284739 
L 917.045955 -150.178166 
L 957.679682 -146.561678 
L 998.313409 -144.727441 
L 1038.947136 -139.670671 
L 1038.947136 -164.366866 
L 1038.947136 -164.366866 
L 998.313409 -170.067929 
L 957.679682 -173.092229 
L 917.045955 -178.728786 
L 876.412227 -179.130806 
L 835.7785 -183.868046 
L 795.144773 -184.454192 
L 754.511045 -187.907244 
L 713.877318 -193.418221 
L 673.243591 -197.411733 
z
" style="stroke: #e19252; stroke-opacity: 0.2; stroke-width: 0.8"/>
    </defs>
    <g clip-path="url(#p834cb1ef2c)">
     <use xlink:href="#m0af3f28f9a" x="0" y="720" style="fill: #e19252; fill-opacity: 0.2; stroke: #e19252; stroke-opacity: 0.2; stroke-width: 0.8"/>
    </g>
   </g>
   <g id="line2d_69">
    <path d="M 632.609864 565.501087 
L 673.243591 573.493776 
L 713.877318 575.407369 
L 754.511045 578.869315 
L 795.144773 581.527326 
L 835.7785 581.91723 
L 876.412227 583.333736 
L 917.045955 583.781216 
L 957.679682 584.807886 
L 998.313409 585.325342 
L 1038.947136 586.580044 
" clip-path="url(#p834cb1ef2c)" style="fill: none; stroke: #008000; stroke-width: 1.2; stroke-linecap: round"/>
   </g>
   <g id="line2d_70">
    <path d="M 632.609864 620.862611 
L 673.243591 628.887307 
L 713.877318 631.490818 
L 754.511045 633.308229 
L 795.144773 635.607795 
L 835.7785 635.39904 
L 876.412227 636.463166 
L 917.045955 636.916743 
L 957.679682 637.834213 
L 998.313409 638.017825 
L 1038.947136 637.810144 
" clip-path="url(#p834cb1ef2c)" style="fill: none; stroke: #6786c6; stroke-width: 1.2; stroke-linecap: round"/>
   </g>
   <g id="line2d_71">
    <path d="M 632.609864 514.020432 
L 673.243591 526.390465 
L 713.877318 529.757864 
L 754.511045 538.042397 
L 795.144773 545.231324 
L 835.7785 547.405202 
L 876.412227 552.0244 
L 917.045955 555.010156 
L 957.679682 559.239201 
L 998.313409 562.076631 
L 1038.947136 567.739875 
" clip-path="url(#p834cb1ef2c)" style="fill: none; stroke: #e19252; stroke-width: 1.2; stroke-linecap: round"/>
   </g>
   <g id="line2d_72"/>
   <g id="line2d_73"/>
   <g id="line2d_74"/>
   <g id="patch_18">
    <path d="M 612.293 649.964 
L 612.293 394.086 
" style="fill: none; stroke: #cccccc; stroke-linejoin: miter; stroke-linecap: square"/>
   </g>
   <g id="patch_19">
    <path d="M 1059.264 649.964 
L 1059.264 394.086 
" style="fill: none; stroke: #cccccc; stroke-linejoin: miter; stroke-linecap: square"/>
   </g>
   <g id="patch_20">
    <path d="M 612.293 649.964 
L 1059.264 649.964 
" style="fill: none; stroke: #cccccc; stroke-linejoin: miter; stroke-linecap: square"/>
   </g>
   <g id="patch_21">
    <path d="M 612.293 394.086 
L 1059.264 394.086 
" style="fill: none; stroke: #cccccc; stroke-linejoin: miter; stroke-linecap: square"/>
   </g>
   <g id="text_51">
    <!-- d -->
    <g style="fill: #262626" transform="translate(612.293 390.093)scale(0.192 -0.192)">
     <defs>
      <path id="DejaVuSans-Bold-64" d="M 2919 2988 
L 2919 4863 
L 4044 4863 
L 4044 0 
L 2919 0 
L 2919 506 
Q 2688 197 2409 53 
Q 2131 -91 1766 -91 
Q 1119 -91 703 423 
Q 288 938 288 1747 
Q 288 2556 703 3070 
Q 1119 3584 1766 3584 
Q 2128 3584 2408 3439 
Q 2688 3294 2919 2988 
z
M 2181 722 
Q 2541 722 2730 984 
Q 2919 1247 2919 1747 
Q 2919 2247 2730 2509 
Q 2541 2772 2181 2772 
Q 1825 2772 1636 2509 
Q 1447 2247 1447 1747 
Q 1447 1247 1636 984 
Q 1825 722 2181 722 
z
" transform="scale(0.015625)"/>
     </defs>
     <use xlink:href="#DejaVuSans-Bold-64"/>
    </g>
   </g>
   <g id="text_52">
    <!-- Dim. 2 -->
    <g style="fill: #262626" transform="translate(804.1585 388.086)scale(0.192 -0.192)">
     <use xlink:href="#DejaVuSans-44"/>
     <use xlink:href="#DejaVuSans-69" x="77.001953"/>
     <use xlink:href="#DejaVuSans-6d" x="104.785156"/>
     <use xlink:href="#DejaVuSans-2e" x="202.197266"/>
     <use xlink:href="#DejaVuSans-20" x="233.984375"/>
     <use xlink:href="#DejaVuSans-32" x="265.771484"/>
    </g>
   </g>
  </g>
  <g id="text_53">
   <!-- Variability conservation across avatarization iterations -->
   <g style="fill: #262626" transform="translate(226.3986 31.9068)scale(0.2304 -0.2304)">
    <defs>
     <path id="DejaVuSans-56" d="M 1831 0 
L 50 4666 
L 709 4666 
L 2188 738 
L 3669 4666 
L 4325 4666 
L 2547 0 
L 1831 0 
z
" transform="scale(0.015625)"/>
     <path id="DejaVuSans-73" d="M 2834 3397 
L 2834 2853 
Q 2591 2978 2328 3040 
Q 2066 3103 1784 3103 
Q 1356 3103 1142 2972 
Q 928 2841 928 2578 
Q 928 2378 1081 2264 
Q 1234 2150 1697 2047 
L 1894 2003 
Q 2506 1872 2764 1633 
Q 3022 1394 3022 966 
Q 3022 478 2636 193 
Q 2250 -91 1575 -91 
Q 1294 -91 989 -36 
Q 684 19 347 128 
L 347 722 
Q 666 556 975 473 
Q 1284 391 1588 391 
Q 1994 391 2212 530 
Q 2431 669 2431 922 
Q 2431 1156 2273 1281 
Q 2116 1406 1581 1522 
L 1381 1569 
Q 847 1681 609 1914 
Q 372 2147 372 2553 
Q 372 3047 722 3315 
Q 1072 3584 1716 3584 
Q 2034 3584 2315 3537 
Q 2597 3491 2834 3397 
z
" transform="scale(0.015625)"/>
     <path id="DejaVuSans-7a" d="M 353 3500 
L 3084 3500 
L 3084 2975 
L 922 459 
L 3084 459 
L 3084 0 
L 275 0 
L 275 525 
L 2438 3041 
L 353 3041 
L 353 3500 
z
" transform="scale(0.015625)"/>
    </defs>
    <use xlink:href="#DejaVuSans-56"/>
    <use xlink:href="#DejaVuSans-61" x="60.658203"/>
    <use xlink:href="#DejaVuSans-72" x="121.9375"/>
    <use xlink:href="#DejaVuSans-69" x="163.050781"/>
    <use xlink:href="#DejaVuSans-61" x="190.833984"/>
    <use xlink:href="#DejaVuSans-62" x="252.113281"/>
    <use xlink:href="#DejaVuSans-69" x="315.589844"/>
    <use xlink:href="#DejaVuSans-6c" x="343.373047"/>
    <use xlink:href="#DejaVuSans-69" x="371.15625"/>
    <use xlink:href="#DejaVuSans-74" x="398.939453"/>
    <use xlink:href="#DejaVuSans-79" x="438.148438"/>
    <use xlink:href="#DejaVuSans-20" x="497.328125"/>
    <use xlink:href="#DejaVuSans-63" x="529.115234"/>
    <use xlink:href="#DejaVuSans-6f" x="584.095703"/>
    <use xlink:href="#DejaVuSans-6e" x="645.277344"/>
    <use xlink:href="#DejaVuSans-73" x="708.65625"/>
    <use xlink:href="#DejaVuSans-65" x="760.755859"/>
    <use xlink:href="#DejaVuSans-72" x="822.279297"/>
    <use xlink:href="#DejaVuSans-76" x="863.392578"/>
    <use xlink:href="#DejaVuSans-61" x="922.572266"/>
    <use xlink:href="#DejaVuSans-74" x="983.851562"/>
    <use xlink:href="#DejaVuSans-69" x="1023.060547"/>
    <use xlink:href="#DejaVuSans-6f" x="1050.84375"/>
    <use xlink:href="#DejaVuSans-6e" x="1112.025391"/>
    <use xlink:href="#DejaVuSans-20" x="1175.404297"/>
    <use xlink:href="#DejaVuSans-61" x="1207.191406"/>
    <use xlink:href="#DejaVuSans-63" x="1268.470703"/>
    <use xlink:href="#DejaVuSans-72" x="1323.451172"/>
    <use xlink:href="#DejaVuSans-6f" x="1362.314453"/>
    <use xlink:href="#DejaVuSans-73" x="1423.496094"/>
    <use xlink:href="#DejaVuSans-73" x="1475.595703"/>
    <use xlink:href="#DejaVuSans-20" x="1527.695312"/>
    <use xlink:href="#DejaVuSans-61" x="1559.482422"/>
    <use xlink:href="#DejaVuSans-76" x="1620.761719"/>
    <use xlink:href="#DejaVuSans-61" x="1679.941406"/>
    <use xlink:href="#DejaVuSans-74" x="1741.220703"/>
    <use xlink:href="#DejaVuSans-61" x="1780.429688"/>
    <use xlink:href="#DejaVuSans-72" x="1841.708984"/>
    <use xlink:href="#DejaVuSans-69" x="1882.822266"/>
    <use xlink:href="#DejaVuSans-7a" x="1910.605469"/>
    <use xlink:href="#DejaVuSans-61" x="1963.095703"/>
    <use xlink:href="#DejaVuSans-74" x="2024.375"/>
    <use xlink:href="#DejaVuSans-69" x="2063.583984"/>
    <use xlink:href="#DejaVuSans-6f" x="2091.367188"/>
    <use xlink:href="#DejaVuSans-6e" x="2152.548828"/>
    <use xlink:href="#DejaVuSans-20" x="2215.927734"/>
    <use xlink:href="#DejaVuSans-69" x="2247.714844"/>
    <use xlink:href="#DejaVuSans-74" x="2275.498047"/>
    <use xlink:href="#DejaVuSans-65" x="2314.707031"/>
    <use xlink:href="#DejaVuSans-72" x="2376.230469"/>
    <use xlink:href="#DejaVuSans-61" x="2417.34375"/>
    <use xlink:href="#DejaVuSans-74" x="2478.623047"/>
    <use xlink:href="#DejaVuSans-69" x="2517.832031"/>
    <use xlink:href="#DejaVuSans-6f" x="2545.615234"/>
    <use xlink:href="#DejaVuSans-6e" x="2606.796875"/>
    <use xlink:href="#DejaVuSans-73" x="2670.175781"/>
   </g>
  </g>
  <g id="legend_1">
   <g id="patch_22">
    <path d="M 947.8 77.76 
L 1061.738125 77.76 
Q 1064.538125 77.76 1064.538125 74.96 
L 1064.538125 14.711875 
Q 1064.538125 11.911875 1061.738125 11.911875 
L 947.8 11.911875 
Q 945 11.911875 945 14.711875 
L 945 74.96 
Q 945 77.76 947.8 77.76 
z
" style="fill: #ffffff; opacity: 0.8; stroke: #cccccc; stroke-width: 0.8; stroke-linejoin: miter"/>
   </g>
   <g id="line2d_75">
    <path d="M 950.6 23.249688 
L 964.6 23.249688 
L 978.6 23.249688 
" style="fill: none; stroke: #008000; stroke-width: 1.2; stroke-linecap: round"/>
   </g>
   <g id="text_54">
    <!-- all -->
    <g style="fill: #262626" transform="translate(989.8 28.149688)scale(0.14 -0.14)">
     <use xlink:href="#DejaVuSans-61"/>
     <use xlink:href="#DejaVuSans-6c" x="61.279297"/>
     <use xlink:href="#DejaVuSans-6c" x="89.0625"/>
    </g>
   </g>
   <g id="line2d_76">
    <path d="M 950.6 43.799063 
L 964.6 43.799063 
L 978.6 43.799063 
" style="fill: none; stroke: #6786c6; stroke-width: 1.2; stroke-linecap: round"/>
   </g>
   <g id="text_55">
    <!-- Benign -->
    <g style="fill: #262626" transform="translate(989.8 48.699063)scale(0.14 -0.14)">
     <defs>
      <path id="DejaVuSans-42" d="M 1259 2228 
L 1259 519 
L 2272 519 
Q 2781 519 3026 730 
Q 3272 941 3272 1375 
Q 3272 1813 3026 2020 
Q 2781 2228 2272 2228 
L 1259 2228 
z
M 1259 4147 
L 1259 2741 
L 2194 2741 
Q 2656 2741 2882 2914 
Q 3109 3088 3109 3444 
Q 3109 3797 2882 3972 
Q 2656 4147 2194 4147 
L 1259 4147 
z
M 628 4666 
L 2241 4666 
Q 2963 4666 3353 4366 
Q 3744 4066 3744 3513 
Q 3744 3084 3544 2831 
Q 3344 2578 2956 2516 
Q 3422 2416 3680 2098 
Q 3938 1781 3938 1306 
Q 3938 681 3513 340 
Q 3088 0 2303 0 
L 628 0 
L 628 4666 
z
" transform="scale(0.015625)"/>
     </defs>
     <use xlink:href="#DejaVuSans-42"/>
     <use xlink:href="#DejaVuSans-65" x="68.603516"/>
     <use xlink:href="#DejaVuSans-6e" x="130.126953"/>
     <use xlink:href="#DejaVuSans-69" x="193.505859"/>
     <use xlink:href="#DejaVuSans-67" x="221.289062"/>
     <use xlink:href="#DejaVuSans-6e" x="284.765625"/>
    </g>
   </g>
   <g id="line2d_77">
    <path d="M 950.6 64.348438 
L 964.6 64.348438 
L 978.6 64.348438 
" style="fill: none; stroke: #e19252; stroke-width: 1.2; stroke-linecap: round"/>
   </g>
   <g id="text_56">
    <!-- Malignant -->
    <g style="fill: #262626" transform="translate(989.8 69.248438)scale(0.14 -0.14)">
     <defs>
      <path id="DejaVuSans-4d" d="M 628 4666 
L 1569 4666 
L 2759 1491 
L 3956 4666 
L 4897 4666 
L 4897 0 
L 4281 0 
L 4281 4097 
L 3078 897 
L 2444 897 
L 1241 4097 
L 1241 0 
L 628 0 
L 628 4666 
z
" transform="scale(0.015625)"/>
     </defs>
     <use xlink:href="#DejaVuSans-4d"/>
     <use xlink:href="#DejaVuSans-61" x="86.279297"/>
     <use xlink:href="#DejaVuSans-6c" x="147.558594"/>
     <use xlink:href="#DejaVuSans-69" x="175.341797"/>
     <use xlink:href="#DejaVuSans-67" x="203.125"/>
     <use xlink:href="#DejaVuSans-6e" x="266.601562"/>
     <use xlink:href="#DejaVuSans-61" x="329.980469"/>
     <use xlink:href="#DejaVuSans-6e" x="391.259766"/>
     <use xlink:href="#DejaVuSans-74" x="454.638672"/>
    </g>
   </g>
  </g>
 </g>
 <defs>
  <clipPath id="p6493a5af07">
   <rect x="85.411" y="85.472" width="446.971" height="255.878"/>
  </clipPath>
  <clipPath id="p69b2bb2ffc">
   <rect x="612.293" y="85.472" width="446.971" height="255.878"/>
  </clipPath>
  <clipPath id="p203a29bed9">
   <rect x="85.411" y="394.086" width="446.971" height="255.878"/>
  </clipPath>
  <clipPath id="p834cb1ef2c">
   <rect x="612.293" y="394.086" width="446.971" height="255.878"/>
  </clipPath>
 </defs>
</svg>
