<?xml version="1.0" encoding="utf-8" standalone="no"?>
<!DOCTYPE svg PUBLIC "-//W3C//DTD SVG 1.1//EN"
  "http://www.w3.org/Graphics/SVG/1.1/DTD/svg11.dtd">
<svg xmlns:xlink="http://www.w3.org/1999/xlink" width="1080pt" height="720pt" viewBox="0 0 1080 720" xmlns="http://www.w3.org/2000/svg" version="1.1">
 <metadata>
  <rdf:RDF xmlns:dc="http://purl.org/dc/elements/1.1/" xmlns:cc="http://creativecommons.org/ns#" xmlns:rdf="http://www.w3.org/1999/02/22-rdf-syntax-ns#">
   <cc:Work>
    <dc:type rdf:resource="http://purl.org/dc/dcmitype/StillImage"/>
    <dc:date>2022-05-11T10:11:46.676840</dc:date>
    <dc:format>image/svg+xml</dc:format>
    <dc:creator>
     <cc:Agent>
      <dc:title>Matplotlib v3.5.2, https://matplotlib.org/</dc:title>
     </cc:Agent>
    </dc:creator>
   </cc:Work>
  </rdf:RDF>
 </metadata>
 <defs>
  <style type="text/css">*{stroke-linejoin: round; stroke-linecap: butt}</style>
 </defs>
 <g id="figure_1">
  <g id="patch_1">
   <path d="M 0 720 
L 1080 720 
L 1080 0 
L 0 0 
z
" style="fill: #ffffff"/>
  </g>
  <g id="axes_1">
   <g id="patch_2">
    <path d="M 85.411 346.85 
L 526.757 346.85 
L 526.757 85.472 
L 85.411 85.472 
z
" style="fill: #ffffff"/>
   </g>
   <g id="matplotlib.axis_1">
    <g id="xtick_1">
     <g id="line2d_1">
      <path d="M 105.472182 346.85 
L 105.472182 85.472 
" clip-path="url(#p31c4a5ffa8)" style="fill: none; stroke: #cccccc; stroke-width: 0.8; stroke-linecap: round"/>
     </g>
    </g>
    <g id="xtick_2">
     <g id="line2d_2">
      <path d="M 185.716909 346.85 
L 185.716909 85.472 
" clip-path="url(#p31c4a5ffa8)" style="fill: none; stroke: #cccccc; stroke-width: 0.8; stroke-linecap: round"/>
     </g>
    </g>
    <g id="xtick_3">
     <g id="line2d_3">
      <path d="M 265.961636 346.85 
L 265.961636 85.472 
" clip-path="url(#p31c4a5ffa8)" style="fill: none; stroke: #cccccc; stroke-width: 0.8; stroke-linecap: round"/>
     </g>
    </g>
    <g id="xtick_4">
     <g id="line2d_4">
      <path d="M 346.206364 346.85 
L 346.206364 85.472 
" clip-path="url(#p31c4a5ffa8)" style="fill: none; stroke: #cccccc; stroke-width: 0.8; stroke-linecap: round"/>
     </g>
    </g>
    <g id="xtick_5">
     <g id="line2d_5">
      <path d="M 426.451091 346.85 
L 426.451091 85.472 
" clip-path="url(#p31c4a5ffa8)" style="fill: none; stroke: #cccccc; stroke-width: 0.8; stroke-linecap: round"/>
     </g>
    </g>
    <g id="xtick_6">
     <g id="line2d_6">
      <path d="M 506.695818 346.85 
L 506.695818 85.472 
" clip-path="url(#p31c4a5ffa8)" style="fill: none; stroke: #cccccc; stroke-width: 0.8; stroke-linecap: round"/>
     </g>
    </g>
   </g>
   <g id="matplotlib.axis_2">
    <g id="ytick_1">
     <g id="line2d_7">
      <path d="M 85.411 334.969182 
L 526.757 334.969182 
" clip-path="url(#p31c4a5ffa8)" style="fill: none; stroke: #cccccc; stroke-width: 0.8; stroke-linecap: round"/>
     </g>
     <g id="text_1">
      <!-- 40 -->
      <g style="fill: #262626" transform="translate(54.715 341.655807)scale(0.176 -0.176)">
       <defs>
        <path id="DejaVuSans-34" d="M 2419 4116 
L 825 1625 
L 2419 1625 
L 2419 4116 
z
M 2253 4666 
L 3047 4666 
L 3047 1625 
L 3713 1625 
L 3713 1100 
L 3047 1100 
L 3047 0 
L 2419 0 
L 2419 1100 
L 313 1100 
L 313 1709 
L 2253 4666 
z
" transform="scale(0.015625)"/>
        <path id="DejaVuSans-30" d="M 2034 4250 
Q 1547 4250 1301 3770 
Q 1056 3291 1056 2328 
Q 1056 1369 1301 889 
Q 1547 409 2034 409 
Q 2525 409 2770 889 
Q 3016 1369 3016 2328 
Q 3016 3291 2770 3770 
Q 2525 4250 2034 4250 
z
M 2034 4750 
Q 2819 4750 3233 4129 
Q 3647 3509 3647 2328 
Q 3647 1150 3233 529 
Q 2819 -91 2034 -91 
Q 1250 -91 836 529 
Q 422 1150 422 2328 
Q 422 3509 836 4129 
Q 1250 4750 2034 4750 
z
" transform="scale(0.015625)"/>
       </defs>
       <use xlink:href="#DejaVuSans-34"/>
       <use xlink:href="#DejaVuSans-30" x="63.623047"/>
      </g>
     </g>
    </g>
    <g id="ytick_2">
     <g id="line2d_8">
      <path d="M 85.411 295.366455 
L 526.757 295.366455 
" clip-path="url(#p31c4a5ffa8)" style="fill: none; stroke: #cccccc; stroke-width: 0.8; stroke-linecap: round"/>
     </g>
     <g id="text_2">
      <!-- 50 -->
      <g style="fill: #262626" transform="translate(54.715 302.05308)scale(0.176 -0.176)">
       <defs>
        <path id="DejaVuSans-35" d="M 691 4666 
L 3169 4666 
L 3169 4134 
L 1269 4134 
L 1269 2991 
Q 1406 3038 1543 3061 
Q 1681 3084 1819 3084 
Q 2600 3084 3056 2656 
Q 3513 2228 3513 1497 
Q 3513 744 3044 326 
Q 2575 -91 1722 -91 
Q 1428 -91 1123 -41 
Q 819 9 494 109 
L 494 744 
Q 775 591 1075 516 
Q 1375 441 1709 441 
Q 2250 441 2565 725 
Q 2881 1009 2881 1497 
Q 2881 1984 2565 2268 
Q 2250 2553 1709 2553 
Q 1456 2553 1204 2497 
Q 953 2441 691 2322 
L 691 4666 
z
" transform="scale(0.015625)"/>
       </defs>
       <use xlink:href="#DejaVuSans-35"/>
       <use xlink:href="#DejaVuSans-30" x="63.623047"/>
      </g>
     </g>
    </g>
    <g id="ytick_3">
     <g id="line2d_9">
      <path d="M 85.411 255.763727 
L 526.757 255.763727 
" clip-path="url(#p31c4a5ffa8)" style="fill: none; stroke: #cccccc; stroke-width: 0.8; stroke-linecap: round"/>
     </g>
     <g id="text_3">
      <!-- 60 -->
      <g style="fill: #262626" transform="translate(54.715 262.450352)scale(0.176 -0.176)">
       <defs>
        <path id="DejaVuSans-36" d="M 2113 2584 
Q 1688 2584 1439 2293 
Q 1191 2003 1191 1497 
Q 1191 994 1439 701 
Q 1688 409 2113 409 
Q 2538 409 2786 701 
Q 3034 994 3034 1497 
Q 3034 2003 2786 2293 
Q 2538 2584 2113 2584 
z
M 3366 4563 
L 3366 3988 
Q 3128 4100 2886 4159 
Q 2644 4219 2406 4219 
Q 1781 4219 1451 3797 
Q 1122 3375 1075 2522 
Q 1259 2794 1537 2939 
Q 1816 3084 2150 3084 
Q 2853 3084 3261 2657 
Q 3669 2231 3669 1497 
Q 3669 778 3244 343 
Q 2819 -91 2113 -91 
Q 1303 -91 875 529 
Q 447 1150 447 2328 
Q 447 3434 972 4092 
Q 1497 4750 2381 4750 
Q 2619 4750 2861 4703 
Q 3103 4656 3366 4563 
z
" transform="scale(0.015625)"/>
       </defs>
       <use xlink:href="#DejaVuSans-36"/>
       <use xlink:href="#DejaVuSans-30" x="63.623047"/>
      </g>
     </g>
    </g>
    <g id="ytick_4">
     <g id="line2d_10">
      <path d="M 85.411 216.161 
L 526.757 216.161 
" clip-path="url(#p31c4a5ffa8)" style="fill: none; stroke: #cccccc; stroke-width: 0.8; stroke-linecap: round"/>
     </g>
     <g id="text_4">
      <!-- 70 -->
      <g style="fill: #262626" transform="translate(54.715 222.847625)scale(0.176 -0.176)">
       <defs>
        <path id="DejaVuSans-37" d="M 525 4666 
L 3525 4666 
L 3525 4397 
L 1831 0 
L 1172 0 
L 2766 4134 
L 525 4134 
L 525 4666 
z
" transform="scale(0.015625)"/>
       </defs>
       <use xlink:href="#DejaVuSans-37"/>
       <use xlink:href="#DejaVuSans-30" x="63.623047"/>
      </g>
     </g>
    </g>
    <g id="ytick_5">
     <g id="line2d_11">
      <path d="M 85.411 176.558273 
L 526.757 176.558273 
" clip-path="url(#p31c4a5ffa8)" style="fill: none; stroke: #cccccc; stroke-width: 0.8; stroke-linecap: round"/>
     </g>
     <g id="text_5">
      <!-- 80 -->
      <g style="fill: #262626" transform="translate(54.715 183.244898)scale(0.176 -0.176)">
       <defs>
        <path id="DejaVuSans-38" d="M 2034 2216 
Q 1584 2216 1326 1975 
Q 1069 1734 1069 1313 
Q 1069 891 1326 650 
Q 1584 409 2034 409 
Q 2484 409 2743 651 
Q 3003 894 3003 1313 
Q 3003 1734 2745 1975 
Q 2488 2216 2034 2216 
z
M 1403 2484 
Q 997 2584 770 2862 
Q 544 3141 544 3541 
Q 544 4100 942 4425 
Q 1341 4750 2034 4750 
Q 2731 4750 3128 4425 
Q 3525 4100 3525 3541 
Q 3525 3141 3298 2862 
Q 3072 2584 2669 2484 
Q 3125 2378 3379 2068 
Q 3634 1759 3634 1313 
Q 3634 634 3220 271 
Q 2806 -91 2034 -91 
Q 1263 -91 848 271 
Q 434 634 434 1313 
Q 434 1759 690 2068 
Q 947 2378 1403 2484 
z
M 1172 3481 
Q 1172 3119 1398 2916 
Q 1625 2713 2034 2713 
Q 2441 2713 2670 2916 
Q 2900 3119 2900 3481 
Q 2900 3844 2670 4047 
Q 2441 4250 2034 4250 
Q 1625 4250 1398 4047 
Q 1172 3844 1172 3481 
z
" transform="scale(0.015625)"/>
       </defs>
       <use xlink:href="#DejaVuSans-38"/>
       <use xlink:href="#DejaVuSans-30" x="63.623047"/>
      </g>
     </g>
    </g>
    <g id="ytick_6">
     <g id="line2d_12">
      <path d="M 85.411 136.955545 
L 526.757 136.955545 
" clip-path="url(#p31c4a5ffa8)" style="fill: none; stroke: #cccccc; stroke-width: 0.8; stroke-linecap: round"/>
     </g>
     <g id="text_6">
      <!-- 90 -->
      <g style="fill: #262626" transform="translate(54.715 143.64217)scale(0.176 -0.176)">
       <defs>
        <path id="DejaVuSans-39" d="M 703 97 
L 703 672 
Q 941 559 1184 500 
Q 1428 441 1663 441 
Q 2288 441 2617 861 
Q 2947 1281 2994 2138 
Q 2813 1869 2534 1725 
Q 2256 1581 1919 1581 
Q 1219 1581 811 2004 
Q 403 2428 403 3163 
Q 403 3881 828 4315 
Q 1253 4750 1959 4750 
Q 2769 4750 3195 4129 
Q 3622 3509 3622 2328 
Q 3622 1225 3098 567 
Q 2575 -91 1691 -91 
Q 1453 -91 1209 -44 
Q 966 3 703 97 
z
M 1959 2075 
Q 2384 2075 2632 2365 
Q 2881 2656 2881 3163 
Q 2881 3666 2632 3958 
Q 2384 4250 1959 4250 
Q 1534 4250 1286 3958 
Q 1038 3666 1038 3163 
Q 1038 2656 1286 2365 
Q 1534 2075 1959 2075 
z
" transform="scale(0.015625)"/>
       </defs>
       <use xlink:href="#DejaVuSans-39"/>
       <use xlink:href="#DejaVuSans-30" x="63.623047"/>
      </g>
     </g>
    </g>
    <g id="ytick_7">
     <g id="line2d_13">
      <path d="M 85.411 97.352818 
L 526.757 97.352818 
" clip-path="url(#p31c4a5ffa8)" style="fill: none; stroke: #cccccc; stroke-width: 0.8; stroke-linecap: round"/>
     </g>
     <g id="text_7">
      <!-- 100 -->
      <g style="fill: #262626" transform="translate(43.517 104.039443)scale(0.176 -0.176)">
       <defs>
        <path id="DejaVuSans-31" d="M 794 531 
L 1825 531 
L 1825 4091 
L 703 3866 
L 703 4441 
L 1819 4666 
L 2450 4666 
L 2450 531 
L 3481 531 
L 3481 0 
L 794 0 
L 794 531 
z
" transform="scale(0.015625)"/>
       </defs>
       <use xlink:href="#DejaVuSans-31"/>
       <use xlink:href="#DejaVuSans-30" x="63.623047"/>
       <use xlink:href="#DejaVuSans-30" x="127.246094"/>
      </g>
     </g>
    </g>
    <g id="text_8">
     <!-- Percentage of variability -->
     <g style="fill: #262626" transform="translate(35.524 333.1145)rotate(-90)scale(0.192 -0.192)">
      <defs>
       <path id="DejaVuSans-50" d="M 1259 4147 
L 1259 2394 
L 2053 2394 
Q 2494 2394 2734 2622 
Q 2975 2850 2975 3272 
Q 2975 3691 2734 3919 
Q 2494 4147 2053 4147 
L 1259 4147 
z
M 628 4666 
L 2053 4666 
Q 2838 4666 3239 4311 
Q 3641 3956 3641 3272 
Q 3641 2581 3239 2228 
Q 2838 1875 2053 1875 
L 1259 1875 
L 1259 0 
L 628 0 
L 628 4666 
z
" transform="scale(0.015625)"/>
       <path id="DejaVuSans-65" d="M 3597 1894 
L 3597 1613 
L 953 1613 
Q 991 1019 1311 708 
Q 1631 397 2203 397 
Q 2534 397 2845 478 
Q 3156 559 3463 722 
L 3463 178 
Q 3153 47 2828 -22 
Q 2503 -91 2169 -91 
Q 1331 -91 842 396 
Q 353 884 353 1716 
Q 353 2575 817 3079 
Q 1281 3584 2069 3584 
Q 2775 3584 3186 3129 
Q 3597 2675 3597 1894 
z
M 3022 2063 
Q 3016 2534 2758 2815 
Q 2500 3097 2075 3097 
Q 1594 3097 1305 2825 
Q 1016 2553 972 2059 
L 3022 2063 
z
" transform="scale(0.015625)"/>
       <path id="DejaVuSans-72" d="M 2631 2963 
Q 2534 3019 2420 3045 
Q 2306 3072 2169 3072 
Q 1681 3072 1420 2755 
Q 1159 2438 1159 1844 
L 1159 0 
L 581 0 
L 581 3500 
L 1159 3500 
L 1159 2956 
Q 1341 3275 1631 3429 
Q 1922 3584 2338 3584 
Q 2397 3584 2469 3576 
Q 2541 3569 2628 3553 
L 2631 2963 
z
" transform="scale(0.015625)"/>
       <path id="DejaVuSans-63" d="M 3122 3366 
L 3122 2828 
Q 2878 2963 2633 3030 
Q 2388 3097 2138 3097 
Q 1578 3097 1268 2742 
Q 959 2388 959 1747 
Q 959 1106 1268 751 
Q 1578 397 2138 397 
Q 2388 397 2633 464 
Q 2878 531 3122 666 
L 3122 134 
Q 2881 22 2623 -34 
Q 2366 -91 2075 -91 
Q 1284 -91 818 406 
Q 353 903 353 1747 
Q 353 2603 823 3093 
Q 1294 3584 2113 3584 
Q 2378 3584 2631 3529 
Q 2884 3475 3122 3366 
z
" transform="scale(0.015625)"/>
       <path id="DejaVuSans-6e" d="M 3513 2113 
L 3513 0 
L 2938 0 
L 2938 2094 
Q 2938 2591 2744 2837 
Q 2550 3084 2163 3084 
Q 1697 3084 1428 2787 
Q 1159 2491 1159 1978 
L 1159 0 
L 581 0 
L 581 3500 
L 1159 3500 
L 1159 2956 
Q 1366 3272 1645 3428 
Q 1925 3584 2291 3584 
Q 2894 3584 3203 3211 
Q 3513 2838 3513 2113 
z
" transform="scale(0.015625)"/>
       <path id="DejaVuSans-74" d="M 1172 4494 
L 1172 3500 
L 2356 3500 
L 2356 3053 
L 1172 3053 
L 1172 1153 
Q 1172 725 1289 603 
Q 1406 481 1766 481 
L 2356 481 
L 2356 0 
L 1766 0 
Q 1100 0 847 248 
Q 594 497 594 1153 
L 594 3053 
L 172 3053 
L 172 3500 
L 594 3500 
L 594 4494 
L 1172 4494 
z
" transform="scale(0.015625)"/>
       <path id="DejaVuSans-61" d="M 2194 1759 
Q 1497 1759 1228 1600 
Q 959 1441 959 1056 
Q 959 750 1161 570 
Q 1363 391 1709 391 
Q 2188 391 2477 730 
Q 2766 1069 2766 1631 
L 2766 1759 
L 2194 1759 
z
M 3341 1997 
L 3341 0 
L 2766 0 
L 2766 531 
Q 2569 213 2275 61 
Q 1981 -91 1556 -91 
Q 1019 -91 701 211 
Q 384 513 384 1019 
Q 384 1609 779 1909 
Q 1175 2209 1959 2209 
L 2766 2209 
L 2766 2266 
Q 2766 2663 2505 2880 
Q 2244 3097 1772 3097 
Q 1472 3097 1187 3025 
Q 903 2953 641 2809 
L 641 3341 
Q 956 3463 1253 3523 
Q 1550 3584 1831 3584 
Q 2591 3584 2966 3190 
Q 3341 2797 3341 1997 
z
" transform="scale(0.015625)"/>
       <path id="DejaVuSans-67" d="M 2906 1791 
Q 2906 2416 2648 2759 
Q 2391 3103 1925 3103 
Q 1463 3103 1205 2759 
Q 947 2416 947 1791 
Q 947 1169 1205 825 
Q 1463 481 1925 481 
Q 2391 481 2648 825 
Q 2906 1169 2906 1791 
z
M 3481 434 
Q 3481 -459 3084 -895 
Q 2688 -1331 1869 -1331 
Q 1566 -1331 1297 -1286 
Q 1028 -1241 775 -1147 
L 775 -588 
Q 1028 -725 1275 -790 
Q 1522 -856 1778 -856 
Q 2344 -856 2625 -561 
Q 2906 -266 2906 331 
L 2906 616 
Q 2728 306 2450 153 
Q 2172 0 1784 0 
Q 1141 0 747 490 
Q 353 981 353 1791 
Q 353 2603 747 3093 
Q 1141 3584 1784 3584 
Q 2172 3584 2450 3431 
Q 2728 3278 2906 2969 
L 2906 3500 
L 3481 3500 
L 3481 434 
z
" transform="scale(0.015625)"/>
       <path id="DejaVuSans-20" transform="scale(0.015625)"/>
       <path id="DejaVuSans-6f" d="M 1959 3097 
Q 1497 3097 1228 2736 
Q 959 2375 959 1747 
Q 959 1119 1226 758 
Q 1494 397 1959 397 
Q 2419 397 2687 759 
Q 2956 1122 2956 1747 
Q 2956 2369 2687 2733 
Q 2419 3097 1959 3097 
z
M 1959 3584 
Q 2709 3584 3137 3096 
Q 3566 2609 3566 1747 
Q 3566 888 3137 398 
Q 2709 -91 1959 -91 
Q 1206 -91 779 398 
Q 353 888 353 1747 
Q 353 2609 779 3096 
Q 1206 3584 1959 3584 
z
" transform="scale(0.015625)"/>
       <path id="DejaVuSans-66" d="M 2375 4863 
L 2375 4384 
L 1825 4384 
Q 1516 4384 1395 4259 
Q 1275 4134 1275 3809 
L 1275 3500 
L 2222 3500 
L 2222 3053 
L 1275 3053 
L 1275 0 
L 697 0 
L 697 3053 
L 147 3053 
L 147 3500 
L 697 3500 
L 697 3744 
Q 697 4328 969 4595 
Q 1241 4863 1831 4863 
L 2375 4863 
z
" transform="scale(0.015625)"/>
       <path id="DejaVuSans-76" d="M 191 3500 
L 800 3500 
L 1894 563 
L 2988 3500 
L 3597 3500 
L 2284 0 
L 1503 0 
L 191 3500 
z
" transform="scale(0.015625)"/>
       <path id="DejaVuSans-69" d="M 603 3500 
L 1178 3500 
L 1178 0 
L 603 0 
L 603 3500 
z
M 603 4863 
L 1178 4863 
L 1178 4134 
L 603 4134 
L 603 4863 
z
" transform="scale(0.015625)"/>
       <path id="DejaVuSans-62" d="M 3116 1747 
Q 3116 2381 2855 2742 
Q 2594 3103 2138 3103 
Q 1681 3103 1420 2742 
Q 1159 2381 1159 1747 
Q 1159 1113 1420 752 
Q 1681 391 2138 391 
Q 2594 391 2855 752 
Q 3116 1113 3116 1747 
z
M 1159 2969 
Q 1341 3281 1617 3432 
Q 1894 3584 2278 3584 
Q 2916 3584 3314 3078 
Q 3713 2572 3713 1747 
Q 3713 922 3314 415 
Q 2916 -91 2278 -91 
Q 1894 -91 1617 61 
Q 1341 213 1159 525 
L 1159 0 
L 581 0 
L 581 4863 
L 1159 4863 
L 1159 2969 
z
" transform="scale(0.015625)"/>
       <path id="DejaVuSans-6c" d="M 603 4863 
L 1178 4863 
L 1178 0 
L 603 0 
L 603 4863 
z
" transform="scale(0.015625)"/>
       <path id="DejaVuSans-79" d="M 2059 -325 
Q 1816 -950 1584 -1140 
Q 1353 -1331 966 -1331 
L 506 -1331 
L 506 -850 
L 844 -850 
Q 1081 -850 1212 -737 
Q 1344 -625 1503 -206 
L 1606 56 
L 191 3500 
L 800 3500 
L 1894 763 
L 2988 3500 
L 3597 3500 
L 2059 -325 
z
" transform="scale(0.015625)"/>
      </defs>
      <use xlink:href="#DejaVuSans-50"/>
      <use xlink:href="#DejaVuSans-65" x="56.677734"/>
      <use xlink:href="#DejaVuSans-72" x="118.201172"/>
      <use xlink:href="#DejaVuSans-63" x="157.064453"/>
      <use xlink:href="#DejaVuSans-65" x="212.044922"/>
      <use xlink:href="#DejaVuSans-6e" x="273.568359"/>
      <use xlink:href="#DejaVuSans-74" x="336.947266"/>
      <use xlink:href="#DejaVuSans-61" x="376.15625"/>
      <use xlink:href="#DejaVuSans-67" x="437.435547"/>
      <use xlink:href="#DejaVuSans-65" x="500.912109"/>
      <use xlink:href="#DejaVuSans-20" x="562.435547"/>
      <use xlink:href="#DejaVuSans-6f" x="594.222656"/>
      <use xlink:href="#DejaVuSans-66" x="655.404297"/>
      <use xlink:href="#DejaVuSans-20" x="690.609375"/>
      <use xlink:href="#DejaVuSans-76" x="722.396484"/>
      <use xlink:href="#DejaVuSans-61" x="781.576172"/>
      <use xlink:href="#DejaVuSans-72" x="842.855469"/>
      <use xlink:href="#DejaVuSans-69" x="883.96875"/>
      <use xlink:href="#DejaVuSans-61" x="911.751953"/>
      <use xlink:href="#DejaVuSans-62" x="973.03125"/>
      <use xlink:href="#DejaVuSans-69" x="1036.507812"/>
      <use xlink:href="#DejaVuSans-6c" x="1064.291016"/>
      <use xlink:href="#DejaVuSans-69" x="1092.074219"/>
      <use xlink:href="#DejaVuSans-74" x="1119.857422"/>
      <use xlink:href="#DejaVuSans-79" x="1159.066406"/>
     </g>
    </g>
   </g>
   <g id="PolyCollection_1">
    <defs>
     <path id="m2c6b3d5766" d="M 145.594545 -623.782501 
L 145.594545 -620.231958 
L 185.716909 -621.193025 
L 225.839273 -618.330878 
L 265.961636 -616.65892 
L 306.084 -616.831148 
L 346.206364 -614.724525 
L 386.328727 -615.506685 
L 426.451091 -616.426589 
L 466.573455 -617.033257 
L 506.695818 -617.609984 
L 506.695818 -626.703442 
L 506.695818 -626.703442 
L 466.573455 -626.866875 
L 426.451091 -625.349313 
L 386.328727 -623.791175 
L 346.206364 -623.91068 
L 306.084 -626.158113 
L 265.961636 -625.16057 
L 225.839273 -623.605673 
L 185.716909 -625.338313 
L 145.594545 -623.782501 
z
" style="stroke: #008000; stroke-opacity: 0.2; stroke-width: 0.8"/>
    </defs>
    <g clip-path="url(#p31c4a5ffa8)">
     <use xlink:href="#m2c6b3d5766" x="0" y="720" style="fill: #008000; fill-opacity: 0.2; stroke: #008000; stroke-opacity: 0.2; stroke-width: 0.8"/>
    </g>
   </g>
   <g id="PolyCollection_2">
    <defs>
     <path id="m30340554a0" d="M 145.594545 -628.986212 
L 145.594545 -594.465217 
L 185.716909 -570.465599 
L 225.839273 -554.475137 
L 265.961636 -524.784438 
L 306.084 -514.924973 
L 346.206364 -495.353097 
L 386.328727 -476.628628 
L 426.451091 -455.630887 
L 466.573455 -454.646806 
L 506.695818 -441.994084 
L 506.695818 -499.350595 
L 506.695818 -499.350595 
L 466.573455 -510.982123 
L 426.451091 -525.497029 
L 386.328727 -540.273989 
L 346.206364 -551.077033 
L 306.084 -574.894394 
L 265.961636 -586.171966 
L 225.839273 -609.410606 
L 185.716909 -626.250549 
L 145.594545 -628.986212 
z
" style="stroke: #6786c6; stroke-opacity: 0.2; stroke-width: 0.8"/>
    </defs>
    <g clip-path="url(#p31c4a5ffa8)">
     <use xlink:href="#m30340554a0" x="0" y="720" style="fill: #6786c6; fill-opacity: 0.2; stroke: #6786c6; stroke-opacity: 0.2; stroke-width: 0.8"/>
    </g>
   </g>
   <g id="PolyCollection_3">
    <defs>
     <path id="m60296c2315" d="M 145.594545 -624.116331 
L 145.594545 -611.893794 
L 185.716909 -613.635034 
L 225.839273 -605.306053 
L 265.961636 -596.357615 
L 306.084 -590.847082 
L 346.206364 -583.131848 
L 386.328727 -577.984185 
L 426.451091 -571.24571 
L 466.573455 -559.709631 
L 506.695818 -555.74296 
L 506.695818 -613.832128 
L 506.695818 -613.832128 
L 466.573455 -621.22386 
L 426.451091 -624.673135 
L 386.328727 -620.654418 
L 346.206364 -615.513461 
L 306.084 -620.831848 
L 265.961636 -621.070701 
L 225.839273 -617.564669 
L 185.716909 -622.655216 
L 145.594545 -624.116331 
z
" style="stroke: #e19252; stroke-opacity: 0.2; stroke-width: 0.8"/>
    </defs>
    <g clip-path="url(#p31c4a5ffa8)">
     <use xlink:href="#m60296c2315" x="0" y="720" style="fill: #e19252; fill-opacity: 0.2; stroke: #e19252; stroke-opacity: 0.2; stroke-width: 0.8"/>
    </g>
   </g>
   <g id="line2d_14">
    <path d="M 105.472182 97.352818 
L 145.594545 98.054376 
L 185.716909 96.765922 
L 225.839273 98.967333 
L 265.961636 98.953674 
L 306.084 98.48482 
L 346.206364 100.574455 
L 386.328727 99.913054 
L 426.451091 98.823643 
L 466.573455 97.950979 
L 506.695818 97.771257 
" clip-path="url(#p31c4a5ffa8)" style="fill: none; stroke: #008000; stroke-width: 1.2; stroke-linecap: round"/>
   </g>
   <g id="line2d_15">
    <path d="M 105.472182 97.352818 
L 145.594545 107.08571 
L 185.716909 119.740595 
L 225.839273 137.892111 
L 265.961636 164.998286 
L 306.084 177.625116 
L 346.206364 200.235644 
L 386.328727 213.87497 
L 426.451091 233.113559 
L 466.573455 238.435521 
L 506.695818 249.029754 
" clip-path="url(#p31c4a5ffa8)" style="fill: none; stroke: #6786c6; stroke-width: 1.2; stroke-linecap: round"/>
   </g>
   <g id="line2d_16">
    <path d="M 105.472182 97.352818 
L 145.594545 102.304808 
L 185.716909 101.808027 
L 225.839273 108.527103 
L 265.961636 110.955442 
L 306.084 113.671181 
L 346.206364 120.320892 
L 386.328727 120.146868 
L 426.451091 121.356905 
L 466.573455 128.881644 
L 506.695818 134.908277 
" clip-path="url(#p31c4a5ffa8)" style="fill: none; stroke: #e19252; stroke-width: 1.2; stroke-linecap: round"/>
   </g>
   <g id="line2d_17"/>
   <g id="line2d_18"/>
   <g id="line2d_19"/>
   <g id="patch_3">
    <path d="M 85.411 346.85 
L 85.411 85.472 
" style="fill: none; stroke: #cccccc; stroke-linejoin: miter; stroke-linecap: square"/>
   </g>
   <g id="patch_4">
    <path d="M 526.757 346.85 
L 526.757 85.472 
" style="fill: none; stroke: #cccccc; stroke-linejoin: miter; stroke-linecap: square"/>
   </g>
   <g id="patch_5">
    <path d="M 85.411 346.85 
L 526.757 346.85 
" style="fill: none; stroke: #cccccc; stroke-linejoin: miter; stroke-linecap: square"/>
   </g>
   <g id="patch_6">
    <path d="M 85.411 85.472 
L 526.757 85.472 
" style="fill: none; stroke: #cccccc; stroke-linejoin: miter; stroke-linecap: square"/>
   </g>
   <g id="text_9">
    <!-- a -->
    <g style="fill: #262626" transform="translate(85.411 81.479)scale(0.192 -0.192)">
     <defs>
      <path id="DejaVuSans-Bold-61" d="M 2106 1575 
Q 1756 1575 1579 1456 
Q 1403 1338 1403 1106 
Q 1403 894 1545 773 
Q 1688 653 1941 653 
Q 2256 653 2472 879 
Q 2688 1106 2688 1447 
L 2688 1575 
L 2106 1575 
z
M 3816 1997 
L 3816 0 
L 2688 0 
L 2688 519 
Q 2463 200 2181 54 
Q 1900 -91 1497 -91 
Q 953 -91 614 226 
Q 275 544 275 1050 
Q 275 1666 698 1953 
Q 1122 2241 2028 2241 
L 2688 2241 
L 2688 2328 
Q 2688 2594 2478 2717 
Q 2269 2841 1825 2841 
Q 1466 2841 1156 2769 
Q 847 2697 581 2553 
L 581 3406 
Q 941 3494 1303 3539 
Q 1666 3584 2028 3584 
Q 2975 3584 3395 3211 
Q 3816 2838 3816 1997 
z
" transform="scale(0.015625)"/>
     </defs>
     <use xlink:href="#DejaVuSans-Bold-61"/>
    </g>
   </g>
   <g id="text_10">
    <!-- Dim. 1 -->
    <g style="fill: #262626" transform="translate(274.464 79.472)scale(0.192 -0.192)">
     <defs>
      <path id="DejaVuSans-44" d="M 1259 4147 
L 1259 519 
L 2022 519 
Q 2988 519 3436 956 
Q 3884 1394 3884 2338 
Q 3884 3275 3436 3711 
Q 2988 4147 2022 4147 
L 1259 4147 
z
M 628 4666 
L 1925 4666 
Q 3281 4666 3915 4102 
Q 4550 3538 4550 2338 
Q 4550 1131 3912 565 
Q 3275 0 1925 0 
L 628 0 
L 628 4666 
z
" transform="scale(0.015625)"/>
      <path id="DejaVuSans-6d" d="M 3328 2828 
Q 3544 3216 3844 3400 
Q 4144 3584 4550 3584 
Q 5097 3584 5394 3201 
Q 5691 2819 5691 2113 
L 5691 0 
L 5113 0 
L 5113 2094 
Q 5113 2597 4934 2840 
Q 4756 3084 4391 3084 
Q 3944 3084 3684 2787 
Q 3425 2491 3425 1978 
L 3425 0 
L 2847 0 
L 2847 2094 
Q 2847 2600 2669 2842 
Q 2491 3084 2119 3084 
Q 1678 3084 1418 2786 
Q 1159 2488 1159 1978 
L 1159 0 
L 581 0 
L 581 3500 
L 1159 3500 
L 1159 2956 
Q 1356 3278 1631 3431 
Q 1906 3584 2284 3584 
Q 2666 3584 2933 3390 
Q 3200 3197 3328 2828 
z
" transform="scale(0.015625)"/>
      <path id="DejaVuSans-2e" d="M 684 794 
L 1344 794 
L 1344 0 
L 684 0 
L 684 794 
z
" transform="scale(0.015625)"/>
     </defs>
     <use xlink:href="#DejaVuSans-44"/>
     <use xlink:href="#DejaVuSans-69" x="77.001953"/>
     <use xlink:href="#DejaVuSans-6d" x="104.785156"/>
     <use xlink:href="#DejaVuSans-2e" x="202.197266"/>
     <use xlink:href="#DejaVuSans-20" x="233.984375"/>
     <use xlink:href="#DejaVuSans-31" x="265.771484"/>
    </g>
   </g>
  </g>
  <g id="axes_2">
   <g id="patch_7">
    <path d="M 617.918 346.85 
L 1059.264 346.85 
L 1059.264 85.472 
L 617.918 85.472 
z
" style="fill: #ffffff"/>
   </g>
   <g id="matplotlib.axis_3">
    <g id="xtick_7">
     <g id="line2d_20">
      <path d="M 637.979182 346.85 
L 637.979182 85.472 
" clip-path="url(#p5faae19836)" style="fill: none; stroke: #cccccc; stroke-width: 0.8; stroke-linecap: round"/>
     </g>
    </g>
    <g id="xtick_8">
     <g id="line2d_21">
      <path d="M 718.223909 346.85 
L 718.223909 85.472 
" clip-path="url(#p5faae19836)" style="fill: none; stroke: #cccccc; stroke-width: 0.8; stroke-linecap: round"/>
     </g>
    </g>
    <g id="xtick_9">
     <g id="line2d_22">
      <path d="M 798.468636 346.85 
L 798.468636 85.472 
" clip-path="url(#p5faae19836)" style="fill: none; stroke: #cccccc; stroke-width: 0.8; stroke-linecap: round"/>
     </g>
    </g>
    <g id="xtick_10">
     <g id="line2d_23">
      <path d="M 878.713364 346.85 
L 878.713364 85.472 
" clip-path="url(#p5faae19836)" style="fill: none; stroke: #cccccc; stroke-width: 0.8; stroke-linecap: round"/>
     </g>
    </g>
    <g id="xtick_11">
     <g id="line2d_24">
      <path d="M 958.958091 346.85 
L 958.958091 85.472 
" clip-path="url(#p5faae19836)" style="fill: none; stroke: #cccccc; stroke-width: 0.8; stroke-linecap: round"/>
     </g>
    </g>
    <g id="xtick_12">
     <g id="line2d_25">
      <path d="M 1039.202818 346.85 
L 1039.202818 85.472 
" clip-path="url(#p5faae19836)" style="fill: none; stroke: #cccccc; stroke-width: 0.8; stroke-linecap: round"/>
     </g>
    </g>
   </g>
   <g id="matplotlib.axis_4">
    <g id="ytick_8">
     <g id="line2d_26">
      <path d="M 617.918 316.131191 
L 1059.264 316.131191 
" clip-path="url(#p5faae19836)" style="fill: none; stroke: #cccccc; stroke-width: 0.8; stroke-linecap: round"/>
     </g>
     <g id="text_11">
      <!-- 0.5 -->
      <g style="fill: #262626" transform="translate(581.6285 322.817816)scale(0.176 -0.176)">
       <use xlink:href="#DejaVuSans-30"/>
       <use xlink:href="#DejaVuSans-2e" x="63.623047"/>
       <use xlink:href="#DejaVuSans-35" x="95.410156"/>
      </g>
     </g>
    </g>
    <g id="ytick_9">
     <g id="line2d_27">
      <path d="M 617.918 264.56361 
L 1059.264 264.56361 
" clip-path="url(#p5faae19836)" style="fill: none; stroke: #cccccc; stroke-width: 0.8; stroke-linecap: round"/>
     </g>
     <g id="text_12">
      <!-- 1.0 -->
      <g style="fill: #262626" transform="translate(581.6285 271.250235)scale(0.176 -0.176)">
       <use xlink:href="#DejaVuSans-31"/>
       <use xlink:href="#DejaVuSans-2e" x="63.623047"/>
       <use xlink:href="#DejaVuSans-30" x="95.410156"/>
      </g>
     </g>
    </g>
    <g id="ytick_10">
     <g id="line2d_28">
      <path d="M 617.918 212.996028 
L 1059.264 212.996028 
" clip-path="url(#p5faae19836)" style="fill: none; stroke: #cccccc; stroke-width: 0.8; stroke-linecap: round"/>
     </g>
     <g id="text_13">
      <!-- 1.5 -->
      <g style="fill: #262626" transform="translate(581.6285 219.682653)scale(0.176 -0.176)">
       <use xlink:href="#DejaVuSans-31"/>
       <use xlink:href="#DejaVuSans-2e" x="63.623047"/>
       <use xlink:href="#DejaVuSans-35" x="95.410156"/>
      </g>
     </g>
    </g>
    <g id="ytick_11">
     <g id="line2d_29">
      <path d="M 617.918 161.428447 
L 1059.264 161.428447 
" clip-path="url(#p5faae19836)" style="fill: none; stroke: #cccccc; stroke-width: 0.8; stroke-linecap: round"/>
     </g>
     <g id="text_14">
      <!-- 2.0 -->
      <g style="fill: #262626" transform="translate(581.6285 168.115072)scale(0.176 -0.176)">
       <defs>
        <path id="DejaVuSans-32" d="M 1228 531 
L 3431 531 
L 3431 0 
L 469 0 
L 469 531 
Q 828 903 1448 1529 
Q 2069 2156 2228 2338 
Q 2531 2678 2651 2914 
Q 2772 3150 2772 3378 
Q 2772 3750 2511 3984 
Q 2250 4219 1831 4219 
Q 1534 4219 1204 4116 
Q 875 4013 500 3803 
L 500 4441 
Q 881 4594 1212 4672 
Q 1544 4750 1819 4750 
Q 2544 4750 2975 4387 
Q 3406 4025 3406 3419 
Q 3406 3131 3298 2873 
Q 3191 2616 2906 2266 
Q 2828 2175 2409 1742 
Q 1991 1309 1228 531 
z
" transform="scale(0.015625)"/>
       </defs>
       <use xlink:href="#DejaVuSans-32"/>
       <use xlink:href="#DejaVuSans-2e" x="63.623047"/>
       <use xlink:href="#DejaVuSans-30" x="95.410156"/>
      </g>
     </g>
    </g>
    <g id="ytick_12">
     <g id="line2d_30">
      <path d="M 617.918 109.860866 
L 1059.264 109.860866 
" clip-path="url(#p5faae19836)" style="fill: none; stroke: #cccccc; stroke-width: 0.8; stroke-linecap: round"/>
     </g>
     <g id="text_15">
      <!-- 2.5 -->
      <g style="fill: #262626" transform="translate(581.6285 116.547491)scale(0.176 -0.176)">
       <use xlink:href="#DejaVuSans-32"/>
       <use xlink:href="#DejaVuSans-2e" x="63.623047"/>
       <use xlink:href="#DejaVuSans-35" x="95.410156"/>
      </g>
     </g>
    </g>
    <g id="text_16">
     <!-- Standard deviation -->
     <g style="fill: #262626" transform="translate(573.6355 307.5095)rotate(-90)scale(0.192 -0.192)">
      <defs>
       <path id="DejaVuSans-53" d="M 3425 4513 
L 3425 3897 
Q 3066 4069 2747 4153 
Q 2428 4238 2131 4238 
Q 1616 4238 1336 4038 
Q 1056 3838 1056 3469 
Q 1056 3159 1242 3001 
Q 1428 2844 1947 2747 
L 2328 2669 
Q 3034 2534 3370 2195 
Q 3706 1856 3706 1288 
Q 3706 609 3251 259 
Q 2797 -91 1919 -91 
Q 1588 -91 1214 -16 
Q 841 59 441 206 
L 441 856 
Q 825 641 1194 531 
Q 1563 422 1919 422 
Q 2459 422 2753 634 
Q 3047 847 3047 1241 
Q 3047 1584 2836 1778 
Q 2625 1972 2144 2069 
L 1759 2144 
Q 1053 2284 737 2584 
Q 422 2884 422 3419 
Q 422 4038 858 4394 
Q 1294 4750 2059 4750 
Q 2388 4750 2728 4690 
Q 3069 4631 3425 4513 
z
" transform="scale(0.015625)"/>
       <path id="DejaVuSans-64" d="M 2906 2969 
L 2906 4863 
L 3481 4863 
L 3481 0 
L 2906 0 
L 2906 525 
Q 2725 213 2448 61 
Q 2172 -91 1784 -91 
Q 1150 -91 751 415 
Q 353 922 353 1747 
Q 353 2572 751 3078 
Q 1150 3584 1784 3584 
Q 2172 3584 2448 3432 
Q 2725 3281 2906 2969 
z
M 947 1747 
Q 947 1113 1208 752 
Q 1469 391 1925 391 
Q 2381 391 2643 752 
Q 2906 1113 2906 1747 
Q 2906 2381 2643 2742 
Q 2381 3103 1925 3103 
Q 1469 3103 1208 2742 
Q 947 2381 947 1747 
z
" transform="scale(0.015625)"/>
      </defs>
      <use xlink:href="#DejaVuSans-53"/>
      <use xlink:href="#DejaVuSans-74" x="63.476562"/>
      <use xlink:href="#DejaVuSans-61" x="102.685547"/>
      <use xlink:href="#DejaVuSans-6e" x="163.964844"/>
      <use xlink:href="#DejaVuSans-64" x="227.34375"/>
      <use xlink:href="#DejaVuSans-61" x="290.820312"/>
      <use xlink:href="#DejaVuSans-72" x="352.099609"/>
      <use xlink:href="#DejaVuSans-64" x="391.462891"/>
      <use xlink:href="#DejaVuSans-20" x="454.939453"/>
      <use xlink:href="#DejaVuSans-64" x="486.726562"/>
      <use xlink:href="#DejaVuSans-65" x="550.203125"/>
      <use xlink:href="#DejaVuSans-76" x="611.726562"/>
      <use xlink:href="#DejaVuSans-69" x="670.90625"/>
      <use xlink:href="#DejaVuSans-61" x="698.689453"/>
      <use xlink:href="#DejaVuSans-74" x="759.96875"/>
      <use xlink:href="#DejaVuSans-69" x="799.177734"/>
      <use xlink:href="#DejaVuSans-6f" x="826.960938"/>
      <use xlink:href="#DejaVuSans-6e" x="888.142578"/>
     </g>
    </g>
   </g>
   <g id="PolyCollection_4">
    <defs>
     <path id="md63f2edd78" d="M 678.101545 -620.846709 
L 678.101545 -618.456291 
L 718.223909 -619.09477 
L 758.346273 -617.076664 
L 798.468636 -616.4683 
L 838.591 -616.081611 
L 878.713364 -614.441341 
L 918.835727 -615.124525 
L 958.958091 -615.716907 
L 999.080455 -616.289012 
L 1039.202818 -616.644282 
L 1039.202818 -622.635246 
L 1039.202818 -622.635246 
L 999.080455 -622.647182 
L 958.958091 -621.897288 
L 918.835727 -620.729924 
L 878.713364 -620.711324 
L 838.591 -622.397546 
L 798.468636 -621.625689 
L 758.346273 -620.727487 
L 718.223909 -621.833454 
L 678.101545 -620.846709 
z
" style="stroke: #008000; stroke-opacity: 0.2; stroke-width: 0.8"/>
    </defs>
    <g clip-path="url(#p5faae19836)">
     <use xlink:href="#md63f2edd78" x="0" y="720" style="fill: #008000; fill-opacity: 0.2; stroke: #008000; stroke-opacity: 0.2; stroke-width: 0.8"/>
    </g>
   </g>
   <g id="PolyCollection_5">
    <defs>
     <path id="mf0ffc03000" d="M 678.101545 -413.260305 
L 678.101545 -408.084208 
L 718.223909 -404.587168 
L 758.346273 -401.851129 
L 798.468636 -397.622389 
L 838.591 -395.712659 
L 878.713364 -392.952691 
L 918.835727 -389.889954 
L 958.958091 -387.160893 
L 999.080455 -387.002712 
L 1039.202818 -385.030818 
L 1039.202818 -393.891363 
L 1039.202818 -393.891363 
L 999.080455 -395.06813 
L 958.958091 -397.262868 
L 918.835727 -399.669971 
L 878.713364 -401.007374 
L 838.591 -404.569134 
L 798.468636 -406.936167 
L 758.346273 -410.578746 
L 718.223909 -412.71009 
L 678.101545 -413.260305 
z
" style="stroke: #6786c6; stroke-opacity: 0.2; stroke-width: 0.8"/>
    </defs>
    <g clip-path="url(#p5faae19836)">
     <use xlink:href="#mf0ffc03000" x="0" y="720" style="fill: #6786c6; fill-opacity: 0.2; stroke: #6786c6; stroke-opacity: 0.2; stroke-width: 0.8"/>
    </g>
   </g>
   <g id="PolyCollection_6">
    <defs>
     <path id="md1f30c8b5a" d="M 678.101545 -505.86473 
L 678.101545 -501.265104 
L 718.223909 -501.663318 
L 758.346273 -498.512495 
L 798.468636 -495.310403 
L 838.591 -493.438751 
L 878.713364 -490.438744 
L 918.835727 -488.612183 
L 958.958091 -485.588281 
L 999.080455 -481.744953 
L 1039.202818 -479.389958 
L 1039.202818 -501.538977 
L 1039.202818 -501.538977 
L 999.080455 -504.38491 
L 958.958091 -506.602253 
L 918.835727 -504.512638 
L 878.713364 -502.668468 
L 838.591 -504.144577 
L 798.468636 -505.065837 
L 758.346273 -503.632528 
L 718.223909 -505.397286 
L 678.101545 -505.86473 
z
" style="stroke: #e19252; stroke-opacity: 0.2; stroke-width: 0.8"/>
    </defs>
    <g clip-path="url(#p5faae19836)">
     <use xlink:href="#md1f30c8b5a" x="0" y="720" style="fill: #e19252; fill-opacity: 0.2; stroke: #e19252; stroke-opacity: 0.2; stroke-width: 0.8"/>
    </g>
   </g>
   <g id="line2d_31">
    <path d="M 637.979182 99.9235 
L 678.101545 100.397861 
L 718.223909 99.526668 
L 758.346273 101.01516 
L 798.468636 101.005925 
L 838.591 100.688907 
L 878.713364 102.101822 
L 918.835727 101.654613 
L 958.958091 100.918004 
L 999.080455 100.327949 
L 1039.202818 100.206429 
" clip-path="url(#p5faae19836)" style="fill: none; stroke: #008000; stroke-width: 1.2; stroke-linecap: round"/>
   </g>
   <g id="line2d_32">
    <path d="M 637.979182 307.763116 
L 678.101545 309.236114 
L 718.223909 311.151333 
L 758.346273 313.898424 
L 798.468636 318.000733 
L 838.591 319.911706 
L 878.713364 323.333634 
L 918.835727 325.39784 
L 958.958091 328.309451 
L 999.080455 329.114889 
L 1039.202818 330.718244 
" clip-path="url(#p5faae19836)" style="fill: none; stroke: #6786c6; stroke-width: 1.2; stroke-linecap: round"/>
   </g>
   <g id="line2d_33">
    <path d="M 637.979182 214.600601 
L 678.101545 216.514966 
L 718.223909 216.322917 
L 758.346273 218.920411 
L 798.468636 219.85917 
L 838.591 220.909034 
L 878.713364 223.479712 
L 918.835727 223.412437 
L 958.958091 223.880219 
L 999.080455 226.78917 
L 1039.202818 229.118975 
" clip-path="url(#p5faae19836)" style="fill: none; stroke: #e19252; stroke-width: 1.2; stroke-linecap: round"/>
   </g>
   <g id="line2d_34"/>
   <g id="line2d_35"/>
   <g id="line2d_36"/>
   <g id="patch_8">
    <path d="M 617.918 346.85 
L 617.918 85.472 
" style="fill: none; stroke: #cccccc; stroke-linejoin: miter; stroke-linecap: square"/>
   </g>
   <g id="patch_9">
    <path d="M 1059.264 346.85 
L 1059.264 85.472 
" style="fill: none; stroke: #cccccc; stroke-linejoin: miter; stroke-linecap: square"/>
   </g>
   <g id="patch_10">
    <path d="M 617.918 346.85 
L 1059.264 346.85 
" style="fill: none; stroke: #cccccc; stroke-linejoin: miter; stroke-linecap: square"/>
   </g>
   <g id="patch_11">
    <path d="M 617.918 85.472 
L 1059.264 85.472 
" style="fill: none; stroke: #cccccc; stroke-linejoin: miter; stroke-linecap: square"/>
   </g>
   <g id="text_17">
    <!-- b -->
    <g style="fill: #262626" transform="translate(617.918 81.479)scale(0.192 -0.192)">
     <defs>
      <path id="DejaVuSans-Bold-62" d="M 2400 722 
Q 2759 722 2948 984 
Q 3138 1247 3138 1747 
Q 3138 2247 2948 2509 
Q 2759 2772 2400 2772 
Q 2041 2772 1848 2508 
Q 1656 2244 1656 1747 
Q 1656 1250 1848 986 
Q 2041 722 2400 722 
z
M 1656 2988 
Q 1888 3294 2169 3439 
Q 2450 3584 2816 3584 
Q 3463 3584 3878 3070 
Q 4294 2556 4294 1747 
Q 4294 938 3878 423 
Q 3463 -91 2816 -91 
Q 2450 -91 2169 54 
Q 1888 200 1656 506 
L 1656 0 
L 538 0 
L 538 4863 
L 1656 4863 
L 1656 2988 
z
" transform="scale(0.015625)"/>
     </defs>
     <use xlink:href="#DejaVuSans-Bold-62"/>
    </g>
   </g>
   <g id="text_18">
    <!-- Dim. 1 -->
    <g style="fill: #262626" transform="translate(806.971 79.472)scale(0.192 -0.192)">
     <use xlink:href="#DejaVuSans-44"/>
     <use xlink:href="#DejaVuSans-69" x="77.001953"/>
     <use xlink:href="#DejaVuSans-6d" x="104.785156"/>
     <use xlink:href="#DejaVuSans-2e" x="202.197266"/>
     <use xlink:href="#DejaVuSans-20" x="233.984375"/>
     <use xlink:href="#DejaVuSans-31" x="265.771484"/>
    </g>
   </g>
  </g>
  <g id="axes_3">
   <g id="patch_12">
    <path d="M 85.411 649.964 
L 526.757 649.964 
L 526.757 388.586 
L 85.411 388.586 
z
" style="fill: #ffffff"/>
   </g>
   <g id="matplotlib.axis_5">
    <g id="xtick_13">
     <g id="line2d_37">
      <path d="M 105.472182 649.964 
L 105.472182 388.586 
" clip-path="url(#p655aba144a)" style="fill: none; stroke: #cccccc; stroke-width: 0.8; stroke-linecap: round"/>
     </g>
     <g id="text_19">
      <!-- 0 -->
      <g style="fill: #262626" transform="translate(99.873182 671.63725)scale(0.176 -0.176)">
       <use xlink:href="#DejaVuSans-30"/>
      </g>
     </g>
    </g>
    <g id="xtick_14">
     <g id="line2d_38">
      <path d="M 185.716909 649.964 
L 185.716909 388.586 
" clip-path="url(#p655aba144a)" style="fill: none; stroke: #cccccc; stroke-width: 0.8; stroke-linecap: round"/>
     </g>
     <g id="text_20">
      <!-- 2 -->
      <g style="fill: #262626" transform="translate(180.117909 671.63725)scale(0.176 -0.176)">
       <use xlink:href="#DejaVuSans-32"/>
      </g>
     </g>
    </g>
    <g id="xtick_15">
     <g id="line2d_39">
      <path d="M 265.961636 649.964 
L 265.961636 388.586 
" clip-path="url(#p655aba144a)" style="fill: none; stroke: #cccccc; stroke-width: 0.8; stroke-linecap: round"/>
     </g>
     <g id="text_21">
      <!-- 4 -->
      <g style="fill: #262626" transform="translate(260.362636 671.63725)scale(0.176 -0.176)">
       <use xlink:href="#DejaVuSans-34"/>
      </g>
     </g>
    </g>
    <g id="xtick_16">
     <g id="line2d_40">
      <path d="M 346.206364 649.964 
L 346.206364 388.586 
" clip-path="url(#p655aba144a)" style="fill: none; stroke: #cccccc; stroke-width: 0.8; stroke-linecap: round"/>
     </g>
     <g id="text_22">
      <!-- 6 -->
      <g style="fill: #262626" transform="translate(340.607364 671.63725)scale(0.176 -0.176)">
       <use xlink:href="#DejaVuSans-36"/>
      </g>
     </g>
    </g>
    <g id="xtick_17">
     <g id="line2d_41">
      <path d="M 426.451091 649.964 
L 426.451091 388.586 
" clip-path="url(#p655aba144a)" style="fill: none; stroke: #cccccc; stroke-width: 0.8; stroke-linecap: round"/>
     </g>
     <g id="text_23">
      <!-- 8 -->
      <g style="fill: #262626" transform="translate(420.852091 671.63725)scale(0.176 -0.176)">
       <use xlink:href="#DejaVuSans-38"/>
      </g>
     </g>
    </g>
    <g id="xtick_18">
     <g id="line2d_42">
      <path d="M 506.695818 649.964 
L 506.695818 388.586 
" clip-path="url(#p655aba144a)" style="fill: none; stroke: #cccccc; stroke-width: 0.8; stroke-linecap: round"/>
     </g>
     <g id="text_24">
      <!-- 10 -->
      <g style="fill: #262626" transform="translate(495.497818 671.63725)scale(0.176 -0.176)">
       <use xlink:href="#DejaVuSans-31"/>
       <use xlink:href="#DejaVuSans-30" x="63.623047"/>
      </g>
     </g>
    </g>
    <g id="text_25">
     <!-- iteration -->
     <g style="fill: #262626" transform="translate(265.5285 693.8865)scale(0.192 -0.192)">
      <use xlink:href="#DejaVuSans-69"/>
      <use xlink:href="#DejaVuSans-74" x="27.783203"/>
      <use xlink:href="#DejaVuSans-65" x="66.992188"/>
      <use xlink:href="#DejaVuSans-72" x="128.515625"/>
      <use xlink:href="#DejaVuSans-61" x="169.628906"/>
      <use xlink:href="#DejaVuSans-74" x="230.908203"/>
      <use xlink:href="#DejaVuSans-69" x="270.117188"/>
      <use xlink:href="#DejaVuSans-6f" x="297.900391"/>
      <use xlink:href="#DejaVuSans-6e" x="359.082031"/>
     </g>
    </g>
   </g>
   <g id="matplotlib.axis_6">
    <g id="ytick_13">
     <g id="line2d_43">
      <path d="M 85.411 638.083182 
L 526.757 638.083182 
" clip-path="url(#p655aba144a)" style="fill: none; stroke: #cccccc; stroke-width: 0.8; stroke-linecap: round"/>
     </g>
     <g id="text_26">
      <!-- 40 -->
      <g style="fill: #262626" transform="translate(54.715 644.769807)scale(0.176 -0.176)">
       <use xlink:href="#DejaVuSans-34"/>
       <use xlink:href="#DejaVuSans-30" x="63.623047"/>
      </g>
     </g>
    </g>
    <g id="ytick_14">
     <g id="line2d_44">
      <path d="M 85.411 598.480455 
L 526.757 598.480455 
" clip-path="url(#p655aba144a)" style="fill: none; stroke: #cccccc; stroke-width: 0.8; stroke-linecap: round"/>
     </g>
     <g id="text_27">
      <!-- 50 -->
      <g style="fill: #262626" transform="translate(54.715 605.16708)scale(0.176 -0.176)">
       <use xlink:href="#DejaVuSans-35"/>
       <use xlink:href="#DejaVuSans-30" x="63.623047"/>
      </g>
     </g>
    </g>
    <g id="ytick_15">
     <g id="line2d_45">
      <path d="M 85.411 558.877727 
L 526.757 558.877727 
" clip-path="url(#p655aba144a)" style="fill: none; stroke: #cccccc; stroke-width: 0.8; stroke-linecap: round"/>
     </g>
     <g id="text_28">
      <!-- 60 -->
      <g style="fill: #262626" transform="translate(54.715 565.564352)scale(0.176 -0.176)">
       <use xlink:href="#DejaVuSans-36"/>
       <use xlink:href="#DejaVuSans-30" x="63.623047"/>
      </g>
     </g>
    </g>
    <g id="ytick_16">
     <g id="line2d_46">
      <path d="M 85.411 519.275 
L 526.757 519.275 
" clip-path="url(#p655aba144a)" style="fill: none; stroke: #cccccc; stroke-width: 0.8; stroke-linecap: round"/>
     </g>
     <g id="text_29">
      <!-- 70 -->
      <g style="fill: #262626" transform="translate(54.715 525.961625)scale(0.176 -0.176)">
       <use xlink:href="#DejaVuSans-37"/>
       <use xlink:href="#DejaVuSans-30" x="63.623047"/>
      </g>
     </g>
    </g>
    <g id="ytick_17">
     <g id="line2d_47">
      <path d="M 85.411 479.672273 
L 526.757 479.672273 
" clip-path="url(#p655aba144a)" style="fill: none; stroke: #cccccc; stroke-width: 0.8; stroke-linecap: round"/>
     </g>
     <g id="text_30">
      <!-- 80 -->
      <g style="fill: #262626" transform="translate(54.715 486.358898)scale(0.176 -0.176)">
       <use xlink:href="#DejaVuSans-38"/>
       <use xlink:href="#DejaVuSans-30" x="63.623047"/>
      </g>
     </g>
    </g>
    <g id="ytick_18">
     <g id="line2d_48">
      <path d="M 85.411 440.069545 
L 526.757 440.069545 
" clip-path="url(#p655aba144a)" style="fill: none; stroke: #cccccc; stroke-width: 0.8; stroke-linecap: round"/>
     </g>
     <g id="text_31">
      <!-- 90 -->
      <g style="fill: #262626" transform="translate(54.715 446.75617)scale(0.176 -0.176)">
       <use xlink:href="#DejaVuSans-39"/>
       <use xlink:href="#DejaVuSans-30" x="63.623047"/>
      </g>
     </g>
    </g>
    <g id="ytick_19">
     <g id="line2d_49">
      <path d="M 85.411 400.466818 
L 526.757 400.466818 
" clip-path="url(#p655aba144a)" style="fill: none; stroke: #cccccc; stroke-width: 0.8; stroke-linecap: round"/>
     </g>
     <g id="text_32">
      <!-- 100 -->
      <g style="fill: #262626" transform="translate(43.517 407.153443)scale(0.176 -0.176)">
       <use xlink:href="#DejaVuSans-31"/>
       <use xlink:href="#DejaVuSans-30" x="63.623047"/>
       <use xlink:href="#DejaVuSans-30" x="127.246094"/>
      </g>
     </g>
    </g>
    <g id="text_33">
     <!-- Percentage of variability -->
     <g style="fill: #262626" transform="translate(35.524 636.2285)rotate(-90)scale(0.192 -0.192)">
      <use xlink:href="#DejaVuSans-50"/>
      <use xlink:href="#DejaVuSans-65" x="56.677734"/>
      <use xlink:href="#DejaVuSans-72" x="118.201172"/>
      <use xlink:href="#DejaVuSans-63" x="157.064453"/>
      <use xlink:href="#DejaVuSans-65" x="212.044922"/>
      <use xlink:href="#DejaVuSans-6e" x="273.568359"/>
      <use xlink:href="#DejaVuSans-74" x="336.947266"/>
      <use xlink:href="#DejaVuSans-61" x="376.15625"/>
      <use xlink:href="#DejaVuSans-67" x="437.435547"/>
      <use xlink:href="#DejaVuSans-65" x="500.912109"/>
      <use xlink:href="#DejaVuSans-20" x="562.435547"/>
      <use xlink:href="#DejaVuSans-6f" x="594.222656"/>
      <use xlink:href="#DejaVuSans-66" x="655.404297"/>
      <use xlink:href="#DejaVuSans-20" x="690.609375"/>
      <use xlink:href="#DejaVuSans-76" x="722.396484"/>
      <use xlink:href="#DejaVuSans-61" x="781.576172"/>
      <use xlink:href="#DejaVuSans-72" x="842.855469"/>
      <use xlink:href="#DejaVuSans-69" x="883.96875"/>
      <use xlink:href="#DejaVuSans-61" x="911.751953"/>
      <use xlink:href="#DejaVuSans-62" x="973.03125"/>
      <use xlink:href="#DejaVuSans-69" x="1036.507812"/>
      <use xlink:href="#DejaVuSans-6c" x="1064.291016"/>
      <use xlink:href="#DejaVuSans-69" x="1092.074219"/>
      <use xlink:href="#DejaVuSans-74" x="1119.857422"/>
      <use xlink:href="#DejaVuSans-79" x="1159.066406"/>
     </g>
    </g>
   </g>
   <g id="PolyCollection_7">
    <defs>
     <path id="mef06316ba6" d="M 145.594545 -292.095878 
L 145.594545 -272.352558 
L 185.716909 -265.490791 
L 225.839273 -246.341466 
L 265.961636 -224.354311 
L 306.084 -220.425722 
L 346.206364 -214.434321 
L 386.328727 -210.466782 
L 426.451091 -205.566997 
L 466.573455 -205.674907 
L 506.695818 -199.953238 
L 506.695818 -241.329615 
L 506.695818 -241.329615 
L 466.573455 -247.319424 
L 426.451091 -251.715109 
L 386.328727 -258.293127 
L 346.206364 -257.865734 
L 306.084 -265.236071 
L 265.961636 -263.233389 
L 225.839273 -267.981232 
L 185.716909 -279.900672 
L 145.594545 -292.095878 
z
" style="stroke: #008000; stroke-opacity: 0.2; stroke-width: 0.8"/>
    </defs>
    <g clip-path="url(#p655aba144a)">
     <use xlink:href="#mef06316ba6" x="0" y="720" style="fill: #008000; fill-opacity: 0.2; stroke: #008000; stroke-opacity: 0.2; stroke-width: 0.8"/>
    </g>
   </g>
   <g id="PolyCollection_8">
    <defs>
     <path id="m351ef5dc25" d="M 145.594545 -246.696049 
L 145.594545 -174.691234 
L 185.716909 -143.478777 
L 225.839273 -134.71701 
L 265.961636 -108.044987 
L 306.084 -99.116012 
L 346.206364 -95.709727 
L 386.328727 -83.880685 
L 426.451091 -76.597211 
L 466.573455 -75.580498 
L 506.695818 -75.741774 
L 506.695818 -103.195357 
L 506.695818 -103.195357 
L 466.573455 -98.314373 
L 426.451091 -100.93342 
L 386.328727 -119.311824 
L 346.206364 -119.049629 
L 306.084 -145.127871 
L 265.961636 -129.31065 
L 225.839273 -171.580119 
L 185.716909 -214.246487 
L 145.594545 -246.696049 
z
" style="stroke: #6786c6; stroke-opacity: 0.2; stroke-width: 0.8"/>
    </defs>
    <g clip-path="url(#p655aba144a)">
     <use xlink:href="#m351ef5dc25" x="0" y="720" style="fill: #6786c6; fill-opacity: 0.2; stroke: #6786c6; stroke-opacity: 0.2; stroke-width: 0.8"/>
    </g>
   </g>
   <g id="PolyCollection_9">
    <defs>
     <path id="m1f276a708d" d="M 145.594545 -294.930761 
L 145.594545 -272.77112 
L 185.716909 -263.318391 
L 225.839273 -234.078529 
L 265.961636 -202.187194 
L 306.084 -190.167397 
L 346.206364 -177.7417 
L 386.328727 -157.463065 
L 426.451091 -149.323185 
L 466.573455 -142.668758 
L 506.695818 -128.041937 
L 506.695818 -194.666113 
L 506.695818 -194.666113 
L 466.573455 -217.296252 
L 426.451091 -222.564402 
L 386.328727 -237.33 
L 346.206364 -240.771498 
L 306.084 -254.158539 
L 265.961636 -256.291078 
L 225.839273 -265.825492 
L 185.716909 -283.492798 
L 145.594545 -294.930761 
z
" style="stroke: #e19252; stroke-opacity: 0.2; stroke-width: 0.8"/>
    </defs>
    <g clip-path="url(#p655aba144a)">
     <use xlink:href="#m1f276a708d" x="0" y="720" style="fill: #e19252; fill-opacity: 0.2; stroke: #e19252; stroke-opacity: 0.2; stroke-width: 0.8"/>
    </g>
   </g>
   <g id="line2d_50">
    <path d="M 105.472182 400.466818 
L 145.594545 437.942709 
L 185.716909 446.915108 
L 225.839273 463.147382 
L 265.961636 475.610184 
L 306.084 477.438357 
L 346.206364 484.080028 
L 386.328727 486.178159 
L 426.451091 490.99198 
L 466.573455 493.418214 
L 506.695818 499.301222 
" clip-path="url(#p655aba144a)" style="fill: none; stroke: #008000; stroke-width: 1.2; stroke-linecap: round"/>
   </g>
   <g id="line2d_51">
    <path d="M 105.472182 400.466818 
L 145.594545 509.671175 
L 185.716909 545.101142 
L 225.839273 569.83344 
L 265.961636 601.127167 
L 306.084 598.286318 
L 346.206364 612.76751 
L 386.328727 618.940037 
L 426.451091 631.425458 
L 466.573455 633.924153 
L 506.695818 631.097916 
" clip-path="url(#p655aba144a)" style="fill: none; stroke: #6786c6; stroke-width: 1.2; stroke-linecap: round"/>
   </g>
   <g id="line2d_52">
    <path d="M 105.472182 400.466818 
L 145.594545 436.502877 
L 185.716909 446.312699 
L 225.839273 470.446983 
L 265.961636 491.389578 
L 306.084 497.722464 
L 346.206364 511.178993 
L 386.328727 519.877019 
L 426.451091 532.196964 
L 466.573455 540.462891 
L 506.695818 556.960905 
" clip-path="url(#p655aba144a)" style="fill: none; stroke: #e19252; stroke-width: 1.2; stroke-linecap: round"/>
   </g>
   <g id="line2d_53"/>
   <g id="line2d_54"/>
   <g id="line2d_55"/>
   <g id="patch_13">
    <path d="M 85.411 649.964 
L 85.411 388.586 
" style="fill: none; stroke: #cccccc; stroke-linejoin: miter; stroke-linecap: square"/>
   </g>
   <g id="patch_14">
    <path d="M 526.757 649.964 
L 526.757 388.586 
" style="fill: none; stroke: #cccccc; stroke-linejoin: miter; stroke-linecap: square"/>
   </g>
   <g id="patch_15">
    <path d="M 85.411 649.964 
L 526.757 649.964 
" style="fill: none; stroke: #cccccc; stroke-linejoin: miter; stroke-linecap: square"/>
   </g>
   <g id="patch_16">
    <path d="M 85.411 388.586 
L 526.757 388.586 
" style="fill: none; stroke: #cccccc; stroke-linejoin: miter; stroke-linecap: square"/>
   </g>
   <g id="text_34">
    <!-- c -->
    <g style="fill: #262626" transform="translate(85.411 384.593)scale(0.192 -0.192)">
     <defs>
      <path id="DejaVuSans-Bold-63" d="M 3366 3391 
L 3366 2478 
Q 3138 2634 2908 2709 
Q 2678 2784 2431 2784 
Q 1963 2784 1702 2511 
Q 1441 2238 1441 1747 
Q 1441 1256 1702 982 
Q 1963 709 2431 709 
Q 2694 709 2930 787 
Q 3166 866 3366 1019 
L 3366 103 
Q 3103 6 2833 -42 
Q 2563 -91 2291 -91 
Q 1344 -91 809 395 
Q 275 881 275 1747 
Q 275 2613 809 3098 
Q 1344 3584 2291 3584 
Q 2566 3584 2833 3536 
Q 3100 3488 3366 3391 
z
" transform="scale(0.015625)"/>
     </defs>
     <use xlink:href="#DejaVuSans-Bold-63"/>
    </g>
   </g>
   <g id="text_35">
    <!-- Dim. 2 -->
    <g style="fill: #262626" transform="translate(274.464 382.586)scale(0.192 -0.192)">
     <use xlink:href="#DejaVuSans-44"/>
     <use xlink:href="#DejaVuSans-69" x="77.001953"/>
     <use xlink:href="#DejaVuSans-6d" x="104.785156"/>
     <use xlink:href="#DejaVuSans-2e" x="202.197266"/>
     <use xlink:href="#DejaVuSans-20" x="233.984375"/>
     <use xlink:href="#DejaVuSans-32" x="265.771484"/>
    </g>
   </g>
  </g>
  <g id="axes_4">
   <g id="patch_17">
    <path d="M 617.918 649.964 
L 1059.264 649.964 
L 1059.264 388.586 
L 617.918 388.586 
z
" style="fill: #ffffff"/>
   </g>
   <g id="matplotlib.axis_7">
    <g id="xtick_19">
     <g id="line2d_56">
      <path d="M 637.979182 649.964 
L 637.979182 388.586 
" clip-path="url(#pba1f795b89)" style="fill: none; stroke: #cccccc; stroke-width: 0.8; stroke-linecap: round"/>
     </g>
     <g id="text_36">
      <!-- 0 -->
      <g style="fill: #262626" transform="translate(632.380182 671.63725)scale(0.176 -0.176)">
       <use xlink:href="#DejaVuSans-30"/>
      </g>
     </g>
    </g>
    <g id="xtick_20">
     <g id="line2d_57">
      <path d="M 718.223909 649.964 
L 718.223909 388.586 
" clip-path="url(#pba1f795b89)" style="fill: none; stroke: #cccccc; stroke-width: 0.8; stroke-linecap: round"/>
     </g>
     <g id="text_37">
      <!-- 2 -->
      <g style="fill: #262626" transform="translate(712.624909 671.63725)scale(0.176 -0.176)">
       <use xlink:href="#DejaVuSans-32"/>
      </g>
     </g>
    </g>
    <g id="xtick_21">
     <g id="line2d_58">
      <path d="M 798.468636 649.964 
L 798.468636 388.586 
" clip-path="url(#pba1f795b89)" style="fill: none; stroke: #cccccc; stroke-width: 0.8; stroke-linecap: round"/>
     </g>
     <g id="text_38">
      <!-- 4 -->
      <g style="fill: #262626" transform="translate(792.869636 671.63725)scale(0.176 -0.176)">
       <use xlink:href="#DejaVuSans-34"/>
      </g>
     </g>
    </g>
    <g id="xtick_22">
     <g id="line2d_59">
      <path d="M 878.713364 649.964 
L 878.713364 388.586 
" clip-path="url(#pba1f795b89)" style="fill: none; stroke: #cccccc; stroke-width: 0.8; stroke-linecap: round"/>
     </g>
     <g id="text_39">
      <!-- 6 -->
      <g style="fill: #262626" transform="translate(873.114364 671.63725)scale(0.176 -0.176)">
       <use xlink:href="#DejaVuSans-36"/>
      </g>
     </g>
    </g>
    <g id="xtick_23">
     <g id="line2d_60">
      <path d="M 958.958091 649.964 
L 958.958091 388.586 
" clip-path="url(#pba1f795b89)" style="fill: none; stroke: #cccccc; stroke-width: 0.8; stroke-linecap: round"/>
     </g>
     <g id="text_40">
      <!-- 8 -->
      <g style="fill: #262626" transform="translate(953.359091 671.63725)scale(0.176 -0.176)">
       <use xlink:href="#DejaVuSans-38"/>
      </g>
     </g>
    </g>
    <g id="xtick_24">
     <g id="line2d_61">
      <path d="M 1039.202818 649.964 
L 1039.202818 388.586 
" clip-path="url(#pba1f795b89)" style="fill: none; stroke: #cccccc; stroke-width: 0.8; stroke-linecap: round"/>
     </g>
     <g id="text_41">
      <!-- 10 -->
      <g style="fill: #262626" transform="translate(1028.004818 671.63725)scale(0.176 -0.176)">
       <use xlink:href="#DejaVuSans-31"/>
       <use xlink:href="#DejaVuSans-30" x="63.623047"/>
      </g>
     </g>
    </g>
    <g id="text_42">
     <!-- iteration -->
     <g style="fill: #262626" transform="translate(798.0355 693.8865)scale(0.192 -0.192)">
      <use xlink:href="#DejaVuSans-69"/>
      <use xlink:href="#DejaVuSans-74" x="27.783203"/>
      <use xlink:href="#DejaVuSans-65" x="66.992188"/>
      <use xlink:href="#DejaVuSans-72" x="128.515625"/>
      <use xlink:href="#DejaVuSans-61" x="169.628906"/>
      <use xlink:href="#DejaVuSans-74" x="230.908203"/>
      <use xlink:href="#DejaVuSans-69" x="270.117188"/>
      <use xlink:href="#DejaVuSans-6f" x="297.900391"/>
      <use xlink:href="#DejaVuSans-6e" x="359.082031"/>
     </g>
    </g>
   </g>
   <g id="matplotlib.axis_8">
    <g id="ytick_20">
     <g id="line2d_62">
      <path d="M 617.918 614.246652 
L 1059.264 614.246652 
" clip-path="url(#pba1f795b89)" style="fill: none; stroke: #cccccc; stroke-width: 0.8; stroke-linecap: round"/>
     </g>
     <g id="text_43">
      <!-- 0.25 -->
      <g style="fill: #262626" transform="translate(570.4305 620.933277)scale(0.176 -0.176)">
       <use xlink:href="#DejaVuSans-30"/>
       <use xlink:href="#DejaVuSans-2e" x="63.623047"/>
       <use xlink:href="#DejaVuSans-32" x="95.410156"/>
       <use xlink:href="#DejaVuSans-35" x="159.033203"/>
      </g>
     </g>
    </g>
    <g id="ytick_21">
     <g id="line2d_63">
      <path d="M 617.918 569.12499 
L 1059.264 569.12499 
" clip-path="url(#pba1f795b89)" style="fill: none; stroke: #cccccc; stroke-width: 0.8; stroke-linecap: round"/>
     </g>
     <g id="text_44">
      <!-- 0.50 -->
      <g style="fill: #262626" transform="translate(570.4305 575.811615)scale(0.176 -0.176)">
       <use xlink:href="#DejaVuSans-30"/>
       <use xlink:href="#DejaVuSans-2e" x="63.623047"/>
       <use xlink:href="#DejaVuSans-35" x="95.410156"/>
       <use xlink:href="#DejaVuSans-30" x="159.033203"/>
      </g>
     </g>
    </g>
    <g id="ytick_22">
     <g id="line2d_64">
      <path d="M 617.918 524.003328 
L 1059.264 524.003328 
" clip-path="url(#pba1f795b89)" style="fill: none; stroke: #cccccc; stroke-width: 0.8; stroke-linecap: round"/>
     </g>
     <g id="text_45">
      <!-- 0.75 -->
      <g style="fill: #262626" transform="translate(570.4305 530.689953)scale(0.176 -0.176)">
       <use xlink:href="#DejaVuSans-30"/>
       <use xlink:href="#DejaVuSans-2e" x="63.623047"/>
       <use xlink:href="#DejaVuSans-37" x="95.410156"/>
       <use xlink:href="#DejaVuSans-35" x="159.033203"/>
      </g>
     </g>
    </g>
    <g id="ytick_23">
     <g id="line2d_65">
      <path d="M 617.918 478.881667 
L 1059.264 478.881667 
" clip-path="url(#pba1f795b89)" style="fill: none; stroke: #cccccc; stroke-width: 0.8; stroke-linecap: round"/>
     </g>
     <g id="text_46">
      <!-- 1.00 -->
      <g style="fill: #262626" transform="translate(570.4305 485.568292)scale(0.176 -0.176)">
       <use xlink:href="#DejaVuSans-31"/>
       <use xlink:href="#DejaVuSans-2e" x="63.623047"/>
       <use xlink:href="#DejaVuSans-30" x="95.410156"/>
       <use xlink:href="#DejaVuSans-30" x="159.033203"/>
      </g>
     </g>
    </g>
    <g id="ytick_24">
     <g id="line2d_66">
      <path d="M 617.918 433.760005 
L 1059.264 433.760005 
" clip-path="url(#pba1f795b89)" style="fill: none; stroke: #cccccc; stroke-width: 0.8; stroke-linecap: round"/>
     </g>
     <g id="text_47">
      <!-- 1.25 -->
      <g style="fill: #262626" transform="translate(570.4305 440.44663)scale(0.176 -0.176)">
       <use xlink:href="#DejaVuSans-31"/>
       <use xlink:href="#DejaVuSans-2e" x="63.623047"/>
       <use xlink:href="#DejaVuSans-32" x="95.410156"/>
       <use xlink:href="#DejaVuSans-35" x="159.033203"/>
      </g>
     </g>
    </g>
    <g id="ytick_25">
     <g id="line2d_67">
      <path d="M 617.918 388.638343 
L 1059.264 388.638343 
" clip-path="url(#pba1f795b89)" style="fill: none; stroke: #cccccc; stroke-width: 0.8; stroke-linecap: round"/>
     </g>
     <g id="text_48">
      <!-- 1.50 -->
      <g style="fill: #262626" transform="translate(570.4305 395.324968)scale(0.176 -0.176)">
       <use xlink:href="#DejaVuSans-31"/>
       <use xlink:href="#DejaVuSans-2e" x="63.623047"/>
       <use xlink:href="#DejaVuSans-35" x="95.410156"/>
       <use xlink:href="#DejaVuSans-30" x="159.033203"/>
      </g>
     </g>
    </g>
    <g id="text_49">
     <!-- Standard deviation -->
     <g style="fill: #262626" transform="translate(562.4375 610.6235)rotate(-90)scale(0.192 -0.192)">
      <use xlink:href="#DejaVuSans-53"/>
      <use xlink:href="#DejaVuSans-74" x="63.476562"/>
      <use xlink:href="#DejaVuSans-61" x="102.685547"/>
      <use xlink:href="#DejaVuSans-6e" x="163.964844"/>
      <use xlink:href="#DejaVuSans-64" x="227.34375"/>
      <use xlink:href="#DejaVuSans-61" x="290.820312"/>
      <use xlink:href="#DejaVuSans-72" x="352.099609"/>
      <use xlink:href="#DejaVuSans-64" x="391.462891"/>
      <use xlink:href="#DejaVuSans-20" x="454.939453"/>
      <use xlink:href="#DejaVuSans-64" x="486.726562"/>
      <use xlink:href="#DejaVuSans-65" x="550.203125"/>
      <use xlink:href="#DejaVuSans-76" x="611.726562"/>
      <use xlink:href="#DejaVuSans-69" x="670.90625"/>
      <use xlink:href="#DejaVuSans-61" x="698.689453"/>
      <use xlink:href="#DejaVuSans-74" x="759.96875"/>
      <use xlink:href="#DejaVuSans-69" x="799.177734"/>
      <use xlink:href="#DejaVuSans-6f" x="826.960938"/>
      <use xlink:href="#DejaVuSans-6e" x="888.142578"/>
     </g>
    </g>
   </g>
   <g id="PolyCollection_10">
    <defs>
     <path id="m835bf1f5b2" d="M 678.101545 -210.120964 
L 678.101545 -202.344943 
L 718.223909 -199.6857 
L 758.346273 -191.485835 
L 798.468636 -182.590902 
L 838.591 -181.252532 
L 878.713364 -178.507159 
L 918.835727 -176.312196 
L 958.958091 -174.85726 
L 999.080455 -174.011883 
L 1039.202818 -172.291053 
L 1039.202818 -189.082366 
L 1039.202818 -189.082366 
L 999.080455 -192.330539 
L 958.958091 -194.472754 
L 918.835727 -196.21188 
L 878.713364 -196.289831 
L 838.591 -199.054159 
L 798.468636 -198.570887 
L 758.346273 -200.824466 
L 718.223909 -205.558882 
L 678.101545 -210.120964 
z
" style="stroke: #008000; stroke-opacity: 0.2; stroke-width: 0.8"/>
    </defs>
    <g clip-path="url(#pba1f795b89)">
     <use xlink:href="#m835bf1f5b2" x="0" y="720" style="fill: #008000; fill-opacity: 0.2; stroke: #008000; stroke-opacity: 0.2; stroke-width: 0.8"/>
    </g>
   </g>
   <g id="PolyCollection_11">
    <defs>
     <path id="m365687dbcd" d="M 678.101545 -106.198202 
L 678.101545 -95.908569 
L 718.223909 -91.118991 
L 758.346273 -90.140891 
L 798.468636 -86.300871 
L 838.591 -85.055032 
L 878.713364 -84.670354 
L 918.835727 -82.95792 
L 958.958091 -82.144609 
L 999.080455 -81.916818 
L 1039.202818 -81.932146 
L 1039.202818 -85.628767 
L 1039.202818 -85.628767 
L 999.080455 -85.014469 
L 958.958091 -85.492788 
L 918.835727 -88.227327 
L 878.713364 -88.075287 
L 838.591 -91.80853 
L 798.468636 -89.447228 
L 758.346273 -95.276698 
L 718.223909 -101.216808 
L 678.101545 -106.198202 
z
" style="stroke: #6786c6; stroke-opacity: 0.2; stroke-width: 0.8"/>
    </defs>
    <g clip-path="url(#pba1f795b89)">
     <use xlink:href="#m365687dbcd" x="0" y="720" style="fill: #6786c6; fill-opacity: 0.2; stroke: #6786c6; stroke-opacity: 0.2; stroke-width: 0.8"/>
    </g>
   </g>
   <g id="PolyCollection_12">
    <defs>
     <path id="m9ff284b98e" d="M 678.101545 -302.75589 
L 678.101545 -289.577434 
L 718.223909 -283.158417 
L 758.346273 -263.817214 
L 798.468636 -243.250562 
L 838.591 -235.2294 
L 878.713364 -226.570638 
L 918.835727 -215.390223 
L 958.958091 -207.761723 
L 999.080455 -201.509448 
L 1039.202818 -194.167989 
L 1039.202818 -239.863559 
L 1039.202818 -239.863559 
L 999.080455 -251.001859 
L 958.958091 -256.630679 
L 918.835727 -266.018164 
L 878.713364 -267.790282 
L 838.591 -277.444253 
L 798.468636 -278.144722 
L 758.346273 -285.744746 
L 718.223909 -296.448375 
L 678.101545 -302.75589 
z
" style="stroke: #e19252; stroke-opacity: 0.2; stroke-width: 0.8"/>
    </defs>
    <g clip-path="url(#pba1f795b89)">
     <use xlink:href="#m9ff284b98e" x="0" y="720" style="fill: #e19252; fill-opacity: 0.2; stroke: #e19252; stroke-opacity: 0.2; stroke-width: 0.8"/>
    </g>
   </g>
   <g id="line2d_68">
    <path d="M 637.979182 498.510579 
L 678.101545 513.732478 
L 718.223909 517.376873 
L 758.346273 523.970072 
L 798.468636 529.032193 
L 838.591 529.774758 
L 878.713364 532.472461 
L 918.835727 533.324677 
L 958.958091 535.279947 
L 999.080455 536.265431 
L 1039.202818 538.654982 
" clip-path="url(#pba1f795b89)" style="fill: none; stroke: #008000; stroke-width: 1.2; stroke-linecap: round"/>
   </g>
   <g id="line2d_69">
    <path d="M 637.979182 603.945367 
L 678.101545 619.228222 
L 718.223909 624.18655 
L 758.346273 627.647768 
L 798.468636 632.027241 
L 838.591 631.629672 
L 878.713364 633.656275 
L 918.835727 634.520104 
L 958.958091 636.267405 
L 999.080455 636.61709 
L 1039.202818 636.221566 
" clip-path="url(#pba1f795b89)" style="fill: none; stroke: #6786c6; stroke-width: 1.2; stroke-linecap: round"/>
   </g>
   <g id="line2d_70">
    <path d="M 637.979182 400.466818 
L 678.101545 424.02527 
L 718.223909 430.438408 
L 758.346273 446.216115 
L 798.468636 459.907266 
L 838.591 464.047369 
L 878.713364 472.84453 
L 918.835727 478.530835 
L 958.958091 486.584957 
L 999.080455 491.98878 
L 1039.202818 502.7743 
" clip-path="url(#pba1f795b89)" style="fill: none; stroke: #e19252; stroke-width: 1.2; stroke-linecap: round"/>
   </g>
   <g id="line2d_71"/>
   <g id="line2d_72"/>
   <g id="line2d_73"/>
   <g id="patch_18">
    <path d="M 617.918 649.964 
L 617.918 388.586 
" style="fill: none; stroke: #cccccc; stroke-linejoin: miter; stroke-linecap: square"/>
   </g>
   <g id="patch_19">
    <path d="M 1059.264 649.964 
L 1059.264 388.586 
" style="fill: none; stroke: #cccccc; stroke-linejoin: miter; stroke-linecap: square"/>
   </g>
   <g id="patch_20">
    <path d="M 617.918 649.964 
L 1059.264 649.964 
" style="fill: none; stroke: #cccccc; stroke-linejoin: miter; stroke-linecap: square"/>
   </g>
   <g id="patch_21">
    <path d="M 617.918 388.586 
L 1059.264 388.586 
" style="fill: none; stroke: #cccccc; stroke-linejoin: miter; stroke-linecap: square"/>
   </g>
   <g id="text_50">
    <!-- d -->
    <g style="fill: #262626" transform="translate(617.918 384.593)scale(0.192 -0.192)">
     <defs>
      <path id="DejaVuSans-Bold-64" d="M 2919 2988 
L 2919 4863 
L 4044 4863 
L 4044 0 
L 2919 0 
L 2919 506 
Q 2688 197 2409 53 
Q 2131 -91 1766 -91 
Q 1119 -91 703 423 
Q 288 938 288 1747 
Q 288 2556 703 3070 
Q 1119 3584 1766 3584 
Q 2128 3584 2408 3439 
Q 2688 3294 2919 2988 
z
M 2181 722 
Q 2541 722 2730 984 
Q 2919 1247 2919 1747 
Q 2919 2247 2730 2509 
Q 2541 2772 2181 2772 
Q 1825 2772 1636 2509 
Q 1447 2247 1447 1747 
Q 1447 1247 1636 984 
Q 1825 722 2181 722 
z
" transform="scale(0.015625)"/>
     </defs>
     <use xlink:href="#DejaVuSans-Bold-64"/>
    </g>
   </g>
   <g id="text_51">
    <!-- Dim. 2 -->
    <g style="fill: #262626" transform="translate(806.971 382.586)scale(0.192 -0.192)">
     <use xlink:href="#DejaVuSans-44"/>
     <use xlink:href="#DejaVuSans-69" x="77.001953"/>
     <use xlink:href="#DejaVuSans-6d" x="104.785156"/>
     <use xlink:href="#DejaVuSans-2e" x="202.197266"/>
     <use xlink:href="#DejaVuSans-20" x="233.984375"/>
     <use xlink:href="#DejaVuSans-32" x="265.771484"/>
    </g>
   </g>
  </g>
  <g id="text_52">
   <!-- Variability conservation across avatarization iterations -->
   <g style="fill: #262626" transform="translate(226.3986 31.9068)scale(0.2304 -0.2304)">
    <defs>
     <path id="DejaVuSans-56" d="M 1831 0 
L 50 4666 
L 709 4666 
L 2188 738 
L 3669 4666 
L 4325 4666 
L 2547 0 
L 1831 0 
z
" transform="scale(0.015625)"/>
     <path id="DejaVuSans-73" d="M 2834 3397 
L 2834 2853 
Q 2591 2978 2328 3040 
Q 2066 3103 1784 3103 
Q 1356 3103 1142 2972 
Q 928 2841 928 2578 
Q 928 2378 1081 2264 
Q 1234 2150 1697 2047 
L 1894 2003 
Q 2506 1872 2764 1633 
Q 3022 1394 3022 966 
Q 3022 478 2636 193 
Q 2250 -91 1575 -91 
Q 1294 -91 989 -36 
Q 684 19 347 128 
L 347 722 
Q 666 556 975 473 
Q 1284 391 1588 391 
Q 1994 391 2212 530 
Q 2431 669 2431 922 
Q 2431 1156 2273 1281 
Q 2116 1406 1581 1522 
L 1381 1569 
Q 847 1681 609 1914 
Q 372 2147 372 2553 
Q 372 3047 722 3315 
Q 1072 3584 1716 3584 
Q 2034 3584 2315 3537 
Q 2597 3491 2834 3397 
z
" transform="scale(0.015625)"/>
     <path id="DejaVuSans-7a" d="M 353 3500 
L 3084 3500 
L 3084 2975 
L 922 459 
L 3084 459 
L 3084 0 
L 275 0 
L 275 525 
L 2438 3041 
L 353 3041 
L 353 3500 
z
" transform="scale(0.015625)"/>
    </defs>
    <use xlink:href="#DejaVuSans-56"/>
    <use xlink:href="#DejaVuSans-61" x="60.658203"/>
    <use xlink:href="#DejaVuSans-72" x="121.9375"/>
    <use xlink:href="#DejaVuSans-69" x="163.050781"/>
    <use xlink:href="#DejaVuSans-61" x="190.833984"/>
    <use xlink:href="#DejaVuSans-62" x="252.113281"/>
    <use xlink:href="#DejaVuSans-69" x="315.589844"/>
    <use xlink:href="#DejaVuSans-6c" x="343.373047"/>
    <use xlink:href="#DejaVuSans-69" x="371.15625"/>
    <use xlink:href="#DejaVuSans-74" x="398.939453"/>
    <use xlink:href="#DejaVuSans-79" x="438.148438"/>
    <use xlink:href="#DejaVuSans-20" x="497.328125"/>
    <use xlink:href="#DejaVuSans-63" x="529.115234"/>
    <use xlink:href="#DejaVuSans-6f" x="584.095703"/>
    <use xlink:href="#DejaVuSans-6e" x="645.277344"/>
    <use xlink:href="#DejaVuSans-73" x="708.65625"/>
    <use xlink:href="#DejaVuSans-65" x="760.755859"/>
    <use xlink:href="#DejaVuSans-72" x="822.279297"/>
    <use xlink:href="#DejaVuSans-76" x="863.392578"/>
    <use xlink:href="#DejaVuSans-61" x="922.572266"/>
    <use xlink:href="#DejaVuSans-74" x="983.851562"/>
    <use xlink:href="#DejaVuSans-69" x="1023.060547"/>
    <use xlink:href="#DejaVuSans-6f" x="1050.84375"/>
    <use xlink:href="#DejaVuSans-6e" x="1112.025391"/>
    <use xlink:href="#DejaVuSans-20" x="1175.404297"/>
    <use xlink:href="#DejaVuSans-61" x="1207.191406"/>
    <use xlink:href="#DejaVuSans-63" x="1268.470703"/>
    <use xlink:href="#DejaVuSans-72" x="1323.451172"/>
    <use xlink:href="#DejaVuSans-6f" x="1362.314453"/>
    <use xlink:href="#DejaVuSans-73" x="1423.496094"/>
    <use xlink:href="#DejaVuSans-73" x="1475.595703"/>
    <use xlink:href="#DejaVuSans-20" x="1527.695312"/>
    <use xlink:href="#DejaVuSans-61" x="1559.482422"/>
    <use xlink:href="#DejaVuSans-76" x="1620.761719"/>
    <use xlink:href="#DejaVuSans-61" x="1679.941406"/>
    <use xlink:href="#DejaVuSans-74" x="1741.220703"/>
    <use xlink:href="#DejaVuSans-61" x="1780.429688"/>
    <use xlink:href="#DejaVuSans-72" x="1841.708984"/>
    <use xlink:href="#DejaVuSans-69" x="1882.822266"/>
    <use xlink:href="#DejaVuSans-7a" x="1910.605469"/>
    <use xlink:href="#DejaVuSans-61" x="1963.095703"/>
    <use xlink:href="#DejaVuSans-74" x="2024.375"/>
    <use xlink:href="#DejaVuSans-69" x="2063.583984"/>
    <use xlink:href="#DejaVuSans-6f" x="2091.367188"/>
    <use xlink:href="#DejaVuSans-6e" x="2152.548828"/>
    <use xlink:href="#DejaVuSans-20" x="2215.927734"/>
    <use xlink:href="#DejaVuSans-69" x="2247.714844"/>
    <use xlink:href="#DejaVuSans-74" x="2275.498047"/>
    <use xlink:href="#DejaVuSans-65" x="2314.707031"/>
    <use xlink:href="#DejaVuSans-72" x="2376.230469"/>
    <use xlink:href="#DejaVuSans-61" x="2417.34375"/>
    <use xlink:href="#DejaVuSans-74" x="2478.623047"/>
    <use xlink:href="#DejaVuSans-69" x="2517.832031"/>
    <use xlink:href="#DejaVuSans-6f" x="2545.615234"/>
    <use xlink:href="#DejaVuSans-6e" x="2606.796875"/>
    <use xlink:href="#DejaVuSans-73" x="2670.175781"/>
   </g>
  </g>
  <g id="legend_1">
   <g id="patch_22">
    <path d="M 947.8 77.76 
L 1061.738125 77.76 
Q 1064.538125 77.76 1064.538125 74.96 
L 1064.538125 14.711875 
Q 1064.538125 11.911875 1061.738125 11.911875 
L 947.8 11.911875 
Q 945 11.911875 945 14.711875 
L 945 74.96 
Q 945 77.76 947.8 77.76 
z
" style="fill: #ffffff; opacity: 0.8; stroke: #cccccc; stroke-width: 0.8; stroke-linejoin: miter"/>
   </g>
   <g id="line2d_74">
    <path d="M 950.6 23.249688 
L 964.6 23.249688 
L 978.6 23.249688 
" style="fill: none; stroke: #008000; stroke-width: 1.2; stroke-linecap: round"/>
   </g>
   <g id="text_53">
    <!-- all -->
    <g style="fill: #262626" transform="translate(989.8 28.149688)scale(0.14 -0.14)">
     <use xlink:href="#DejaVuSans-61"/>
     <use xlink:href="#DejaVuSans-6c" x="61.279297"/>
     <use xlink:href="#DejaVuSans-6c" x="89.0625"/>
    </g>
   </g>
   <g id="line2d_75">
    <path d="M 950.6 43.799063 
L 964.6 43.799063 
L 978.6 43.799063 
" style="fill: none; stroke: #6786c6; stroke-width: 1.2; stroke-linecap: round"/>
   </g>
   <g id="text_54">
    <!-- Benign -->
    <g style="fill: #262626" transform="translate(989.8 48.699063)scale(0.14 -0.14)">
     <defs>
      <path id="DejaVuSans-42" d="M 1259 2228 
L 1259 519 
L 2272 519 
Q 2781 519 3026 730 
Q 3272 941 3272 1375 
Q 3272 1813 3026 2020 
Q 2781 2228 2272 2228 
L 1259 2228 
z
M 1259 4147 
L 1259 2741 
L 2194 2741 
Q 2656 2741 2882 2914 
Q 3109 3088 3109 3444 
Q 3109 3797 2882 3972 
Q 2656 4147 2194 4147 
L 1259 4147 
z
M 628 4666 
L 2241 4666 
Q 2963 4666 3353 4366 
Q 3744 4066 3744 3513 
Q 3744 3084 3544 2831 
Q 3344 2578 2956 2516 
Q 3422 2416 3680 2098 
Q 3938 1781 3938 1306 
Q 3938 681 3513 340 
Q 3088 0 2303 0 
L 628 0 
L 628 4666 
z
" transform="scale(0.015625)"/>
     </defs>
     <use xlink:href="#DejaVuSans-42"/>
     <use xlink:href="#DejaVuSans-65" x="68.603516"/>
     <use xlink:href="#DejaVuSans-6e" x="130.126953"/>
     <use xlink:href="#DejaVuSans-69" x="193.505859"/>
     <use xlink:href="#DejaVuSans-67" x="221.289062"/>
     <use xlink:href="#DejaVuSans-6e" x="284.765625"/>
    </g>
   </g>
   <g id="line2d_76">
    <path d="M 950.6 64.348438 
L 964.6 64.348438 
L 978.6 64.348438 
" style="fill: none; stroke: #e19252; stroke-width: 1.2; stroke-linecap: round"/>
   </g>
   <g id="text_55">
    <!-- Malignant -->
    <g style="fill: #262626" transform="translate(989.8 69.248438)scale(0.14 -0.14)">
     <defs>
      <path id="DejaVuSans-4d" d="M 628 4666 
L 1569 4666 
L 2759 1491 
L 3956 4666 
L 4897 4666 
L 4897 0 
L 4281 0 
L 4281 4097 
L 3078 897 
L 2444 897 
L 1241 4097 
L 1241 0 
L 628 0 
L 628 4666 
z
" transform="scale(0.015625)"/>
     </defs>
     <use xlink:href="#DejaVuSans-4d"/>
     <use xlink:href="#DejaVuSans-61" x="86.279297"/>
     <use xlink:href="#DejaVuSans-6c" x="147.558594"/>
     <use xlink:href="#DejaVuSans-69" x="175.341797"/>
     <use xlink:href="#DejaVuSans-67" x="203.125"/>
     <use xlink:href="#DejaVuSans-6e" x="266.601562"/>
     <use xlink:href="#DejaVuSans-61" x="329.980469"/>
     <use xlink:href="#DejaVuSans-6e" x="391.259766"/>
     <use xlink:href="#DejaVuSans-74" x="454.638672"/>
    </g>
   </g>
  </g>
 </g>
 <defs>
  <clipPath id="p31c4a5ffa8">
   <rect x="85.411" y="85.472" width="441.346" height="261.378"/>
  </clipPath>
  <clipPath id="p5faae19836">
   <rect x="617.918" y="85.472" width="441.346" height="261.378"/>
  </clipPath>
  <clipPath id="p655aba144a">
   <rect x="85.411" y="388.586" width="441.346" height="261.378"/>
  </clipPath>
  <clipPath id="pba1f795b89">
   <rect x="617.918" y="388.586" width="441.346" height="261.378"/>
  </clipPath>
 </defs>
</svg>
