<?xml version="1.0" encoding="utf-8" standalone="no"?>
<!DOCTYPE svg PUBLIC "-//W3C//DTD SVG 1.1//EN"
  "http://www.w3.org/Graphics/SVG/1.1/DTD/svg11.dtd">
<svg xmlns:xlink="http://www.w3.org/1999/xlink" width="1080pt" height="720pt" viewBox="0 0 1080 720" xmlns="http://www.w3.org/2000/svg" version="1.1">
 <metadata>
  <rdf:RDF xmlns:dc="http://purl.org/dc/elements/1.1/" xmlns:cc="http://creativecommons.org/ns#" xmlns:rdf="http://www.w3.org/1999/02/22-rdf-syntax-ns#">
   <cc:Work>
    <dc:type rdf:resource="http://purl.org/dc/dcmitype/StillImage"/>
    <dc:date>2022-05-10T15:53:16.637180</dc:date>
    <dc:format>image/svg+xml</dc:format>
    <dc:creator>
     <cc:Agent>
      <dc:title>Matplotlib v3.5.2, https://matplotlib.org/</dc:title>
     </cc:Agent>
    </dc:creator>
   </cc:Work>
  </rdf:RDF>
 </metadata>
 <defs>
  <style type="text/css">*{stroke-linejoin: round; stroke-linecap: butt}</style>
 </defs>
 <g id="figure_1">
  <g id="patch_1">
   <path d="M 0 720 
L 1080 720 
L 1080 0 
L 0 0 
z
" style="fill: #ffffff"/>
  </g>
  <g id="axes_1">
   <g id="patch_2">
    <path d="M 85.411 346.85 
L 561.9695 346.85 
L 561.9695 85.472 
L 85.411 85.472 
z
" style="fill: #ffffff"/>
   </g>
   <g id="matplotlib.axis_1">
    <g id="xtick_1">
     <g id="line2d_1">
      <path d="M 107.07275 346.85 
L 107.07275 85.472 
" clip-path="url(#p9522422f75)" style="fill: none; stroke: #cccccc; stroke-width: 0.8; stroke-linecap: round"/>
     </g>
    </g>
    <g id="xtick_2">
     <g id="line2d_2">
      <path d="M 193.71975 346.85 
L 193.71975 85.472 
" clip-path="url(#p9522422f75)" style="fill: none; stroke: #cccccc; stroke-width: 0.8; stroke-linecap: round"/>
     </g>
    </g>
    <g id="xtick_3">
     <g id="line2d_3">
      <path d="M 280.36675 346.85 
L 280.36675 85.472 
" clip-path="url(#p9522422f75)" style="fill: none; stroke: #cccccc; stroke-width: 0.8; stroke-linecap: round"/>
     </g>
    </g>
    <g id="xtick_4">
     <g id="line2d_4">
      <path d="M 367.01375 346.85 
L 367.01375 85.472 
" clip-path="url(#p9522422f75)" style="fill: none; stroke: #cccccc; stroke-width: 0.8; stroke-linecap: round"/>
     </g>
    </g>
    <g id="xtick_5">
     <g id="line2d_5">
      <path d="M 453.66075 346.85 
L 453.66075 85.472 
" clip-path="url(#p9522422f75)" style="fill: none; stroke: #cccccc; stroke-width: 0.8; stroke-linecap: round"/>
     </g>
    </g>
    <g id="xtick_6">
     <g id="line2d_6">
      <path d="M 540.30775 346.85 
L 540.30775 85.472 
" clip-path="url(#p9522422f75)" style="fill: none; stroke: #cccccc; stroke-width: 0.8; stroke-linecap: round"/>
     </g>
    </g>
   </g>
   <g id="matplotlib.axis_2">
    <g id="ytick_1">
     <g id="line2d_7">
      <path d="M 85.411 334.969182 
L 561.9695 334.969182 
" clip-path="url(#p9522422f75)" style="fill: none; stroke: #cccccc; stroke-width: 0.8; stroke-linecap: round"/>
     </g>
     <g id="text_1">
      <!-- 40 -->
      <g style="fill: #262626" transform="translate(54.715 341.655807)scale(0.176 -0.176)">
       <defs>
        <path id="DejaVuSans-34" d="M 2419 4116 
L 825 1625 
L 2419 1625 
L 2419 4116 
z
M 2253 4666 
L 3047 4666 
L 3047 1625 
L 3713 1625 
L 3713 1100 
L 3047 1100 
L 3047 0 
L 2419 0 
L 2419 1100 
L 313 1100 
L 313 1709 
L 2253 4666 
z
" transform="scale(0.015625)"/>
        <path id="DejaVuSans-30" d="M 2034 4250 
Q 1547 4250 1301 3770 
Q 1056 3291 1056 2328 
Q 1056 1369 1301 889 
Q 1547 409 2034 409 
Q 2525 409 2770 889 
Q 3016 1369 3016 2328 
Q 3016 3291 2770 3770 
Q 2525 4250 2034 4250 
z
M 2034 4750 
Q 2819 4750 3233 4129 
Q 3647 3509 3647 2328 
Q 3647 1150 3233 529 
Q 2819 -91 2034 -91 
Q 1250 -91 836 529 
Q 422 1150 422 2328 
Q 422 3509 836 4129 
Q 1250 4750 2034 4750 
z
" transform="scale(0.015625)"/>
       </defs>
       <use xlink:href="#DejaVuSans-34"/>
       <use xlink:href="#DejaVuSans-30" x="63.623047"/>
      </g>
     </g>
    </g>
    <g id="ytick_2">
     <g id="line2d_8">
      <path d="M 85.411 295.366455 
L 561.9695 295.366455 
" clip-path="url(#p9522422f75)" style="fill: none; stroke: #cccccc; stroke-width: 0.8; stroke-linecap: round"/>
     </g>
     <g id="text_2">
      <!-- 50 -->
      <g style="fill: #262626" transform="translate(54.715 302.05308)scale(0.176 -0.176)">
       <defs>
        <path id="DejaVuSans-35" d="M 691 4666 
L 3169 4666 
L 3169 4134 
L 1269 4134 
L 1269 2991 
Q 1406 3038 1543 3061 
Q 1681 3084 1819 3084 
Q 2600 3084 3056 2656 
Q 3513 2228 3513 1497 
Q 3513 744 3044 326 
Q 2575 -91 1722 -91 
Q 1428 -91 1123 -41 
Q 819 9 494 109 
L 494 744 
Q 775 591 1075 516 
Q 1375 441 1709 441 
Q 2250 441 2565 725 
Q 2881 1009 2881 1497 
Q 2881 1984 2565 2268 
Q 2250 2553 1709 2553 
Q 1456 2553 1204 2497 
Q 953 2441 691 2322 
L 691 4666 
z
" transform="scale(0.015625)"/>
       </defs>
       <use xlink:href="#DejaVuSans-35"/>
       <use xlink:href="#DejaVuSans-30" x="63.623047"/>
      </g>
     </g>
    </g>
    <g id="ytick_3">
     <g id="line2d_9">
      <path d="M 85.411 255.763727 
L 561.9695 255.763727 
" clip-path="url(#p9522422f75)" style="fill: none; stroke: #cccccc; stroke-width: 0.8; stroke-linecap: round"/>
     </g>
     <g id="text_3">
      <!-- 60 -->
      <g style="fill: #262626" transform="translate(54.715 262.450352)scale(0.176 -0.176)">
       <defs>
        <path id="DejaVuSans-36" d="M 2113 2584 
Q 1688 2584 1439 2293 
Q 1191 2003 1191 1497 
Q 1191 994 1439 701 
Q 1688 409 2113 409 
Q 2538 409 2786 701 
Q 3034 994 3034 1497 
Q 3034 2003 2786 2293 
Q 2538 2584 2113 2584 
z
M 3366 4563 
L 3366 3988 
Q 3128 4100 2886 4159 
Q 2644 4219 2406 4219 
Q 1781 4219 1451 3797 
Q 1122 3375 1075 2522 
Q 1259 2794 1537 2939 
Q 1816 3084 2150 3084 
Q 2853 3084 3261 2657 
Q 3669 2231 3669 1497 
Q 3669 778 3244 343 
Q 2819 -91 2113 -91 
Q 1303 -91 875 529 
Q 447 1150 447 2328 
Q 447 3434 972 4092 
Q 1497 4750 2381 4750 
Q 2619 4750 2861 4703 
Q 3103 4656 3366 4563 
z
" transform="scale(0.015625)"/>
       </defs>
       <use xlink:href="#DejaVuSans-36"/>
       <use xlink:href="#DejaVuSans-30" x="63.623047"/>
      </g>
     </g>
    </g>
    <g id="ytick_4">
     <g id="line2d_10">
      <path d="M 85.411 216.161 
L 561.9695 216.161 
" clip-path="url(#p9522422f75)" style="fill: none; stroke: #cccccc; stroke-width: 0.8; stroke-linecap: round"/>
     </g>
     <g id="text_4">
      <!-- 70 -->
      <g style="fill: #262626" transform="translate(54.715 222.847625)scale(0.176 -0.176)">
       <defs>
        <path id="DejaVuSans-37" d="M 525 4666 
L 3525 4666 
L 3525 4397 
L 1831 0 
L 1172 0 
L 2766 4134 
L 525 4134 
L 525 4666 
z
" transform="scale(0.015625)"/>
       </defs>
       <use xlink:href="#DejaVuSans-37"/>
       <use xlink:href="#DejaVuSans-30" x="63.623047"/>
      </g>
     </g>
    </g>
    <g id="ytick_5">
     <g id="line2d_11">
      <path d="M 85.411 176.558273 
L 561.9695 176.558273 
" clip-path="url(#p9522422f75)" style="fill: none; stroke: #cccccc; stroke-width: 0.8; stroke-linecap: round"/>
     </g>
     <g id="text_5">
      <!-- 80 -->
      <g style="fill: #262626" transform="translate(54.715 183.244898)scale(0.176 -0.176)">
       <defs>
        <path id="DejaVuSans-38" d="M 2034 2216 
Q 1584 2216 1326 1975 
Q 1069 1734 1069 1313 
Q 1069 891 1326 650 
Q 1584 409 2034 409 
Q 2484 409 2743 651 
Q 3003 894 3003 1313 
Q 3003 1734 2745 1975 
Q 2488 2216 2034 2216 
z
M 1403 2484 
Q 997 2584 770 2862 
Q 544 3141 544 3541 
Q 544 4100 942 4425 
Q 1341 4750 2034 4750 
Q 2731 4750 3128 4425 
Q 3525 4100 3525 3541 
Q 3525 3141 3298 2862 
Q 3072 2584 2669 2484 
Q 3125 2378 3379 2068 
Q 3634 1759 3634 1313 
Q 3634 634 3220 271 
Q 2806 -91 2034 -91 
Q 1263 -91 848 271 
Q 434 634 434 1313 
Q 434 1759 690 2068 
Q 947 2378 1403 2484 
z
M 1172 3481 
Q 1172 3119 1398 2916 
Q 1625 2713 2034 2713 
Q 2441 2713 2670 2916 
Q 2900 3119 2900 3481 
Q 2900 3844 2670 4047 
Q 2441 4250 2034 4250 
Q 1625 4250 1398 4047 
Q 1172 3844 1172 3481 
z
" transform="scale(0.015625)"/>
       </defs>
       <use xlink:href="#DejaVuSans-38"/>
       <use xlink:href="#DejaVuSans-30" x="63.623047"/>
      </g>
     </g>
    </g>
    <g id="ytick_6">
     <g id="line2d_12">
      <path d="M 85.411 136.955545 
L 561.9695 136.955545 
" clip-path="url(#p9522422f75)" style="fill: none; stroke: #cccccc; stroke-width: 0.8; stroke-linecap: round"/>
     </g>
     <g id="text_6">
      <!-- 90 -->
      <g style="fill: #262626" transform="translate(54.715 143.64217)scale(0.176 -0.176)">
       <defs>
        <path id="DejaVuSans-39" d="M 703 97 
L 703 672 
Q 941 559 1184 500 
Q 1428 441 1663 441 
Q 2288 441 2617 861 
Q 2947 1281 2994 2138 
Q 2813 1869 2534 1725 
Q 2256 1581 1919 1581 
Q 1219 1581 811 2004 
Q 403 2428 403 3163 
Q 403 3881 828 4315 
Q 1253 4750 1959 4750 
Q 2769 4750 3195 4129 
Q 3622 3509 3622 2328 
Q 3622 1225 3098 567 
Q 2575 -91 1691 -91 
Q 1453 -91 1209 -44 
Q 966 3 703 97 
z
M 1959 2075 
Q 2384 2075 2632 2365 
Q 2881 2656 2881 3163 
Q 2881 3666 2632 3958 
Q 2384 4250 1959 4250 
Q 1534 4250 1286 3958 
Q 1038 3666 1038 3163 
Q 1038 2656 1286 2365 
Q 1534 2075 1959 2075 
z
" transform="scale(0.015625)"/>
       </defs>
       <use xlink:href="#DejaVuSans-39"/>
       <use xlink:href="#DejaVuSans-30" x="63.623047"/>
      </g>
     </g>
    </g>
    <g id="ytick_7">
     <g id="line2d_13">
      <path d="M 85.411 97.352818 
L 561.9695 97.352818 
" clip-path="url(#p9522422f75)" style="fill: none; stroke: #cccccc; stroke-width: 0.8; stroke-linecap: round"/>
     </g>
     <g id="text_7">
      <!-- 100 -->
      <g style="fill: #262626" transform="translate(43.517 104.039443)scale(0.176 -0.176)">
       <defs>
        <path id="DejaVuSans-31" d="M 794 531 
L 1825 531 
L 1825 4091 
L 703 3866 
L 703 4441 
L 1819 4666 
L 2450 4666 
L 2450 531 
L 3481 531 
L 3481 0 
L 794 0 
L 794 531 
z
" transform="scale(0.015625)"/>
       </defs>
       <use xlink:href="#DejaVuSans-31"/>
       <use xlink:href="#DejaVuSans-30" x="63.623047"/>
       <use xlink:href="#DejaVuSans-30" x="127.246094"/>
      </g>
     </g>
    </g>
    <g id="text_8">
     <!-- Percentage of variability -->
     <g style="fill: #262626" transform="translate(35.524 333.1145)rotate(-90)scale(0.192 -0.192)">
      <defs>
       <path id="DejaVuSans-50" d="M 1259 4147 
L 1259 2394 
L 2053 2394 
Q 2494 2394 2734 2622 
Q 2975 2850 2975 3272 
Q 2975 3691 2734 3919 
Q 2494 4147 2053 4147 
L 1259 4147 
z
M 628 4666 
L 2053 4666 
Q 2838 4666 3239 4311 
Q 3641 3956 3641 3272 
Q 3641 2581 3239 2228 
Q 2838 1875 2053 1875 
L 1259 1875 
L 1259 0 
L 628 0 
L 628 4666 
z
" transform="scale(0.015625)"/>
       <path id="DejaVuSans-65" d="M 3597 1894 
L 3597 1613 
L 953 1613 
Q 991 1019 1311 708 
Q 1631 397 2203 397 
Q 2534 397 2845 478 
Q 3156 559 3463 722 
L 3463 178 
Q 3153 47 2828 -22 
Q 2503 -91 2169 -91 
Q 1331 -91 842 396 
Q 353 884 353 1716 
Q 353 2575 817 3079 
Q 1281 3584 2069 3584 
Q 2775 3584 3186 3129 
Q 3597 2675 3597 1894 
z
M 3022 2063 
Q 3016 2534 2758 2815 
Q 2500 3097 2075 3097 
Q 1594 3097 1305 2825 
Q 1016 2553 972 2059 
L 3022 2063 
z
" transform="scale(0.015625)"/>
       <path id="DejaVuSans-72" d="M 2631 2963 
Q 2534 3019 2420 3045 
Q 2306 3072 2169 3072 
Q 1681 3072 1420 2755 
Q 1159 2438 1159 1844 
L 1159 0 
L 581 0 
L 581 3500 
L 1159 3500 
L 1159 2956 
Q 1341 3275 1631 3429 
Q 1922 3584 2338 3584 
Q 2397 3584 2469 3576 
Q 2541 3569 2628 3553 
L 2631 2963 
z
" transform="scale(0.015625)"/>
       <path id="DejaVuSans-63" d="M 3122 3366 
L 3122 2828 
Q 2878 2963 2633 3030 
Q 2388 3097 2138 3097 
Q 1578 3097 1268 2742 
Q 959 2388 959 1747 
Q 959 1106 1268 751 
Q 1578 397 2138 397 
Q 2388 397 2633 464 
Q 2878 531 3122 666 
L 3122 134 
Q 2881 22 2623 -34 
Q 2366 -91 2075 -91 
Q 1284 -91 818 406 
Q 353 903 353 1747 
Q 353 2603 823 3093 
Q 1294 3584 2113 3584 
Q 2378 3584 2631 3529 
Q 2884 3475 3122 3366 
z
" transform="scale(0.015625)"/>
       <path id="DejaVuSans-6e" d="M 3513 2113 
L 3513 0 
L 2938 0 
L 2938 2094 
Q 2938 2591 2744 2837 
Q 2550 3084 2163 3084 
Q 1697 3084 1428 2787 
Q 1159 2491 1159 1978 
L 1159 0 
L 581 0 
L 581 3500 
L 1159 3500 
L 1159 2956 
Q 1366 3272 1645 3428 
Q 1925 3584 2291 3584 
Q 2894 3584 3203 3211 
Q 3513 2838 3513 2113 
z
" transform="scale(0.015625)"/>
       <path id="DejaVuSans-74" d="M 1172 4494 
L 1172 3500 
L 2356 3500 
L 2356 3053 
L 1172 3053 
L 1172 1153 
Q 1172 725 1289 603 
Q 1406 481 1766 481 
L 2356 481 
L 2356 0 
L 1766 0 
Q 1100 0 847 248 
Q 594 497 594 1153 
L 594 3053 
L 172 3053 
L 172 3500 
L 594 3500 
L 594 4494 
L 1172 4494 
z
" transform="scale(0.015625)"/>
       <path id="DejaVuSans-61" d="M 2194 1759 
Q 1497 1759 1228 1600 
Q 959 1441 959 1056 
Q 959 750 1161 570 
Q 1363 391 1709 391 
Q 2188 391 2477 730 
Q 2766 1069 2766 1631 
L 2766 1759 
L 2194 1759 
z
M 3341 1997 
L 3341 0 
L 2766 0 
L 2766 531 
Q 2569 213 2275 61 
Q 1981 -91 1556 -91 
Q 1019 -91 701 211 
Q 384 513 384 1019 
Q 384 1609 779 1909 
Q 1175 2209 1959 2209 
L 2766 2209 
L 2766 2266 
Q 2766 2663 2505 2880 
Q 2244 3097 1772 3097 
Q 1472 3097 1187 3025 
Q 903 2953 641 2809 
L 641 3341 
Q 956 3463 1253 3523 
Q 1550 3584 1831 3584 
Q 2591 3584 2966 3190 
Q 3341 2797 3341 1997 
z
" transform="scale(0.015625)"/>
       <path id="DejaVuSans-67" d="M 2906 1791 
Q 2906 2416 2648 2759 
Q 2391 3103 1925 3103 
Q 1463 3103 1205 2759 
Q 947 2416 947 1791 
Q 947 1169 1205 825 
Q 1463 481 1925 481 
Q 2391 481 2648 825 
Q 2906 1169 2906 1791 
z
M 3481 434 
Q 3481 -459 3084 -895 
Q 2688 -1331 1869 -1331 
Q 1566 -1331 1297 -1286 
Q 1028 -1241 775 -1147 
L 775 -588 
Q 1028 -725 1275 -790 
Q 1522 -856 1778 -856 
Q 2344 -856 2625 -561 
Q 2906 -266 2906 331 
L 2906 616 
Q 2728 306 2450 153 
Q 2172 0 1784 0 
Q 1141 0 747 490 
Q 353 981 353 1791 
Q 353 2603 747 3093 
Q 1141 3584 1784 3584 
Q 2172 3584 2450 3431 
Q 2728 3278 2906 2969 
L 2906 3500 
L 3481 3500 
L 3481 434 
z
" transform="scale(0.015625)"/>
       <path id="DejaVuSans-20" transform="scale(0.015625)"/>
       <path id="DejaVuSans-6f" d="M 1959 3097 
Q 1497 3097 1228 2736 
Q 959 2375 959 1747 
Q 959 1119 1226 758 
Q 1494 397 1959 397 
Q 2419 397 2687 759 
Q 2956 1122 2956 1747 
Q 2956 2369 2687 2733 
Q 2419 3097 1959 3097 
z
M 1959 3584 
Q 2709 3584 3137 3096 
Q 3566 2609 3566 1747 
Q 3566 888 3137 398 
Q 2709 -91 1959 -91 
Q 1206 -91 779 398 
Q 353 888 353 1747 
Q 353 2609 779 3096 
Q 1206 3584 1959 3584 
z
" transform="scale(0.015625)"/>
       <path id="DejaVuSans-66" d="M 2375 4863 
L 2375 4384 
L 1825 4384 
Q 1516 4384 1395 4259 
Q 1275 4134 1275 3809 
L 1275 3500 
L 2222 3500 
L 2222 3053 
L 1275 3053 
L 1275 0 
L 697 0 
L 697 3053 
L 147 3053 
L 147 3500 
L 697 3500 
L 697 3744 
Q 697 4328 969 4595 
Q 1241 4863 1831 4863 
L 2375 4863 
z
" transform="scale(0.015625)"/>
       <path id="DejaVuSans-76" d="M 191 3500 
L 800 3500 
L 1894 563 
L 2988 3500 
L 3597 3500 
L 2284 0 
L 1503 0 
L 191 3500 
z
" transform="scale(0.015625)"/>
       <path id="DejaVuSans-69" d="M 603 3500 
L 1178 3500 
L 1178 0 
L 603 0 
L 603 3500 
z
M 603 4863 
L 1178 4863 
L 1178 4134 
L 603 4134 
L 603 4863 
z
" transform="scale(0.015625)"/>
       <path id="DejaVuSans-62" d="M 3116 1747 
Q 3116 2381 2855 2742 
Q 2594 3103 2138 3103 
Q 1681 3103 1420 2742 
Q 1159 2381 1159 1747 
Q 1159 1113 1420 752 
Q 1681 391 2138 391 
Q 2594 391 2855 752 
Q 3116 1113 3116 1747 
z
M 1159 2969 
Q 1341 3281 1617 3432 
Q 1894 3584 2278 3584 
Q 2916 3584 3314 3078 
Q 3713 2572 3713 1747 
Q 3713 922 3314 415 
Q 2916 -91 2278 -91 
Q 1894 -91 1617 61 
Q 1341 213 1159 525 
L 1159 0 
L 581 0 
L 581 4863 
L 1159 4863 
L 1159 2969 
z
" transform="scale(0.015625)"/>
       <path id="DejaVuSans-6c" d="M 603 4863 
L 1178 4863 
L 1178 0 
L 603 0 
L 603 4863 
z
" transform="scale(0.015625)"/>
       <path id="DejaVuSans-79" d="M 2059 -325 
Q 1816 -950 1584 -1140 
Q 1353 -1331 966 -1331 
L 506 -1331 
L 506 -850 
L 844 -850 
Q 1081 -850 1212 -737 
Q 1344 -625 1503 -206 
L 1606 56 
L 191 3500 
L 800 3500 
L 1894 763 
L 2988 3500 
L 3597 3500 
L 2059 -325 
z
" transform="scale(0.015625)"/>
      </defs>
      <use xlink:href="#DejaVuSans-50"/>
      <use xlink:href="#DejaVuSans-65" x="56.677734"/>
      <use xlink:href="#DejaVuSans-72" x="118.201172"/>
      <use xlink:href="#DejaVuSans-63" x="157.064453"/>
      <use xlink:href="#DejaVuSans-65" x="212.044922"/>
      <use xlink:href="#DejaVuSans-6e" x="273.568359"/>
      <use xlink:href="#DejaVuSans-74" x="336.947266"/>
      <use xlink:href="#DejaVuSans-61" x="376.15625"/>
      <use xlink:href="#DejaVuSans-67" x="437.435547"/>
      <use xlink:href="#DejaVuSans-65" x="500.912109"/>
      <use xlink:href="#DejaVuSans-20" x="562.435547"/>
      <use xlink:href="#DejaVuSans-6f" x="594.222656"/>
      <use xlink:href="#DejaVuSans-66" x="655.404297"/>
      <use xlink:href="#DejaVuSans-20" x="690.609375"/>
      <use xlink:href="#DejaVuSans-76" x="722.396484"/>
      <use xlink:href="#DejaVuSans-61" x="781.576172"/>
      <use xlink:href="#DejaVuSans-72" x="842.855469"/>
      <use xlink:href="#DejaVuSans-69" x="883.96875"/>
      <use xlink:href="#DejaVuSans-61" x="911.751953"/>
      <use xlink:href="#DejaVuSans-62" x="973.03125"/>
      <use xlink:href="#DejaVuSans-69" x="1036.507812"/>
      <use xlink:href="#DejaVuSans-6c" x="1064.291016"/>
      <use xlink:href="#DejaVuSans-69" x="1092.074219"/>
      <use xlink:href="#DejaVuSans-74" x="1119.857422"/>
      <use xlink:href="#DejaVuSans-79" x="1159.066406"/>
     </g>
    </g>
   </g>
   <g id="PolyCollection_1">
    <defs>
     <path id="m032f5c8638" d="M 150.39625 -623.781242 
L 150.39625 -620.473965 
L 193.71975 -621.165438 
L 237.04325 -618.314443 
L 280.36675 -617.062081 
L 323.69025 -616.575468 
L 367.01375 -614.675739 
L 410.33725 -615.488631 
L 453.66075 -616.07856 
L 496.98425 -617.060325 
L 540.30775 -617.538864 
L 540.30775 -626.606677 
L 540.30775 -626.606677 
L 496.98425 -626.502136 
L 453.66075 -625.510117 
L 410.33725 -623.81958 
L 367.01375 -623.553888 
L 323.69025 -626.605479 
L 280.36675 -624.992645 
L 237.04325 -623.598535 
L 193.71975 -625.206806 
L 150.39625 -623.781242 
z
" style="stroke: #008000; stroke-opacity: 0.2; stroke-width: 0.8"/>
    </defs>
    <g clip-path="url(#p9522422f75)">
     <use xlink:href="#m032f5c8638" x="0" y="720" style="fill: #008000; fill-opacity: 0.2; stroke: #008000; stroke-opacity: 0.2; stroke-width: 0.8"/>
    </g>
   </g>
   <g id="PolyCollection_2">
    <defs>
     <path id="m24bc28c106" d="M 150.39625 -628.37038 
L 150.39625 -594.849148 
L 193.71975 -571.698911 
L 237.04325 -554.971236 
L 280.36675 -529.047654 
L 323.69025 -515.298307 
L 367.01375 -495.476205 
L 410.33725 -475.961806 
L 453.66075 -457.608082 
L 496.98425 -454.837878 
L 540.30775 -442.676171 
L 540.30775 -500.053878 
L 540.30775 -500.053878 
L 496.98425 -511.600391 
L 453.66075 -523.440569 
L 410.33725 -542.848245 
L 367.01375 -550.151944 
L 323.69025 -573.78037 
L 280.36675 -582.519977 
L 237.04325 -610.712777 
L 193.71975 -626.65875 
L 150.39625 -628.37038 
z
" style="stroke: #6786c6; stroke-opacity: 0.2; stroke-width: 0.8"/>
    </defs>
    <g clip-path="url(#p9522422f75)">
     <use xlink:href="#m24bc28c106" x="0" y="720" style="fill: #6786c6; fill-opacity: 0.2; stroke: #6786c6; stroke-opacity: 0.2; stroke-width: 0.8"/>
    </g>
   </g>
   <g id="PolyCollection_3">
    <defs>
     <path id="m13e72aacb3" d="M 150.39625 -624.221629 
L 150.39625 -611.299854 
L 193.71975 -612.732726 
L 237.04325 -605.141404 
L 280.36675 -596.478122 
L 323.69025 -590.586853 
L 367.01375 -583.675903 
L 410.33725 -580.197963 
L 453.66075 -571.413584 
L 496.98425 -560.70619 
L 540.30775 -554.070944 
L 540.30775 -611.73364 
L 540.30775 -611.73364 
L 496.98425 -621.637735 
L 453.66075 -625.541733 
L 410.33725 -619.065583 
L 367.01375 -615.890138 
L 323.69025 -620.111092 
L 280.36675 -621.831377 
L 237.04325 -617.961565 
L 193.71975 -622.35465 
L 150.39625 -624.221629 
z
" style="stroke: #e19252; stroke-opacity: 0.2; stroke-width: 0.8"/>
    </defs>
    <g clip-path="url(#p9522422f75)">
     <use xlink:href="#m13e72aacb3" x="0" y="720" style="fill: #e19252; fill-opacity: 0.2; stroke: #e19252; stroke-opacity: 0.2; stroke-width: 0.8"/>
    </g>
   </g>
   <g id="line2d_14">
    <path d="M 107.07275 97.352818 
L 150.39625 98.054376 
L 193.71975 96.765922 
L 237.04325 98.967333 
L 280.36675 98.953674 
L 323.69025 98.48482 
L 367.01375 100.574455 
L 410.33725 99.913054 
L 453.66075 98.823643 
L 496.98425 97.950979 
L 540.30775 97.771257 
" clip-path="url(#p9522422f75)" style="fill: none; stroke: #008000; stroke-width: 1.2; stroke-linecap: round"/>
   </g>
   <g id="line2d_15">
    <path d="M 107.07275 97.352818 
L 150.39625 107.08571 
L 193.71975 119.740595 
L 237.04325 137.892111 
L 280.36675 164.998286 
L 323.69025 177.625116 
L 367.01375 200.235644 
L 410.33725 213.87497 
L 453.66075 233.113559 
L 496.98425 238.435521 
L 540.30775 249.029754 
" clip-path="url(#p9522422f75)" style="fill: none; stroke: #6786c6; stroke-width: 1.2; stroke-linecap: round"/>
   </g>
   <g id="line2d_16">
    <path d="M 107.07275 97.352818 
L 150.39625 102.304808 
L 193.71975 101.808027 
L 237.04325 108.527103 
L 280.36675 110.955442 
L 323.69025 113.671181 
L 367.01375 120.320892 
L 410.33725 120.146868 
L 453.66075 121.356905 
L 496.98425 128.881644 
L 540.30775 134.908277 
" clip-path="url(#p9522422f75)" style="fill: none; stroke: #e19252; stroke-width: 1.2; stroke-linecap: round"/>
   </g>
   <g id="line2d_17"/>
   <g id="line2d_18"/>
   <g id="line2d_19"/>
   <g id="patch_3">
    <path d="M 85.411 346.85 
L 85.411 85.472 
" style="fill: none; stroke: #cccccc; stroke-linejoin: miter; stroke-linecap: square"/>
   </g>
   <g id="patch_4">
    <path d="M 561.9695 346.85 
L 561.9695 85.472 
" style="fill: none; stroke: #cccccc; stroke-linejoin: miter; stroke-linecap: square"/>
   </g>
   <g id="patch_5">
    <path d="M 85.411 346.85 
L 561.9695 346.85 
" style="fill: none; stroke: #cccccc; stroke-linejoin: miter; stroke-linecap: square"/>
   </g>
   <g id="patch_6">
    <path d="M 85.411 85.472 
L 561.9695 85.472 
" style="fill: none; stroke: #cccccc; stroke-linejoin: miter; stroke-linecap: square"/>
   </g>
   <g id="text_9">
    <!-- a -->
    <g style="fill: #262626" transform="translate(85.411 81.479)scale(0.192 -0.192)">
     <defs>
      <path id="DejaVuSans-Bold-61" d="M 2106 1575 
Q 1756 1575 1579 1456 
Q 1403 1338 1403 1106 
Q 1403 894 1545 773 
Q 1688 653 1941 653 
Q 2256 653 2472 879 
Q 2688 1106 2688 1447 
L 2688 1575 
L 2106 1575 
z
M 3816 1997 
L 3816 0 
L 2688 0 
L 2688 519 
Q 2463 200 2181 54 
Q 1900 -91 1497 -91 
Q 953 -91 614 226 
Q 275 544 275 1050 
Q 275 1666 698 1953 
Q 1122 2241 2028 2241 
L 2688 2241 
L 2688 2328 
Q 2688 2594 2478 2717 
Q 2269 2841 1825 2841 
Q 1466 2841 1156 2769 
Q 847 2697 581 2553 
L 581 3406 
Q 941 3494 1303 3539 
Q 1666 3584 2028 3584 
Q 2975 3584 3395 3211 
Q 3816 2838 3816 1997 
z
" transform="scale(0.015625)"/>
     </defs>
     <use xlink:href="#DejaVuSans-Bold-61"/>
    </g>
   </g>
   <g id="text_10">
    <!-- Dim. 1 -->
    <g style="fill: #262626" transform="translate(292.07025 79.472)scale(0.192 -0.192)">
     <defs>
      <path id="DejaVuSans-44" d="M 1259 4147 
L 1259 519 
L 2022 519 
Q 2988 519 3436 956 
Q 3884 1394 3884 2338 
Q 3884 3275 3436 3711 
Q 2988 4147 2022 4147 
L 1259 4147 
z
M 628 4666 
L 1925 4666 
Q 3281 4666 3915 4102 
Q 4550 3538 4550 2338 
Q 4550 1131 3912 565 
Q 3275 0 1925 0 
L 628 0 
L 628 4666 
z
" transform="scale(0.015625)"/>
      <path id="DejaVuSans-6d" d="M 3328 2828 
Q 3544 3216 3844 3400 
Q 4144 3584 4550 3584 
Q 5097 3584 5394 3201 
Q 5691 2819 5691 2113 
L 5691 0 
L 5113 0 
L 5113 2094 
Q 5113 2597 4934 2840 
Q 4756 3084 4391 3084 
Q 3944 3084 3684 2787 
Q 3425 2491 3425 1978 
L 3425 0 
L 2847 0 
L 2847 2094 
Q 2847 2600 2669 2842 
Q 2491 3084 2119 3084 
Q 1678 3084 1418 2786 
Q 1159 2488 1159 1978 
L 1159 0 
L 581 0 
L 581 3500 
L 1159 3500 
L 1159 2956 
Q 1356 3278 1631 3431 
Q 1906 3584 2284 3584 
Q 2666 3584 2933 3390 
Q 3200 3197 3328 2828 
z
" transform="scale(0.015625)"/>
      <path id="DejaVuSans-2e" d="M 684 794 
L 1344 794 
L 1344 0 
L 684 0 
L 684 794 
z
" transform="scale(0.015625)"/>
     </defs>
     <use xlink:href="#DejaVuSans-44"/>
     <use xlink:href="#DejaVuSans-69" x="77.001953"/>
     <use xlink:href="#DejaVuSans-6d" x="104.785156"/>
     <use xlink:href="#DejaVuSans-2e" x="202.197266"/>
     <use xlink:href="#DejaVuSans-20" x="233.984375"/>
     <use xlink:href="#DejaVuSans-31" x="265.771484"/>
    </g>
   </g>
  </g>
  <g id="axes_2">
   <g id="patch_7">
    <path d="M 582.7055 346.85 
L 1059.264 346.85 
L 1059.264 85.472 
L 582.7055 85.472 
z
" style="fill: #ffffff"/>
   </g>
   <g id="matplotlib.axis_3">
    <g id="xtick_7">
     <g id="line2d_20">
      <path d="M 604.36725 346.85 
L 604.36725 85.472 
" clip-path="url(#pa8052b3d05)" style="fill: none; stroke: #cccccc; stroke-width: 0.8; stroke-linecap: round"/>
     </g>
    </g>
    <g id="xtick_8">
     <g id="line2d_21">
      <path d="M 691.01425 346.85 
L 691.01425 85.472 
" clip-path="url(#pa8052b3d05)" style="fill: none; stroke: #cccccc; stroke-width: 0.8; stroke-linecap: round"/>
     </g>
    </g>
    <g id="xtick_9">
     <g id="line2d_22">
      <path d="M 777.66125 346.85 
L 777.66125 85.472 
" clip-path="url(#pa8052b3d05)" style="fill: none; stroke: #cccccc; stroke-width: 0.8; stroke-linecap: round"/>
     </g>
    </g>
    <g id="xtick_10">
     <g id="line2d_23">
      <path d="M 864.30825 346.85 
L 864.30825 85.472 
" clip-path="url(#pa8052b3d05)" style="fill: none; stroke: #cccccc; stroke-width: 0.8; stroke-linecap: round"/>
     </g>
    </g>
    <g id="xtick_11">
     <g id="line2d_24">
      <path d="M 950.95525 346.85 
L 950.95525 85.472 
" clip-path="url(#pa8052b3d05)" style="fill: none; stroke: #cccccc; stroke-width: 0.8; stroke-linecap: round"/>
     </g>
    </g>
    <g id="xtick_12">
     <g id="line2d_25">
      <path d="M 1037.60225 346.85 
L 1037.60225 85.472 
" clip-path="url(#pa8052b3d05)" style="fill: none; stroke: #cccccc; stroke-width: 0.8; stroke-linecap: round"/>
     </g>
    </g>
   </g>
   <g id="matplotlib.axis_4">
    <g id="ytick_8">
     <g id="line2d_26">
      <path d="M 582.7055 316.088321 
L 1059.264 316.088321 
" clip-path="url(#pa8052b3d05)" style="fill: none; stroke: #cccccc; stroke-width: 0.8; stroke-linecap: round"/>
     </g>
    </g>
    <g id="ytick_9">
     <g id="line2d_27">
      <path d="M 582.7055 264.56156 
L 1059.264 264.56156 
" clip-path="url(#pa8052b3d05)" style="fill: none; stroke: #cccccc; stroke-width: 0.8; stroke-linecap: round"/>
     </g>
    </g>
    <g id="ytick_10">
     <g id="line2d_28">
      <path d="M 582.7055 213.034798 
L 1059.264 213.034798 
" clip-path="url(#pa8052b3d05)" style="fill: none; stroke: #cccccc; stroke-width: 0.8; stroke-linecap: round"/>
     </g>
    </g>
    <g id="ytick_11">
     <g id="line2d_29">
      <path d="M 582.7055 161.508037 
L 1059.264 161.508037 
" clip-path="url(#pa8052b3d05)" style="fill: none; stroke: #cccccc; stroke-width: 0.8; stroke-linecap: round"/>
     </g>
    </g>
    <g id="ytick_12">
     <g id="line2d_30">
      <path d="M 582.7055 109.981275 
L 1059.264 109.981275 
" clip-path="url(#pa8052b3d05)" style="fill: none; stroke: #cccccc; stroke-width: 0.8; stroke-linecap: round"/>
     </g>
    </g>
   </g>
   <g id="PolyCollection_4">
    <defs>
     <path id="mcf1c6bf63a" d="M 647.69075 -620.706207 
L 647.69075 -618.279172 
L 691.01425 -618.699166 
L 734.33775 -617.059212 
L 777.66125 -616.119718 
L 820.98475 -615.697638 
L 864.30825 -614.599625 
L 907.63175 -615.165507 
L 950.95525 -615.76089 
L 994.27875 -616.307444 
L 1037.60225 -616.565362 
L 1037.60225 -622.611611 
L 1037.60225 -622.611611 
L 994.27875 -622.583774 
L 950.95525 -621.827755 
L 907.63175 -620.756473 
L 864.30825 -620.680085 
L 820.98475 -622.647182 
L 777.66125 -621.601632 
L 734.33775 -620.622445 
L 691.01425 -621.705589 
L 647.69075 -620.706207 
z
" style="stroke: #008000; stroke-opacity: 0.2; stroke-width: 0.8"/>
    </defs>
    <g clip-path="url(#pa8052b3d05)">
     <use xlink:href="#mcf1c6bf63a" x="0" y="720" style="fill: #008000; fill-opacity: 0.2; stroke: #008000; stroke-opacity: 0.2; stroke-width: 0.8"/>
    </g>
   </g>
   <g id="PolyCollection_5">
    <defs>
     <path id="mb021dd2375" d="M 647.69075 -413.275994 
L 647.69075 -408.056013 
L 691.01425 -404.718994 
L 734.33775 -401.940021 
L 777.66125 -397.727152 
L 820.98475 -395.914744 
L 864.30825 -392.930086 
L 907.63175 -390.089791 
L 950.95525 -386.860377 
L 994.27875 -387.111649 
L 1037.60225 -385.030818 
L 1037.60225 -393.952223 
L 1037.60225 -393.952223 
L 994.27875 -395.28067 
L 950.95525 -397.185498 
L 907.63175 -400.029533 
L 864.30825 -401.130458 
L 820.98475 -404.738787 
L 777.66125 -406.819098 
L 734.33775 -410.275333 
L 691.01425 -412.731564 
L 647.69075 -413.275994 
z
" style="stroke: #6786c6; stroke-opacity: 0.2; stroke-width: 0.8"/>
    </defs>
    <g clip-path="url(#pa8052b3d05)">
     <use xlink:href="#mb021dd2375" x="0" y="720" style="fill: #6786c6; fill-opacity: 0.2; stroke: #6786c6; stroke-opacity: 0.2; stroke-width: 0.8"/>
    </g>
   </g>
   <g id="PolyCollection_6">
    <defs>
     <path id="mb74fe1313f" d="M 647.69075 -505.792048 
L 647.69075 -501.158444 
L 691.01425 -501.672207 
L 734.33775 -498.44603 
L 777.66125 -495.119109 
L 820.98475 -493.748473 
L 864.30825 -489.728841 
L 907.63175 -488.470717 
L 950.95525 -485.163514 
L 994.27875 -481.071224 
L 1037.60225 -479.108869 
L 1037.60225 -502.174294 
L 1037.60225 -502.174294 
L 994.27875 -504.708771 
L 950.95525 -505.943186 
L 907.63175 -504.525016 
L 864.30825 -503.133142 
L 820.98475 -504.609529 
L 777.66125 -505.224485 
L 734.33775 -503.453646 
L 691.01425 -505.36844 
L 647.69075 -505.792048 
z
" style="stroke: #e19252; stroke-opacity: 0.2; stroke-width: 0.8"/>
    </defs>
    <g clip-path="url(#pa8052b3d05)">
     <use xlink:href="#mb74fe1313f" x="0" y="720" style="fill: #e19252; fill-opacity: 0.2; stroke: #e19252; stroke-opacity: 0.2; stroke-width: 0.8"/>
    </g>
   </g>
   <g id="line2d_31">
    <path d="M 604.36725 100.051776 
L 647.69075 100.525761 
L 691.01425 99.655257 
L 734.33775 101.142572 
L 777.66125 101.133343 
L 820.98475 100.816577 
L 864.30825 102.228373 
L 907.63175 101.781518 
L 950.95525 101.045492 
L 994.27875 100.455904 
L 1037.60225 100.334481 
" clip-path="url(#pa8052b3d05)" style="fill: none; stroke: #008000; stroke-width: 1.2; stroke-linecap: round"/>
   </g>
   <g id="line2d_32">
    <path d="M 604.36725 307.726871 
L 647.69075 309.198703 
L 691.01425 311.112405 
L 734.33775 313.857322 
L 777.66125 317.956384 
L 820.98475 319.865844 
L 864.30825 323.285063 
L 907.63175 325.347635 
L 950.95525 328.256942 
L 994.27875 329.061742 
L 1037.60225 330.663828 
" clip-path="url(#pa8052b3d05)" style="fill: none; stroke: #6786c6; stroke-width: 1.2; stroke-linecap: round"/>
   </g>
   <g id="line2d_33">
    <path d="M 604.36725 214.638101 
L 647.69075 216.55095 
L 691.01425 216.359054 
L 734.33775 218.954491 
L 777.66125 219.892507 
L 820.98475 220.94154 
L 864.30825 223.510183 
L 907.63175 223.442961 
L 950.95525 223.910373 
L 994.27875 226.817021 
L 1037.60225 229.144982 
" clip-path="url(#pa8052b3d05)" style="fill: none; stroke: #e19252; stroke-width: 1.2; stroke-linecap: round"/>
   </g>
   <g id="line2d_34"/>
   <g id="line2d_35"/>
   <g id="line2d_36"/>
   <g id="patch_8">
    <path d="M 582.7055 346.85 
L 582.7055 85.472 
" style="fill: none; stroke: #cccccc; stroke-linejoin: miter; stroke-linecap: square"/>
   </g>
   <g id="patch_9">
    <path d="M 1059.264 346.85 
L 1059.264 85.472 
" style="fill: none; stroke: #cccccc; stroke-linejoin: miter; stroke-linecap: square"/>
   </g>
   <g id="patch_10">
    <path d="M 582.7055 346.85 
L 1059.264 346.85 
" style="fill: none; stroke: #cccccc; stroke-linejoin: miter; stroke-linecap: square"/>
   </g>
   <g id="patch_11">
    <path d="M 582.7055 85.472 
L 1059.264 85.472 
" style="fill: none; stroke: #cccccc; stroke-linejoin: miter; stroke-linecap: square"/>
   </g>
   <g id="text_11">
    <!-- b -->
    <g style="fill: #262626" transform="translate(582.7055 81.479)scale(0.192 -0.192)">
     <defs>
      <path id="DejaVuSans-Bold-62" d="M 2400 722 
Q 2759 722 2948 984 
Q 3138 1247 3138 1747 
Q 3138 2247 2948 2509 
Q 2759 2772 2400 2772 
Q 2041 2772 1848 2508 
Q 1656 2244 1656 1747 
Q 1656 1250 1848 986 
Q 2041 722 2400 722 
z
M 1656 2988 
Q 1888 3294 2169 3439 
Q 2450 3584 2816 3584 
Q 3463 3584 3878 3070 
Q 4294 2556 4294 1747 
Q 4294 938 3878 423 
Q 3463 -91 2816 -91 
Q 2450 -91 2169 54 
Q 1888 200 1656 506 
L 1656 0 
L 538 0 
L 538 4863 
L 1656 4863 
L 1656 2988 
z
" transform="scale(0.015625)"/>
     </defs>
     <use xlink:href="#DejaVuSans-Bold-62"/>
    </g>
   </g>
   <g id="text_12">
    <!-- Dim. 1 -->
    <g style="fill: #262626" transform="translate(789.36475 79.472)scale(0.192 -0.192)">
     <use xlink:href="#DejaVuSans-44"/>
     <use xlink:href="#DejaVuSans-69" x="77.001953"/>
     <use xlink:href="#DejaVuSans-6d" x="104.785156"/>
     <use xlink:href="#DejaVuSans-2e" x="202.197266"/>
     <use xlink:href="#DejaVuSans-20" x="233.984375"/>
     <use xlink:href="#DejaVuSans-31" x="265.771484"/>
    </g>
   </g>
  </g>
  <g id="axes_3">
   <g id="patch_12">
    <path d="M 85.411 649.964 
L 561.9695 649.964 
L 561.9695 388.586 
L 85.411 388.586 
z
" style="fill: #ffffff"/>
   </g>
   <g id="matplotlib.axis_5">
    <g id="xtick_13">
     <g id="line2d_37">
      <path d="M 107.07275 649.964 
L 107.07275 388.586 
" clip-path="url(#p8bb3a7eba7)" style="fill: none; stroke: #cccccc; stroke-width: 0.8; stroke-linecap: round"/>
     </g>
     <g id="text_13">
      <!-- 0 -->
      <g style="fill: #262626" transform="translate(101.47375 671.63725)scale(0.176 -0.176)">
       <use xlink:href="#DejaVuSans-30"/>
      </g>
     </g>
    </g>
    <g id="xtick_14">
     <g id="line2d_38">
      <path d="M 193.71975 649.964 
L 193.71975 388.586 
" clip-path="url(#p8bb3a7eba7)" style="fill: none; stroke: #cccccc; stroke-width: 0.8; stroke-linecap: round"/>
     </g>
     <g id="text_14">
      <!-- 2 -->
      <g style="fill: #262626" transform="translate(188.12075 671.63725)scale(0.176 -0.176)">
       <defs>
        <path id="DejaVuSans-32" d="M 1228 531 
L 3431 531 
L 3431 0 
L 469 0 
L 469 531 
Q 828 903 1448 1529 
Q 2069 2156 2228 2338 
Q 2531 2678 2651 2914 
Q 2772 3150 2772 3378 
Q 2772 3750 2511 3984 
Q 2250 4219 1831 4219 
Q 1534 4219 1204 4116 
Q 875 4013 500 3803 
L 500 4441 
Q 881 4594 1212 4672 
Q 1544 4750 1819 4750 
Q 2544 4750 2975 4387 
Q 3406 4025 3406 3419 
Q 3406 3131 3298 2873 
Q 3191 2616 2906 2266 
Q 2828 2175 2409 1742 
Q 1991 1309 1228 531 
z
" transform="scale(0.015625)"/>
       </defs>
       <use xlink:href="#DejaVuSans-32"/>
      </g>
     </g>
    </g>
    <g id="xtick_15">
     <g id="line2d_39">
      <path d="M 280.36675 649.964 
L 280.36675 388.586 
" clip-path="url(#p8bb3a7eba7)" style="fill: none; stroke: #cccccc; stroke-width: 0.8; stroke-linecap: round"/>
     </g>
     <g id="text_15">
      <!-- 4 -->
      <g style="fill: #262626" transform="translate(274.76775 671.63725)scale(0.176 -0.176)">
       <use xlink:href="#DejaVuSans-34"/>
      </g>
     </g>
    </g>
    <g id="xtick_16">
     <g id="line2d_40">
      <path d="M 367.01375 649.964 
L 367.01375 388.586 
" clip-path="url(#p8bb3a7eba7)" style="fill: none; stroke: #cccccc; stroke-width: 0.8; stroke-linecap: round"/>
     </g>
     <g id="text_16">
      <!-- 6 -->
      <g style="fill: #262626" transform="translate(361.41475 671.63725)scale(0.176 -0.176)">
       <use xlink:href="#DejaVuSans-36"/>
      </g>
     </g>
    </g>
    <g id="xtick_17">
     <g id="line2d_41">
      <path d="M 453.66075 649.964 
L 453.66075 388.586 
" clip-path="url(#p8bb3a7eba7)" style="fill: none; stroke: #cccccc; stroke-width: 0.8; stroke-linecap: round"/>
     </g>
     <g id="text_17">
      <!-- 8 -->
      <g style="fill: #262626" transform="translate(448.06175 671.63725)scale(0.176 -0.176)">
       <use xlink:href="#DejaVuSans-38"/>
      </g>
     </g>
    </g>
    <g id="xtick_18">
     <g id="line2d_42">
      <path d="M 540.30775 649.964 
L 540.30775 388.586 
" clip-path="url(#p8bb3a7eba7)" style="fill: none; stroke: #cccccc; stroke-width: 0.8; stroke-linecap: round"/>
     </g>
     <g id="text_18">
      <!-- 10 -->
      <g style="fill: #262626" transform="translate(529.10975 671.63725)scale(0.176 -0.176)">
       <use xlink:href="#DejaVuSans-31"/>
       <use xlink:href="#DejaVuSans-30" x="63.623047"/>
      </g>
     </g>
    </g>
    <g id="text_19">
     <!-- iteration -->
     <g style="fill: #262626" transform="translate(283.13475 693.8865)scale(0.192 -0.192)">
      <use xlink:href="#DejaVuSans-69"/>
      <use xlink:href="#DejaVuSans-74" x="27.783203"/>
      <use xlink:href="#DejaVuSans-65" x="66.992188"/>
      <use xlink:href="#DejaVuSans-72" x="128.515625"/>
      <use xlink:href="#DejaVuSans-61" x="169.628906"/>
      <use xlink:href="#DejaVuSans-74" x="230.908203"/>
      <use xlink:href="#DejaVuSans-69" x="270.117188"/>
      <use xlink:href="#DejaVuSans-6f" x="297.900391"/>
      <use xlink:href="#DejaVuSans-6e" x="359.082031"/>
     </g>
    </g>
   </g>
   <g id="matplotlib.axis_6">
    <g id="ytick_13">
     <g id="line2d_43">
      <path d="M 85.411 638.083182 
L 561.9695 638.083182 
" clip-path="url(#p8bb3a7eba7)" style="fill: none; stroke: #cccccc; stroke-width: 0.8; stroke-linecap: round"/>
     </g>
     <g id="text_20">
      <!-- 40 -->
      <g style="fill: #262626" transform="translate(54.715 644.769807)scale(0.176 -0.176)">
       <use xlink:href="#DejaVuSans-34"/>
       <use xlink:href="#DejaVuSans-30" x="63.623047"/>
      </g>
     </g>
    </g>
    <g id="ytick_14">
     <g id="line2d_44">
      <path d="M 85.411 598.480455 
L 561.9695 598.480455 
" clip-path="url(#p8bb3a7eba7)" style="fill: none; stroke: #cccccc; stroke-width: 0.8; stroke-linecap: round"/>
     </g>
     <g id="text_21">
      <!-- 50 -->
      <g style="fill: #262626" transform="translate(54.715 605.16708)scale(0.176 -0.176)">
       <use xlink:href="#DejaVuSans-35"/>
       <use xlink:href="#DejaVuSans-30" x="63.623047"/>
      </g>
     </g>
    </g>
    <g id="ytick_15">
     <g id="line2d_45">
      <path d="M 85.411 558.877727 
L 561.9695 558.877727 
" clip-path="url(#p8bb3a7eba7)" style="fill: none; stroke: #cccccc; stroke-width: 0.8; stroke-linecap: round"/>
     </g>
     <g id="text_22">
      <!-- 60 -->
      <g style="fill: #262626" transform="translate(54.715 565.564352)scale(0.176 -0.176)">
       <use xlink:href="#DejaVuSans-36"/>
       <use xlink:href="#DejaVuSans-30" x="63.623047"/>
      </g>
     </g>
    </g>
    <g id="ytick_16">
     <g id="line2d_46">
      <path d="M 85.411 519.275 
L 561.9695 519.275 
" clip-path="url(#p8bb3a7eba7)" style="fill: none; stroke: #cccccc; stroke-width: 0.8; stroke-linecap: round"/>
     </g>
     <g id="text_23">
      <!-- 70 -->
      <g style="fill: #262626" transform="translate(54.715 525.961625)scale(0.176 -0.176)">
       <use xlink:href="#DejaVuSans-37"/>
       <use xlink:href="#DejaVuSans-30" x="63.623047"/>
      </g>
     </g>
    </g>
    <g id="ytick_17">
     <g id="line2d_47">
      <path d="M 85.411 479.672273 
L 561.9695 479.672273 
" clip-path="url(#p8bb3a7eba7)" style="fill: none; stroke: #cccccc; stroke-width: 0.8; stroke-linecap: round"/>
     </g>
     <g id="text_24">
      <!-- 80 -->
      <g style="fill: #262626" transform="translate(54.715 486.358898)scale(0.176 -0.176)">
       <use xlink:href="#DejaVuSans-38"/>
       <use xlink:href="#DejaVuSans-30" x="63.623047"/>
      </g>
     </g>
    </g>
    <g id="ytick_18">
     <g id="line2d_48">
      <path d="M 85.411 440.069545 
L 561.9695 440.069545 
" clip-path="url(#p8bb3a7eba7)" style="fill: none; stroke: #cccccc; stroke-width: 0.8; stroke-linecap: round"/>
     </g>
     <g id="text_25">
      <!-- 90 -->
      <g style="fill: #262626" transform="translate(54.715 446.75617)scale(0.176 -0.176)">
       <use xlink:href="#DejaVuSans-39"/>
       <use xlink:href="#DejaVuSans-30" x="63.623047"/>
      </g>
     </g>
    </g>
    <g id="ytick_19">
     <g id="line2d_49">
      <path d="M 85.411 400.466818 
L 561.9695 400.466818 
" clip-path="url(#p8bb3a7eba7)" style="fill: none; stroke: #cccccc; stroke-width: 0.8; stroke-linecap: round"/>
     </g>
     <g id="text_26">
      <!-- 100 -->
      <g style="fill: #262626" transform="translate(43.517 407.153443)scale(0.176 -0.176)">
       <use xlink:href="#DejaVuSans-31"/>
       <use xlink:href="#DejaVuSans-30" x="63.623047"/>
       <use xlink:href="#DejaVuSans-30" x="127.246094"/>
      </g>
     </g>
    </g>
    <g id="text_27">
     <!-- Percentage of variability -->
     <g style="fill: #262626" transform="translate(35.524 636.2285)rotate(-90)scale(0.192 -0.192)">
      <use xlink:href="#DejaVuSans-50"/>
      <use xlink:href="#DejaVuSans-65" x="56.677734"/>
      <use xlink:href="#DejaVuSans-72" x="118.201172"/>
      <use xlink:href="#DejaVuSans-63" x="157.064453"/>
      <use xlink:href="#DejaVuSans-65" x="212.044922"/>
      <use xlink:href="#DejaVuSans-6e" x="273.568359"/>
      <use xlink:href="#DejaVuSans-74" x="336.947266"/>
      <use xlink:href="#DejaVuSans-61" x="376.15625"/>
      <use xlink:href="#DejaVuSans-67" x="437.435547"/>
      <use xlink:href="#DejaVuSans-65" x="500.912109"/>
      <use xlink:href="#DejaVuSans-20" x="562.435547"/>
      <use xlink:href="#DejaVuSans-6f" x="594.222656"/>
      <use xlink:href="#DejaVuSans-66" x="655.404297"/>
      <use xlink:href="#DejaVuSans-20" x="690.609375"/>
      <use xlink:href="#DejaVuSans-76" x="722.396484"/>
      <use xlink:href="#DejaVuSans-61" x="781.576172"/>
      <use xlink:href="#DejaVuSans-72" x="842.855469"/>
      <use xlink:href="#DejaVuSans-69" x="883.96875"/>
      <use xlink:href="#DejaVuSans-61" x="911.751953"/>
      <use xlink:href="#DejaVuSans-62" x="973.03125"/>
      <use xlink:href="#DejaVuSans-69" x="1036.507812"/>
      <use xlink:href="#DejaVuSans-6c" x="1064.291016"/>
      <use xlink:href="#DejaVuSans-69" x="1092.074219"/>
      <use xlink:href="#DejaVuSans-74" x="1119.857422"/>
      <use xlink:href="#DejaVuSans-79" x="1159.066406"/>
     </g>
    </g>
   </g>
   <g id="PolyCollection_7">
    <defs>
     <path id="m7c0e59b7fc" d="M 150.39625 -291.886664 
L 150.39625 -272.135293 
L 193.71975 -266.085316 
L 237.04325 -246.664323 
L 280.36675 -225.341946 
L 323.69025 -219.619782 
L 367.01375 -213.705805 
L 410.33725 -209.368648 
L 453.66075 -205.298814 
L 496.98425 -204.622705 
L 540.30775 -201.035484 
L 540.30775 -241.756484 
L 540.30775 -241.756484 
L 496.98425 -247.151336 
L 453.66075 -251.981068 
L 410.33725 -257.501011 
L 367.01375 -257.222428 
L 323.69025 -263.549585 
L 280.36675 -263.109047 
L 237.04325 -268.005575 
L 193.71975 -280.775611 
L 150.39625 -291.886664 
z
" style="stroke: #008000; stroke-opacity: 0.2; stroke-width: 0.8"/>
    </defs>
    <g clip-path="url(#p8bb3a7eba7)">
     <use xlink:href="#m7c0e59b7fc" x="0" y="720" style="fill: #008000; fill-opacity: 0.2; stroke: #008000; stroke-opacity: 0.2; stroke-width: 0.8"/>
    </g>
   </g>
   <g id="PolyCollection_8">
    <defs>
     <path id="m52cd5a06d7" d="M 150.39625 -250.840729 
L 150.39625 -172.688168 
L 193.71975 -142.659855 
L 237.04325 -134.725016 
L 280.36675 -107.778511 
L 323.69025 -98.664527 
L 367.01375 -95.647643 
L 410.33725 -85.243457 
L 453.66075 -76.569458 
L 496.98425 -74.616866 
L 540.30775 -75.178503 
L 540.30775 -103.493645 
L 540.30775 -103.493645 
L 496.98425 -96.457747 
L 453.66075 -101.318739 
L 410.33725 -120.710376 
L 367.01375 -118.583046 
L 323.69025 -146.796909 
L 280.36675 -129.735339 
L 237.04325 -171.075535 
L 193.71975 -214.199328 
L 150.39625 -250.840729 
z
" style="stroke: #6786c6; stroke-opacity: 0.2; stroke-width: 0.8"/>
    </defs>
    <g clip-path="url(#p8bb3a7eba7)">
     <use xlink:href="#m52cd5a06d7" x="0" y="720" style="fill: #6786c6; fill-opacity: 0.2; stroke: #6786c6; stroke-opacity: 0.2; stroke-width: 0.8"/>
    </g>
   </g>
   <g id="PolyCollection_9">
    <defs>
     <path id="m078d662e0f" d="M 150.39625 -294.30922 
L 150.39625 -272.977428 
L 193.71975 -263.75172 
L 237.04325 -234.089319 
L 280.36675 -202.255155 
L 323.69025 -188.744127 
L 367.01375 -178.054429 
L 410.33725 -159.892055 
L 453.66075 -149.826734 
L 496.98425 -141.346717 
L 540.30775 -128.468788 
L 540.30775 -196.923795 
L 540.30775 -196.923795 
L 496.98425 -212.735609 
L 453.66075 -222.243077 
L 410.33725 -237.954782 
L 367.01375 -242.445987 
L 323.69025 -254.695664 
L 280.36675 -255.936314 
L 237.04325 -266.74903 
L 193.71975 -282.973336 
L 150.39625 -294.30922 
z
" style="stroke: #e19252; stroke-opacity: 0.2; stroke-width: 0.8"/>
    </defs>
    <g clip-path="url(#p8bb3a7eba7)">
     <use xlink:href="#m078d662e0f" x="0" y="720" style="fill: #e19252; fill-opacity: 0.2; stroke: #e19252; stroke-opacity: 0.2; stroke-width: 0.8"/>
    </g>
   </g>
   <g id="line2d_50">
    <path d="M 107.07275 400.466818 
L 150.39625 437.942709 
L 193.71975 446.915108 
L 237.04325 463.147382 
L 280.36675 475.610184 
L 323.69025 477.438357 
L 367.01375 484.080028 
L 410.33725 486.178159 
L 453.66075 490.99198 
L 496.98425 493.418214 
L 540.30775 499.301222 
" clip-path="url(#p8bb3a7eba7)" style="fill: none; stroke: #008000; stroke-width: 1.2; stroke-linecap: round"/>
   </g>
   <g id="line2d_51">
    <path d="M 107.07275 400.466818 
L 150.39625 509.671175 
L 193.71975 545.101142 
L 237.04325 569.83344 
L 280.36675 601.127167 
L 323.69025 598.286318 
L 367.01375 612.76751 
L 410.33725 618.940037 
L 453.66075 631.425458 
L 496.98425 633.924153 
L 540.30775 631.097916 
" clip-path="url(#p8bb3a7eba7)" style="fill: none; stroke: #6786c6; stroke-width: 1.2; stroke-linecap: round"/>
   </g>
   <g id="line2d_52">
    <path d="M 107.07275 400.466818 
L 150.39625 436.502877 
L 193.71975 446.312699 
L 237.04325 470.446983 
L 280.36675 491.389578 
L 323.69025 497.722464 
L 367.01375 511.178993 
L 410.33725 519.877019 
L 453.66075 532.196964 
L 496.98425 540.462891 
L 540.30775 556.960905 
" clip-path="url(#p8bb3a7eba7)" style="fill: none; stroke: #e19252; stroke-width: 1.2; stroke-linecap: round"/>
   </g>
   <g id="line2d_53"/>
   <g id="line2d_54"/>
   <g id="line2d_55"/>
   <g id="patch_13">
    <path d="M 85.411 649.964 
L 85.411 388.586 
" style="fill: none; stroke: #cccccc; stroke-linejoin: miter; stroke-linecap: square"/>
   </g>
   <g id="patch_14">
    <path d="M 561.9695 649.964 
L 561.9695 388.586 
" style="fill: none; stroke: #cccccc; stroke-linejoin: miter; stroke-linecap: square"/>
   </g>
   <g id="patch_15">
    <path d="M 85.411 649.964 
L 561.9695 649.964 
" style="fill: none; stroke: #cccccc; stroke-linejoin: miter; stroke-linecap: square"/>
   </g>
   <g id="patch_16">
    <path d="M 85.411 388.586 
L 561.9695 388.586 
" style="fill: none; stroke: #cccccc; stroke-linejoin: miter; stroke-linecap: square"/>
   </g>
   <g id="text_28">
    <!-- c -->
    <g style="fill: #262626" transform="translate(85.411 384.593)scale(0.192 -0.192)">
     <defs>
      <path id="DejaVuSans-Bold-63" d="M 3366 3391 
L 3366 2478 
Q 3138 2634 2908 2709 
Q 2678 2784 2431 2784 
Q 1963 2784 1702 2511 
Q 1441 2238 1441 1747 
Q 1441 1256 1702 982 
Q 1963 709 2431 709 
Q 2694 709 2930 787 
Q 3166 866 3366 1019 
L 3366 103 
Q 3103 6 2833 -42 
Q 2563 -91 2291 -91 
Q 1344 -91 809 395 
Q 275 881 275 1747 
Q 275 2613 809 3098 
Q 1344 3584 2291 3584 
Q 2566 3584 2833 3536 
Q 3100 3488 3366 3391 
z
" transform="scale(0.015625)"/>
     </defs>
     <use xlink:href="#DejaVuSans-Bold-63"/>
    </g>
   </g>
   <g id="text_29">
    <!-- Dim. 2 -->
    <g style="fill: #262626" transform="translate(292.07025 382.586)scale(0.192 -0.192)">
     <use xlink:href="#DejaVuSans-44"/>
     <use xlink:href="#DejaVuSans-69" x="77.001953"/>
     <use xlink:href="#DejaVuSans-6d" x="104.785156"/>
     <use xlink:href="#DejaVuSans-2e" x="202.197266"/>
     <use xlink:href="#DejaVuSans-20" x="233.984375"/>
     <use xlink:href="#DejaVuSans-32" x="265.771484"/>
    </g>
   </g>
  </g>
  <g id="axes_4">
   <g id="patch_17">
    <path d="M 582.7055 649.964 
L 1059.264 649.964 
L 1059.264 388.586 
L 582.7055 388.586 
z
" style="fill: #ffffff"/>
   </g>
   <g id="matplotlib.axis_7">
    <g id="xtick_19">
     <g id="line2d_56">
      <path d="M 604.36725 649.964 
L 604.36725 388.586 
" clip-path="url(#p759754e5ed)" style="fill: none; stroke: #cccccc; stroke-width: 0.8; stroke-linecap: round"/>
     </g>
     <g id="text_30">
      <!-- 0 -->
      <g style="fill: #262626" transform="translate(598.76825 671.63725)scale(0.176 -0.176)">
       <use xlink:href="#DejaVuSans-30"/>
      </g>
     </g>
    </g>
    <g id="xtick_20">
     <g id="line2d_57">
      <path d="M 691.01425 649.964 
L 691.01425 388.586 
" clip-path="url(#p759754e5ed)" style="fill: none; stroke: #cccccc; stroke-width: 0.8; stroke-linecap: round"/>
     </g>
     <g id="text_31">
      <!-- 2 -->
      <g style="fill: #262626" transform="translate(685.41525 671.63725)scale(0.176 -0.176)">
       <use xlink:href="#DejaVuSans-32"/>
      </g>
     </g>
    </g>
    <g id="xtick_21">
     <g id="line2d_58">
      <path d="M 777.66125 649.964 
L 777.66125 388.586 
" clip-path="url(#p759754e5ed)" style="fill: none; stroke: #cccccc; stroke-width: 0.8; stroke-linecap: round"/>
     </g>
     <g id="text_32">
      <!-- 4 -->
      <g style="fill: #262626" transform="translate(772.06225 671.63725)scale(0.176 -0.176)">
       <use xlink:href="#DejaVuSans-34"/>
      </g>
     </g>
    </g>
    <g id="xtick_22">
     <g id="line2d_59">
      <path d="M 864.30825 649.964 
L 864.30825 388.586 
" clip-path="url(#p759754e5ed)" style="fill: none; stroke: #cccccc; stroke-width: 0.8; stroke-linecap: round"/>
     </g>
     <g id="text_33">
      <!-- 6 -->
      <g style="fill: #262626" transform="translate(858.70925 671.63725)scale(0.176 -0.176)">
       <use xlink:href="#DejaVuSans-36"/>
      </g>
     </g>
    </g>
    <g id="xtick_23">
     <g id="line2d_60">
      <path d="M 950.95525 649.964 
L 950.95525 388.586 
" clip-path="url(#p759754e5ed)" style="fill: none; stroke: #cccccc; stroke-width: 0.8; stroke-linecap: round"/>
     </g>
     <g id="text_34">
      <!-- 8 -->
      <g style="fill: #262626" transform="translate(945.35625 671.63725)scale(0.176 -0.176)">
       <use xlink:href="#DejaVuSans-38"/>
      </g>
     </g>
    </g>
    <g id="xtick_24">
     <g id="line2d_61">
      <path d="M 1037.60225 649.964 
L 1037.60225 388.586 
" clip-path="url(#p759754e5ed)" style="fill: none; stroke: #cccccc; stroke-width: 0.8; stroke-linecap: round"/>
     </g>
     <g id="text_35">
      <!-- 10 -->
      <g style="fill: #262626" transform="translate(1026.40425 671.63725)scale(0.176 -0.176)">
       <use xlink:href="#DejaVuSans-31"/>
       <use xlink:href="#DejaVuSans-30" x="63.623047"/>
      </g>
     </g>
    </g>
    <g id="text_36">
     <!-- iteration -->
     <g style="fill: #262626" transform="translate(780.42925 693.8865)scale(0.192 -0.192)">
      <use xlink:href="#DejaVuSans-69"/>
      <use xlink:href="#DejaVuSans-74" x="27.783203"/>
      <use xlink:href="#DejaVuSans-65" x="66.992188"/>
      <use xlink:href="#DejaVuSans-72" x="128.515625"/>
      <use xlink:href="#DejaVuSans-61" x="169.628906"/>
      <use xlink:href="#DejaVuSans-74" x="230.908203"/>
      <use xlink:href="#DejaVuSans-69" x="270.117188"/>
      <use xlink:href="#DejaVuSans-6f" x="297.900391"/>
      <use xlink:href="#DejaVuSans-6e" x="359.082031"/>
     </g>
    </g>
   </g>
   <g id="matplotlib.axis_8">
    <g id="ytick_20">
     <g id="line2d_62">
      <path d="M 582.7055 614.215527 
L 1059.264 614.215527 
" clip-path="url(#p759754e5ed)" style="fill: none; stroke: #cccccc; stroke-width: 0.8; stroke-linecap: round"/>
     </g>
    </g>
    <g id="ytick_21">
     <g id="line2d_63">
      <path d="M 582.7055 569.100435 
L 1059.264 569.100435 
" clip-path="url(#p759754e5ed)" style="fill: none; stroke: #cccccc; stroke-width: 0.8; stroke-linecap: round"/>
     </g>
    </g>
    <g id="ytick_22">
     <g id="line2d_64">
      <path d="M 582.7055 523.985342 
L 1059.264 523.985342 
" clip-path="url(#p759754e5ed)" style="fill: none; stroke: #cccccc; stroke-width: 0.8; stroke-linecap: round"/>
     </g>
    </g>
    <g id="ytick_23">
     <g id="line2d_65">
      <path d="M 582.7055 478.87025 
L 1059.264 478.87025 
" clip-path="url(#p759754e5ed)" style="fill: none; stroke: #cccccc; stroke-width: 0.8; stroke-linecap: round"/>
     </g>
    </g>
    <g id="ytick_24">
     <g id="line2d_66">
      <path d="M 582.7055 433.755158 
L 1059.264 433.755158 
" clip-path="url(#p759754e5ed)" style="fill: none; stroke: #cccccc; stroke-width: 0.8; stroke-linecap: round"/>
     </g>
    </g>
    <g id="ytick_25">
     <g id="line2d_67">
      <path d="M 582.7055 388.640065 
L 1059.264 388.640065 
" clip-path="url(#p759754e5ed)" style="fill: none; stroke: #cccccc; stroke-width: 0.8; stroke-linecap: round"/>
     </g>
    </g>
   </g>
   <g id="PolyCollection_10">
    <defs>
     <path id="m574734a3e8" d="M 647.69075 -210.285095 
L 647.69075 -202.413659 
L 691.01425 -199.550957 
L 734.33775 -191.603429 
L 777.66125 -182.788976 
L 820.98475 -180.951669 
L 864.30825 -179.365358 
L 907.63175 -176.433682 
L 950.95525 -174.661254 
L 994.27875 -173.880263 
L 1037.60225 -172.96931 
L 1037.60225 -189.719487 
L 1037.60225 -189.719487 
L 994.27875 -191.680576 
L 950.95525 -194.677619 
L 907.63175 -196.891898 
L 864.30825 -196.886041 
L 820.98475 -199.425777 
L 777.66125 -198.532494 
L 734.33775 -201.20652 
L 691.01425 -205.521554 
L 647.69075 -210.285095 
z
" style="stroke: #008000; stroke-opacity: 0.2; stroke-width: 0.8"/>
    </defs>
    <g clip-path="url(#p759754e5ed)">
     <use xlink:href="#m574734a3e8" x="0" y="720" style="fill: #008000; fill-opacity: 0.2; stroke: #008000; stroke-opacity: 0.2; stroke-width: 0.8"/>
    </g>
   </g>
   <g id="PolyCollection_11">
    <defs>
     <path id="m172e958a46" d="M 647.69075 -106.458462 
L 647.69075 -95.919615 
L 691.01425 -91.168132 
L 734.33775 -90.190303 
L 777.66125 -86.481093 
L 820.98475 -85.294878 
L 864.30825 -84.754764 
L 907.63175 -83.0826 
L 950.95525 -82.177581 
L 994.27875 -81.916818 
L 1037.60225 -81.955117 
L 1037.60225 -85.704964 
L 1037.60225 -85.704964 
L 994.27875 -84.941784 
L 950.95525 -85.723016 
L 907.63175 -88.058989 
L 864.30825 -87.912428 
L 820.98475 -92.064 
L 777.66125 -89.575135 
L 734.33775 -95.057392 
L 691.01425 -100.863374 
L 647.69075 -106.458462 
z
" style="stroke: #6786c6; stroke-opacity: 0.2; stroke-width: 0.8"/>
    </defs>
    <g clip-path="url(#p759754e5ed)">
     <use xlink:href="#m172e958a46" x="0" y="720" style="fill: #6786c6; fill-opacity: 0.2; stroke: #6786c6; stroke-opacity: 0.2; stroke-width: 0.8"/>
    </g>
   </g>
   <g id="PolyCollection_12">
    <defs>
     <path id="ma78054db74" d="M 647.69075 -303.892173 
L 647.69075 -288.576366 
L 691.01425 -283.266366 
L 734.33775 -263.034566 
L 777.66125 -243.192527 
L 820.98475 -236.216664 
L 864.30825 -225.086884 
L 907.63175 -213.268556 
L 950.95525 -205.520906 
L 994.27875 -202.004273 
L 1037.60225 -193.381465 
L 1037.60225 -239.399753 
L 1037.60225 -239.399753 
L 994.27875 -252.851345 
L 950.95525 -256.023295 
L 907.63175 -266.21336 
L 864.30825 -268.536671 
L 820.98475 -276.932818 
L 777.66125 -277.063079 
L 734.33775 -285.104753 
L 691.01425 -296.511506 
L 647.69075 -303.892173 
z
" style="stroke: #e19252; stroke-opacity: 0.2; stroke-width: 0.8"/>
    </defs>
    <g clip-path="url(#p759754e5ed)">
     <use xlink:href="#ma78054db74" x="0" y="720" style="fill: #e19252; fill-opacity: 0.2; stroke: #e19252; stroke-opacity: 0.2; stroke-width: 0.8"/>
    </g>
   </g>
   <g id="line2d_68">
    <path d="M 604.36725 498.496305 
L 647.69075 513.715987 
L 691.01425 517.359851 
L 734.33775 523.95209 
L 777.66125 529.013475 
L 820.98475 529.755931 
L 864.30825 532.453242 
L 907.63175 533.305333 
L 950.95525 535.260319 
L 994.27875 536.245659 
L 1037.60225 538.634862 
" clip-path="url(#p759754e5ed)" style="fill: none; stroke: #008000; stroke-width: 1.2; stroke-linecap: round"/>
   </g>
   <g id="line2d_69">
    <path d="M 604.36725 603.915742 
L 647.69075 619.196372 
L 691.01425 624.153978 
L 734.33775 627.614692 
L 777.66125 631.993527 
L 820.98475 631.596016 
L 864.30825 633.622325 
L 907.63175 634.486027 
L 950.95525 636.233074 
L 994.27875 636.582708 
L 1037.60225 636.187242 
" clip-path="url(#p759754e5ed)" style="fill: none; stroke: #6786c6; stroke-width: 1.2; stroke-linecap: round"/>
   </g>
   <g id="line2d_70">
    <path d="M 604.36725 400.466818 
L 647.69075 424.02184 
L 691.01425 430.434045 
L 734.33775 446.209454 
L 777.66125 459.898612 
L 820.98475 464.038112 
L 864.30825 472.833992 
L 907.63175 478.519469 
L 950.95525 486.572419 
L 994.27875 491.975454 
L 1037.60225 502.759405 
" clip-path="url(#p759754e5ed)" style="fill: none; stroke: #e19252; stroke-width: 1.2; stroke-linecap: round"/>
   </g>
   <g id="line2d_71"/>
   <g id="line2d_72"/>
   <g id="line2d_73"/>
   <g id="patch_18">
    <path d="M 582.7055 649.964 
L 582.7055 388.586 
" style="fill: none; stroke: #cccccc; stroke-linejoin: miter; stroke-linecap: square"/>
   </g>
   <g id="patch_19">
    <path d="M 1059.264 649.964 
L 1059.264 388.586 
" style="fill: none; stroke: #cccccc; stroke-linejoin: miter; stroke-linecap: square"/>
   </g>
   <g id="patch_20">
    <path d="M 582.7055 649.964 
L 1059.264 649.964 
" style="fill: none; stroke: #cccccc; stroke-linejoin: miter; stroke-linecap: square"/>
   </g>
   <g id="patch_21">
    <path d="M 582.7055 388.586 
L 1059.264 388.586 
" style="fill: none; stroke: #cccccc; stroke-linejoin: miter; stroke-linecap: square"/>
   </g>
   <g id="text_37">
    <!-- d -->
    <g style="fill: #262626" transform="translate(582.7055 384.593)scale(0.192 -0.192)">
     <defs>
      <path id="DejaVuSans-Bold-64" d="M 2919 2988 
L 2919 4863 
L 4044 4863 
L 4044 0 
L 2919 0 
L 2919 506 
Q 2688 197 2409 53 
Q 2131 -91 1766 -91 
Q 1119 -91 703 423 
Q 288 938 288 1747 
Q 288 2556 703 3070 
Q 1119 3584 1766 3584 
Q 2128 3584 2408 3439 
Q 2688 3294 2919 2988 
z
M 2181 722 
Q 2541 722 2730 984 
Q 2919 1247 2919 1747 
Q 2919 2247 2730 2509 
Q 2541 2772 2181 2772 
Q 1825 2772 1636 2509 
Q 1447 2247 1447 1747 
Q 1447 1247 1636 984 
Q 1825 722 2181 722 
z
" transform="scale(0.015625)"/>
     </defs>
     <use xlink:href="#DejaVuSans-Bold-64"/>
    </g>
   </g>
   <g id="text_38">
    <!-- Dim. 2 -->
    <g style="fill: #262626" transform="translate(789.36475 382.586)scale(0.192 -0.192)">
     <use xlink:href="#DejaVuSans-44"/>
     <use xlink:href="#DejaVuSans-69" x="77.001953"/>
     <use xlink:href="#DejaVuSans-6d" x="104.785156"/>
     <use xlink:href="#DejaVuSans-2e" x="202.197266"/>
     <use xlink:href="#DejaVuSans-20" x="233.984375"/>
     <use xlink:href="#DejaVuSans-32" x="265.771484"/>
    </g>
   </g>
  </g>
  <g id="text_39">
   <!-- Variability conservation across avatarization iterations -->
   <g style="fill: #262626" transform="translate(226.3986 31.9068)scale(0.2304 -0.2304)">
    <defs>
     <path id="DejaVuSans-56" d="M 1831 0 
L 50 4666 
L 709 4666 
L 2188 738 
L 3669 4666 
L 4325 4666 
L 2547 0 
L 1831 0 
z
" transform="scale(0.015625)"/>
     <path id="DejaVuSans-73" d="M 2834 3397 
L 2834 2853 
Q 2591 2978 2328 3040 
Q 2066 3103 1784 3103 
Q 1356 3103 1142 2972 
Q 928 2841 928 2578 
Q 928 2378 1081 2264 
Q 1234 2150 1697 2047 
L 1894 2003 
Q 2506 1872 2764 1633 
Q 3022 1394 3022 966 
Q 3022 478 2636 193 
Q 2250 -91 1575 -91 
Q 1294 -91 989 -36 
Q 684 19 347 128 
L 347 722 
Q 666 556 975 473 
Q 1284 391 1588 391 
Q 1994 391 2212 530 
Q 2431 669 2431 922 
Q 2431 1156 2273 1281 
Q 2116 1406 1581 1522 
L 1381 1569 
Q 847 1681 609 1914 
Q 372 2147 372 2553 
Q 372 3047 722 3315 
Q 1072 3584 1716 3584 
Q 2034 3584 2315 3537 
Q 2597 3491 2834 3397 
z
" transform="scale(0.015625)"/>
     <path id="DejaVuSans-7a" d="M 353 3500 
L 3084 3500 
L 3084 2975 
L 922 459 
L 3084 459 
L 3084 0 
L 275 0 
L 275 525 
L 2438 3041 
L 353 3041 
L 353 3500 
z
" transform="scale(0.015625)"/>
    </defs>
    <use xlink:href="#DejaVuSans-56"/>
    <use xlink:href="#DejaVuSans-61" x="60.658203"/>
    <use xlink:href="#DejaVuSans-72" x="121.9375"/>
    <use xlink:href="#DejaVuSans-69" x="163.050781"/>
    <use xlink:href="#DejaVuSans-61" x="190.833984"/>
    <use xlink:href="#DejaVuSans-62" x="252.113281"/>
    <use xlink:href="#DejaVuSans-69" x="315.589844"/>
    <use xlink:href="#DejaVuSans-6c" x="343.373047"/>
    <use xlink:href="#DejaVuSans-69" x="371.15625"/>
    <use xlink:href="#DejaVuSans-74" x="398.939453"/>
    <use xlink:href="#DejaVuSans-79" x="438.148438"/>
    <use xlink:href="#DejaVuSans-20" x="497.328125"/>
    <use xlink:href="#DejaVuSans-63" x="529.115234"/>
    <use xlink:href="#DejaVuSans-6f" x="584.095703"/>
    <use xlink:href="#DejaVuSans-6e" x="645.277344"/>
    <use xlink:href="#DejaVuSans-73" x="708.65625"/>
    <use xlink:href="#DejaVuSans-65" x="760.755859"/>
    <use xlink:href="#DejaVuSans-72" x="822.279297"/>
    <use xlink:href="#DejaVuSans-76" x="863.392578"/>
    <use xlink:href="#DejaVuSans-61" x="922.572266"/>
    <use xlink:href="#DejaVuSans-74" x="983.851562"/>
    <use xlink:href="#DejaVuSans-69" x="1023.060547"/>
    <use xlink:href="#DejaVuSans-6f" x="1050.84375"/>
    <use xlink:href="#DejaVuSans-6e" x="1112.025391"/>
    <use xlink:href="#DejaVuSans-20" x="1175.404297"/>
    <use xlink:href="#DejaVuSans-61" x="1207.191406"/>
    <use xlink:href="#DejaVuSans-63" x="1268.470703"/>
    <use xlink:href="#DejaVuSans-72" x="1323.451172"/>
    <use xlink:href="#DejaVuSans-6f" x="1362.314453"/>
    <use xlink:href="#DejaVuSans-73" x="1423.496094"/>
    <use xlink:href="#DejaVuSans-73" x="1475.595703"/>
    <use xlink:href="#DejaVuSans-20" x="1527.695312"/>
    <use xlink:href="#DejaVuSans-61" x="1559.482422"/>
    <use xlink:href="#DejaVuSans-76" x="1620.761719"/>
    <use xlink:href="#DejaVuSans-61" x="1679.941406"/>
    <use xlink:href="#DejaVuSans-74" x="1741.220703"/>
    <use xlink:href="#DejaVuSans-61" x="1780.429688"/>
    <use xlink:href="#DejaVuSans-72" x="1841.708984"/>
    <use xlink:href="#DejaVuSans-69" x="1882.822266"/>
    <use xlink:href="#DejaVuSans-7a" x="1910.605469"/>
    <use xlink:href="#DejaVuSans-61" x="1963.095703"/>
    <use xlink:href="#DejaVuSans-74" x="2024.375"/>
    <use xlink:href="#DejaVuSans-69" x="2063.583984"/>
    <use xlink:href="#DejaVuSans-6f" x="2091.367188"/>
    <use xlink:href="#DejaVuSans-6e" x="2152.548828"/>
    <use xlink:href="#DejaVuSans-20" x="2215.927734"/>
    <use xlink:href="#DejaVuSans-69" x="2247.714844"/>
    <use xlink:href="#DejaVuSans-74" x="2275.498047"/>
    <use xlink:href="#DejaVuSans-65" x="2314.707031"/>
    <use xlink:href="#DejaVuSans-72" x="2376.230469"/>
    <use xlink:href="#DejaVuSans-61" x="2417.34375"/>
    <use xlink:href="#DejaVuSans-74" x="2478.623047"/>
    <use xlink:href="#DejaVuSans-69" x="2517.832031"/>
    <use xlink:href="#DejaVuSans-6f" x="2545.615234"/>
    <use xlink:href="#DejaVuSans-6e" x="2606.796875"/>
    <use xlink:href="#DejaVuSans-73" x="2670.175781"/>
   </g>
  </g>
  <g id="legend_1">
   <g id="patch_22">
    <path d="M 947.8 77.76 
L 1061.738125 77.76 
Q 1064.538125 77.76 1064.538125 74.96 
L 1064.538125 14.711875 
Q 1064.538125 11.911875 1061.738125 11.911875 
L 947.8 11.911875 
Q 945 11.911875 945 14.711875 
L 945 74.96 
Q 945 77.76 947.8 77.76 
z
" style="fill: #ffffff; opacity: 0.8; stroke: #cccccc; stroke-width: 0.8; stroke-linejoin: miter"/>
   </g>
   <g id="line2d_74">
    <path d="M 950.6 23.249688 
L 964.6 23.249688 
L 978.6 23.249688 
" style="fill: none; stroke: #008000; stroke-width: 1.2; stroke-linecap: round"/>
   </g>
   <g id="text_40">
    <!-- all -->
    <g style="fill: #262626" transform="translate(989.8 28.149688)scale(0.14 -0.14)">
     <use xlink:href="#DejaVuSans-61"/>
     <use xlink:href="#DejaVuSans-6c" x="61.279297"/>
     <use xlink:href="#DejaVuSans-6c" x="89.0625"/>
    </g>
   </g>
   <g id="line2d_75">
    <path d="M 950.6 43.799063 
L 964.6 43.799063 
L 978.6 43.799063 
" style="fill: none; stroke: #6786c6; stroke-width: 1.2; stroke-linecap: round"/>
   </g>
   <g id="text_41">
    <!-- Benign -->
    <g style="fill: #262626" transform="translate(989.8 48.699063)scale(0.14 -0.14)">
     <defs>
      <path id="DejaVuSans-42" d="M 1259 2228 
L 1259 519 
L 2272 519 
Q 2781 519 3026 730 
Q 3272 941 3272 1375 
Q 3272 1813 3026 2020 
Q 2781 2228 2272 2228 
L 1259 2228 
z
M 1259 4147 
L 1259 2741 
L 2194 2741 
Q 2656 2741 2882 2914 
Q 3109 3088 3109 3444 
Q 3109 3797 2882 3972 
Q 2656 4147 2194 4147 
L 1259 4147 
z
M 628 4666 
L 2241 4666 
Q 2963 4666 3353 4366 
Q 3744 4066 3744 3513 
Q 3744 3084 3544 2831 
Q 3344 2578 2956 2516 
Q 3422 2416 3680 2098 
Q 3938 1781 3938 1306 
Q 3938 681 3513 340 
Q 3088 0 2303 0 
L 628 0 
L 628 4666 
z
" transform="scale(0.015625)"/>
     </defs>
     <use xlink:href="#DejaVuSans-42"/>
     <use xlink:href="#DejaVuSans-65" x="68.603516"/>
     <use xlink:href="#DejaVuSans-6e" x="130.126953"/>
     <use xlink:href="#DejaVuSans-69" x="193.505859"/>
     <use xlink:href="#DejaVuSans-67" x="221.289062"/>
     <use xlink:href="#DejaVuSans-6e" x="284.765625"/>
    </g>
   </g>
   <g id="line2d_76">
    <path d="M 950.6 64.348438 
L 964.6 64.348438 
L 978.6 64.348438 
" style="fill: none; stroke: #e19252; stroke-width: 1.2; stroke-linecap: round"/>
   </g>
   <g id="text_42">
    <!-- Malignant -->
    <g style="fill: #262626" transform="translate(989.8 69.248438)scale(0.14 -0.14)">
     <defs>
      <path id="DejaVuSans-4d" d="M 628 4666 
L 1569 4666 
L 2759 1491 
L 3956 4666 
L 4897 4666 
L 4897 0 
L 4281 0 
L 4281 4097 
L 3078 897 
L 2444 897 
L 1241 4097 
L 1241 0 
L 628 0 
L 628 4666 
z
" transform="scale(0.015625)"/>
     </defs>
     <use xlink:href="#DejaVuSans-4d"/>
     <use xlink:href="#DejaVuSans-61" x="86.279297"/>
     <use xlink:href="#DejaVuSans-6c" x="147.558594"/>
     <use xlink:href="#DejaVuSans-69" x="175.341797"/>
     <use xlink:href="#DejaVuSans-67" x="203.125"/>
     <use xlink:href="#DejaVuSans-6e" x="266.601562"/>
     <use xlink:href="#DejaVuSans-61" x="329.980469"/>
     <use xlink:href="#DejaVuSans-6e" x="391.259766"/>
     <use xlink:href="#DejaVuSans-74" x="454.638672"/>
    </g>
   </g>
  </g>
 </g>
 <defs>
  <clipPath id="p9522422f75">
   <rect x="85.411" y="85.472" width="476.5585" height="261.378"/>
  </clipPath>
  <clipPath id="pa8052b3d05">
   <rect x="582.7055" y="85.472" width="476.5585" height="261.378"/>
  </clipPath>
  <clipPath id="p8bb3a7eba7">
   <rect x="85.411" y="388.586" width="476.5585" height="261.378"/>
  </clipPath>
  <clipPath id="p759754e5ed">
   <rect x="582.7055" y="388.586" width="476.5585" height="261.378"/>
  </clipPath>
 </defs>
</svg>
