<?xml version="1.0" encoding="utf-8" standalone="no"?>
<!DOCTYPE svg PUBLIC "-//W3C//DTD SVG 1.1//EN"
  "http://www.w3.org/Graphics/SVG/1.1/DTD/svg11.dtd">
<svg xmlns:xlink="http://www.w3.org/1999/xlink" width="1080pt" height="720pt" viewBox="0 0 1080 720" xmlns="http://www.w3.org/2000/svg" version="1.1">
 <metadata>
  <rdf:RDF xmlns:dc="http://purl.org/dc/elements/1.1/" xmlns:cc="http://creativecommons.org/ns#" xmlns:rdf="http://www.w3.org/1999/02/22-rdf-syntax-ns#">
   <cc:Work>
    <dc:type rdf:resource="http://purl.org/dc/dcmitype/StillImage"/>
    <dc:date>2022-05-20T16:37:30.695940</dc:date>
    <dc:format>image/svg+xml</dc:format>
    <dc:creator>
     <cc:Agent>
      <dc:title>Matplotlib v3.5.2, https://matplotlib.org/</dc:title>
     </cc:Agent>
    </dc:creator>
   </cc:Work>
  </rdf:RDF>
 </metadata>
 <defs>
  <style type="text/css">*{stroke-linejoin: round; stroke-linecap: butt}</style>
 </defs>
 <g id="figure_1">
  <g id="patch_1">
   <path d="M 0 720 
L 1080 720 
L 1080 0 
L 0 0 
z
" style="fill: #ffffff"/>
  </g>
  <g id="axes_1">
   <g id="patch_2">
    <path d="M 80.411 340.396875 
L 532.0695 340.396875 
L 532.0695 81.56575 
L 80.411 81.56575 
z
" style="fill: #ffffff"/>
   </g>
   <g id="matplotlib.axis_1">
    <g id="xtick_1">
     <g id="line2d_1">
      <path d="M 100.940932 340.396875 
L 100.940932 81.56575 
" clip-path="url(#pd9c008ad5c)" style="fill: none; stroke: #cccccc; stroke-width: 0.8; stroke-linecap: round"/>
     </g>
    </g>
    <g id="xtick_2">
     <g id="line2d_2">
      <path d="M 183.060659 340.396875 
L 183.060659 81.56575 
" clip-path="url(#pd9c008ad5c)" style="fill: none; stroke: #cccccc; stroke-width: 0.8; stroke-linecap: round"/>
     </g>
    </g>
    <g id="xtick_3">
     <g id="line2d_3">
      <path d="M 265.180386 340.396875 
L 265.180386 81.56575 
" clip-path="url(#pd9c008ad5c)" style="fill: none; stroke: #cccccc; stroke-width: 0.8; stroke-linecap: round"/>
     </g>
    </g>
    <g id="xtick_4">
     <g id="line2d_4">
      <path d="M 347.300114 340.396875 
L 347.300114 81.56575 
" clip-path="url(#pd9c008ad5c)" style="fill: none; stroke: #cccccc; stroke-width: 0.8; stroke-linecap: round"/>
     </g>
    </g>
    <g id="xtick_5">
     <g id="line2d_5">
      <path d="M 429.419841 340.396875 
L 429.419841 81.56575 
" clip-path="url(#pd9c008ad5c)" style="fill: none; stroke: #cccccc; stroke-width: 0.8; stroke-linecap: round"/>
     </g>
    </g>
    <g id="xtick_6">
     <g id="line2d_6">
      <path d="M 511.539568 340.396875 
L 511.539568 81.56575 
" clip-path="url(#pd9c008ad5c)" style="fill: none; stroke: #cccccc; stroke-width: 0.8; stroke-linecap: round"/>
     </g>
    </g>
   </g>
   <g id="matplotlib.axis_2">
    <g id="ytick_1">
     <g id="line2d_7">
      <path d="M 80.411 328.631824 
L 532.0695 328.631824 
" clip-path="url(#pd9c008ad5c)" style="fill: none; stroke: #cccccc; stroke-width: 0.8; stroke-linecap: round"/>
     </g>
     <g id="text_1">
      <!-- 40 -->
      <g style="fill: #262626" transform="translate(52.5365 334.930699)scale(0.176 -0.176)">
       <defs>
        <path id="ArialMT-34" d="M 2069 0 
L 2069 1097 
L 81 1097 
L 81 1613 
L 2172 4581 
L 2631 4581 
L 2631 1613 
L 3250 1613 
L 3250 1097 
L 2631 1097 
L 2631 0 
L 2069 0 
z
M 2069 1613 
L 2069 3678 
L 634 1613 
L 2069 1613 
z
" transform="scale(0.015625)"/>
        <path id="ArialMT-30" d="M 266 2259 
Q 266 3072 433 3567 
Q 600 4063 929 4331 
Q 1259 4600 1759 4600 
Q 2128 4600 2406 4451 
Q 2684 4303 2865 4023 
Q 3047 3744 3150 3342 
Q 3253 2941 3253 2259 
Q 3253 1453 3087 958 
Q 2922 463 2592 192 
Q 2263 -78 1759 -78 
Q 1097 -78 719 397 
Q 266 969 266 2259 
z
M 844 2259 
Q 844 1131 1108 757 
Q 1372 384 1759 384 
Q 2147 384 2411 759 
Q 2675 1134 2675 2259 
Q 2675 3391 2411 3762 
Q 2147 4134 1753 4134 
Q 1366 4134 1134 3806 
Q 844 3388 844 2259 
z
" transform="scale(0.015625)"/>
       </defs>
       <use xlink:href="#ArialMT-34"/>
       <use xlink:href="#ArialMT-30" x="55.615234"/>
      </g>
     </g>
    </g>
    <g id="ytick_2">
     <g id="line2d_8">
      <path d="M 80.411 289.414987 
L 532.0695 289.414987 
" clip-path="url(#pd9c008ad5c)" style="fill: none; stroke: #cccccc; stroke-width: 0.8; stroke-linecap: round"/>
     </g>
     <g id="text_2">
      <!-- 50 -->
      <g style="fill: #262626" transform="translate(52.5365 295.713862)scale(0.176 -0.176)">
       <defs>
        <path id="ArialMT-35" d="M 266 1200 
L 856 1250 
Q 922 819 1161 601 
Q 1400 384 1738 384 
Q 2144 384 2425 690 
Q 2706 997 2706 1503 
Q 2706 1984 2436 2262 
Q 2166 2541 1728 2541 
Q 1456 2541 1237 2417 
Q 1019 2294 894 2097 
L 366 2166 
L 809 4519 
L 3088 4519 
L 3088 3981 
L 1259 3981 
L 1013 2750 
Q 1425 3038 1878 3038 
Q 2478 3038 2890 2622 
Q 3303 2206 3303 1553 
Q 3303 931 2941 478 
Q 2500 -78 1738 -78 
Q 1113 -78 717 272 
Q 322 622 266 1200 
z
" transform="scale(0.015625)"/>
       </defs>
       <use xlink:href="#ArialMT-35"/>
       <use xlink:href="#ArialMT-30" x="55.615234"/>
      </g>
     </g>
    </g>
    <g id="ytick_3">
     <g id="line2d_9">
      <path d="M 80.411 250.19815 
L 532.0695 250.19815 
" clip-path="url(#pd9c008ad5c)" style="fill: none; stroke: #cccccc; stroke-width: 0.8; stroke-linecap: round"/>
     </g>
     <g id="text_3">
      <!-- 60 -->
      <g style="fill: #262626" transform="translate(52.5365 256.497025)scale(0.176 -0.176)">
       <defs>
        <path id="ArialMT-36" d="M 3184 3459 
L 2625 3416 
Q 2550 3747 2413 3897 
Q 2184 4138 1850 4138 
Q 1581 4138 1378 3988 
Q 1113 3794 959 3422 
Q 806 3050 800 2363 
Q 1003 2672 1297 2822 
Q 1591 2972 1913 2972 
Q 2475 2972 2870 2558 
Q 3266 2144 3266 1488 
Q 3266 1056 3080 686 
Q 2894 316 2569 119 
Q 2244 -78 1831 -78 
Q 1128 -78 684 439 
Q 241 956 241 2144 
Q 241 3472 731 4075 
Q 1159 4600 1884 4600 
Q 2425 4600 2770 4297 
Q 3116 3994 3184 3459 
z
M 888 1484 
Q 888 1194 1011 928 
Q 1134 663 1356 523 
Q 1578 384 1822 384 
Q 2178 384 2434 671 
Q 2691 959 2691 1453 
Q 2691 1928 2437 2201 
Q 2184 2475 1800 2475 
Q 1419 2475 1153 2201 
Q 888 1928 888 1484 
z
" transform="scale(0.015625)"/>
       </defs>
       <use xlink:href="#ArialMT-36"/>
       <use xlink:href="#ArialMT-30" x="55.615234"/>
      </g>
     </g>
    </g>
    <g id="ytick_4">
     <g id="line2d_10">
      <path d="M 80.411 210.981312 
L 532.0695 210.981312 
" clip-path="url(#pd9c008ad5c)" style="fill: none; stroke: #cccccc; stroke-width: 0.8; stroke-linecap: round"/>
     </g>
     <g id="text_4">
      <!-- 70 -->
      <g style="fill: #262626" transform="translate(52.5365 217.280187)scale(0.176 -0.176)">
       <defs>
        <path id="ArialMT-37" d="M 303 3981 
L 303 4522 
L 3269 4522 
L 3269 4084 
Q 2831 3619 2401 2847 
Q 1972 2075 1738 1259 
Q 1569 684 1522 0 
L 944 0 
Q 953 541 1156 1306 
Q 1359 2072 1739 2783 
Q 2119 3494 2547 3981 
L 303 3981 
z
" transform="scale(0.015625)"/>
       </defs>
       <use xlink:href="#ArialMT-37"/>
       <use xlink:href="#ArialMT-30" x="55.615234"/>
      </g>
     </g>
    </g>
    <g id="ytick_5">
     <g id="line2d_11">
      <path d="M 80.411 171.764475 
L 532.0695 171.764475 
" clip-path="url(#pd9c008ad5c)" style="fill: none; stroke: #cccccc; stroke-width: 0.8; stroke-linecap: round"/>
     </g>
     <g id="text_5">
      <!-- 80 -->
      <g style="fill: #262626" transform="translate(52.5365 178.06335)scale(0.176 -0.176)">
       <defs>
        <path id="ArialMT-38" d="M 1131 2484 
Q 781 2613 612 2850 
Q 444 3088 444 3419 
Q 444 3919 803 4259 
Q 1163 4600 1759 4600 
Q 2359 4600 2725 4251 
Q 3091 3903 3091 3403 
Q 3091 3084 2923 2848 
Q 2756 2613 2416 2484 
Q 2838 2347 3058 2040 
Q 3278 1734 3278 1309 
Q 3278 722 2862 322 
Q 2447 -78 1769 -78 
Q 1091 -78 675 323 
Q 259 725 259 1325 
Q 259 1772 486 2073 
Q 713 2375 1131 2484 
z
M 1019 3438 
Q 1019 3113 1228 2906 
Q 1438 2700 1772 2700 
Q 2097 2700 2305 2904 
Q 2513 3109 2513 3406 
Q 2513 3716 2298 3927 
Q 2084 4138 1766 4138 
Q 1444 4138 1231 3931 
Q 1019 3725 1019 3438 
z
M 838 1322 
Q 838 1081 952 856 
Q 1066 631 1291 507 
Q 1516 384 1775 384 
Q 2178 384 2440 643 
Q 2703 903 2703 1303 
Q 2703 1709 2433 1975 
Q 2163 2241 1756 2241 
Q 1359 2241 1098 1978 
Q 838 1716 838 1322 
z
" transform="scale(0.015625)"/>
       </defs>
       <use xlink:href="#ArialMT-38"/>
       <use xlink:href="#ArialMT-30" x="55.615234"/>
      </g>
     </g>
    </g>
    <g id="ytick_6">
     <g id="line2d_12">
      <path d="M 80.411 132.547638 
L 532.0695 132.547638 
" clip-path="url(#pd9c008ad5c)" style="fill: none; stroke: #cccccc; stroke-width: 0.8; stroke-linecap: round"/>
     </g>
     <g id="text_6">
      <!-- 90 -->
      <g style="fill: #262626" transform="translate(52.5365 138.846513)scale(0.176 -0.176)">
       <defs>
        <path id="ArialMT-39" d="M 350 1059 
L 891 1109 
Q 959 728 1153 556 
Q 1347 384 1650 384 
Q 1909 384 2104 503 
Q 2300 622 2425 820 
Q 2550 1019 2634 1356 
Q 2719 1694 2719 2044 
Q 2719 2081 2716 2156 
Q 2547 1888 2255 1720 
Q 1963 1553 1622 1553 
Q 1053 1553 659 1965 
Q 266 2378 266 3053 
Q 266 3750 677 4175 
Q 1088 4600 1706 4600 
Q 2153 4600 2523 4359 
Q 2894 4119 3086 3673 
Q 3278 3228 3278 2384 
Q 3278 1506 3087 986 
Q 2897 466 2520 194 
Q 2144 -78 1638 -78 
Q 1100 -78 759 220 
Q 419 519 350 1059 
z
M 2653 3081 
Q 2653 3566 2395 3850 
Q 2138 4134 1775 4134 
Q 1400 4134 1122 3828 
Q 844 3522 844 3034 
Q 844 2597 1108 2323 
Q 1372 2050 1759 2050 
Q 2150 2050 2401 2323 
Q 2653 2597 2653 3081 
z
" transform="scale(0.015625)"/>
       </defs>
       <use xlink:href="#ArialMT-39"/>
       <use xlink:href="#ArialMT-30" x="55.615234"/>
      </g>
     </g>
    </g>
    <g id="ytick_7">
     <g id="line2d_13">
      <path d="M 80.411 93.330801 
L 532.0695 93.330801 
" clip-path="url(#pd9c008ad5c)" style="fill: none; stroke: #cccccc; stroke-width: 0.8; stroke-linecap: round"/>
     </g>
     <g id="text_7">
      <!-- 100 -->
      <g style="fill: #262626" transform="translate(42.74925 99.629676)scale(0.176 -0.176)">
       <defs>
        <path id="ArialMT-31" d="M 2384 0 
L 1822 0 
L 1822 3584 
Q 1619 3391 1289 3197 
Q 959 3003 697 2906 
L 697 3450 
Q 1169 3672 1522 3987 
Q 1875 4303 2022 4600 
L 2384 4600 
L 2384 0 
z
" transform="scale(0.015625)"/>
       </defs>
       <use xlink:href="#ArialMT-31"/>
       <use xlink:href="#ArialMT-30" x="55.615234"/>
       <use xlink:href="#ArialMT-30" x="111.230469"/>
      </g>
     </g>
    </g>
    <g id="text_8">
     <!-- Percentage of variability -->
     <g style="fill: #262626" transform="translate(34.70825 313.429813)rotate(-90)scale(0.192 -0.192)">
      <defs>
       <path id="ArialMT-50" d="M 494 0 
L 494 4581 
L 2222 4581 
Q 2678 4581 2919 4538 
Q 3256 4481 3484 4323 
Q 3713 4166 3852 3881 
Q 3991 3597 3991 3256 
Q 3991 2672 3619 2267 
Q 3247 1863 2275 1863 
L 1100 1863 
L 1100 0 
L 494 0 
z
M 1100 2403 
L 2284 2403 
Q 2872 2403 3119 2622 
Q 3366 2841 3366 3238 
Q 3366 3525 3220 3729 
Q 3075 3934 2838 4000 
Q 2684 4041 2272 4041 
L 1100 4041 
L 1100 2403 
z
" transform="scale(0.015625)"/>
       <path id="ArialMT-65" d="M 2694 1069 
L 3275 997 
Q 3138 488 2766 206 
Q 2394 -75 1816 -75 
Q 1088 -75 661 373 
Q 234 822 234 1631 
Q 234 2469 665 2931 
Q 1097 3394 1784 3394 
Q 2450 3394 2872 2941 
Q 3294 2488 3294 1666 
Q 3294 1616 3291 1516 
L 816 1516 
Q 847 969 1125 678 
Q 1403 388 1819 388 
Q 2128 388 2347 550 
Q 2566 713 2694 1069 
z
M 847 1978 
L 2700 1978 
Q 2663 2397 2488 2606 
Q 2219 2931 1791 2931 
Q 1403 2931 1139 2672 
Q 875 2413 847 1978 
z
" transform="scale(0.015625)"/>
       <path id="ArialMT-72" d="M 416 0 
L 416 3319 
L 922 3319 
L 922 2816 
Q 1116 3169 1280 3281 
Q 1444 3394 1641 3394 
Q 1925 3394 2219 3213 
L 2025 2691 
Q 1819 2813 1613 2813 
Q 1428 2813 1281 2702 
Q 1134 2591 1072 2394 
Q 978 2094 978 1738 
L 978 0 
L 416 0 
z
" transform="scale(0.015625)"/>
       <path id="ArialMT-63" d="M 2588 1216 
L 3141 1144 
Q 3050 572 2676 248 
Q 2303 -75 1759 -75 
Q 1078 -75 664 370 
Q 250 816 250 1647 
Q 250 2184 428 2587 
Q 606 2991 970 3192 
Q 1334 3394 1763 3394 
Q 2303 3394 2647 3120 
Q 2991 2847 3088 2344 
L 2541 2259 
Q 2463 2594 2264 2762 
Q 2066 2931 1784 2931 
Q 1359 2931 1093 2626 
Q 828 2322 828 1663 
Q 828 994 1084 691 
Q 1341 388 1753 388 
Q 2084 388 2306 591 
Q 2528 794 2588 1216 
z
" transform="scale(0.015625)"/>
       <path id="ArialMT-6e" d="M 422 0 
L 422 3319 
L 928 3319 
L 928 2847 
Q 1294 3394 1984 3394 
Q 2284 3394 2536 3286 
Q 2788 3178 2913 3003 
Q 3038 2828 3088 2588 
Q 3119 2431 3119 2041 
L 3119 0 
L 2556 0 
L 2556 2019 
Q 2556 2363 2490 2533 
Q 2425 2703 2258 2804 
Q 2091 2906 1866 2906 
Q 1506 2906 1245 2678 
Q 984 2450 984 1813 
L 984 0 
L 422 0 
z
" transform="scale(0.015625)"/>
       <path id="ArialMT-74" d="M 1650 503 
L 1731 6 
Q 1494 -44 1306 -44 
Q 1000 -44 831 53 
Q 663 150 594 308 
Q 525 466 525 972 
L 525 2881 
L 113 2881 
L 113 3319 
L 525 3319 
L 525 4141 
L 1084 4478 
L 1084 3319 
L 1650 3319 
L 1650 2881 
L 1084 2881 
L 1084 941 
Q 1084 700 1114 631 
Q 1144 563 1211 522 
Q 1278 481 1403 481 
Q 1497 481 1650 503 
z
" transform="scale(0.015625)"/>
       <path id="ArialMT-61" d="M 2588 409 
Q 2275 144 1986 34 
Q 1697 -75 1366 -75 
Q 819 -75 525 192 
Q 231 459 231 875 
Q 231 1119 342 1320 
Q 453 1522 633 1644 
Q 813 1766 1038 1828 
Q 1203 1872 1538 1913 
Q 2219 1994 2541 2106 
Q 2544 2222 2544 2253 
Q 2544 2597 2384 2738 
Q 2169 2928 1744 2928 
Q 1347 2928 1158 2789 
Q 969 2650 878 2297 
L 328 2372 
Q 403 2725 575 2942 
Q 747 3159 1072 3276 
Q 1397 3394 1825 3394 
Q 2250 3394 2515 3294 
Q 2781 3194 2906 3042 
Q 3031 2891 3081 2659 
Q 3109 2516 3109 2141 
L 3109 1391 
Q 3109 606 3145 398 
Q 3181 191 3288 0 
L 2700 0 
Q 2613 175 2588 409 
z
M 2541 1666 
Q 2234 1541 1622 1453 
Q 1275 1403 1131 1340 
Q 988 1278 909 1158 
Q 831 1038 831 891 
Q 831 666 1001 516 
Q 1172 366 1500 366 
Q 1825 366 2078 508 
Q 2331 650 2450 897 
Q 2541 1088 2541 1459 
L 2541 1666 
z
" transform="scale(0.015625)"/>
       <path id="ArialMT-67" d="M 319 -275 
L 866 -356 
Q 900 -609 1056 -725 
Q 1266 -881 1628 -881 
Q 2019 -881 2231 -725 
Q 2444 -569 2519 -288 
Q 2563 -116 2559 434 
Q 2191 0 1641 0 
Q 956 0 581 494 
Q 206 988 206 1678 
Q 206 2153 378 2554 
Q 550 2956 876 3175 
Q 1203 3394 1644 3394 
Q 2231 3394 2613 2919 
L 2613 3319 
L 3131 3319 
L 3131 450 
Q 3131 -325 2973 -648 
Q 2816 -972 2473 -1159 
Q 2131 -1347 1631 -1347 
Q 1038 -1347 672 -1080 
Q 306 -813 319 -275 
z
M 784 1719 
Q 784 1066 1043 766 
Q 1303 466 1694 466 
Q 2081 466 2343 764 
Q 2606 1063 2606 1700 
Q 2606 2309 2336 2618 
Q 2066 2928 1684 2928 
Q 1309 2928 1046 2623 
Q 784 2319 784 1719 
z
" transform="scale(0.015625)"/>
       <path id="ArialMT-20" transform="scale(0.015625)"/>
       <path id="ArialMT-6f" d="M 213 1659 
Q 213 2581 725 3025 
Q 1153 3394 1769 3394 
Q 2453 3394 2887 2945 
Q 3322 2497 3322 1706 
Q 3322 1066 3130 698 
Q 2938 331 2570 128 
Q 2203 -75 1769 -75 
Q 1072 -75 642 372 
Q 213 819 213 1659 
z
M 791 1659 
Q 791 1022 1069 705 
Q 1347 388 1769 388 
Q 2188 388 2466 706 
Q 2744 1025 2744 1678 
Q 2744 2294 2464 2611 
Q 2184 2928 1769 2928 
Q 1347 2928 1069 2612 
Q 791 2297 791 1659 
z
" transform="scale(0.015625)"/>
       <path id="ArialMT-66" d="M 556 0 
L 556 2881 
L 59 2881 
L 59 3319 
L 556 3319 
L 556 3672 
Q 556 4006 616 4169 
Q 697 4388 901 4523 
Q 1106 4659 1475 4659 
Q 1713 4659 2000 4603 
L 1916 4113 
Q 1741 4144 1584 4144 
Q 1328 4144 1222 4034 
Q 1116 3925 1116 3625 
L 1116 3319 
L 1763 3319 
L 1763 2881 
L 1116 2881 
L 1116 0 
L 556 0 
z
" transform="scale(0.015625)"/>
       <path id="ArialMT-76" d="M 1344 0 
L 81 3319 
L 675 3319 
L 1388 1331 
Q 1503 1009 1600 663 
Q 1675 925 1809 1294 
L 2547 3319 
L 3125 3319 
L 1869 0 
L 1344 0 
z
" transform="scale(0.015625)"/>
       <path id="ArialMT-69" d="M 425 3934 
L 425 4581 
L 988 4581 
L 988 3934 
L 425 3934 
z
M 425 0 
L 425 3319 
L 988 3319 
L 988 0 
L 425 0 
z
" transform="scale(0.015625)"/>
       <path id="ArialMT-62" d="M 941 0 
L 419 0 
L 419 4581 
L 981 4581 
L 981 2947 
Q 1338 3394 1891 3394 
Q 2197 3394 2470 3270 
Q 2744 3147 2920 2923 
Q 3097 2700 3197 2384 
Q 3297 2069 3297 1709 
Q 3297 856 2875 390 
Q 2453 -75 1863 -75 
Q 1275 -75 941 416 
L 941 0 
z
M 934 1684 
Q 934 1088 1097 822 
Q 1363 388 1816 388 
Q 2184 388 2453 708 
Q 2722 1028 2722 1663 
Q 2722 2313 2464 2622 
Q 2206 2931 1841 2931 
Q 1472 2931 1203 2611 
Q 934 2291 934 1684 
z
" transform="scale(0.015625)"/>
       <path id="ArialMT-6c" d="M 409 0 
L 409 4581 
L 972 4581 
L 972 0 
L 409 0 
z
" transform="scale(0.015625)"/>
       <path id="ArialMT-79" d="M 397 -1278 
L 334 -750 
Q 519 -800 656 -800 
Q 844 -800 956 -737 
Q 1069 -675 1141 -563 
Q 1194 -478 1313 -144 
Q 1328 -97 1363 -6 
L 103 3319 
L 709 3319 
L 1400 1397 
Q 1534 1031 1641 628 
Q 1738 1016 1872 1384 
L 2581 3319 
L 3144 3319 
L 1881 -56 
Q 1678 -603 1566 -809 
Q 1416 -1088 1222 -1217 
Q 1028 -1347 759 -1347 
Q 597 -1347 397 -1278 
z
" transform="scale(0.015625)"/>
      </defs>
      <use xlink:href="#ArialMT-50"/>
      <use xlink:href="#ArialMT-65" x="66.699219"/>
      <use xlink:href="#ArialMT-72" x="122.314453"/>
      <use xlink:href="#ArialMT-63" x="155.615234"/>
      <use xlink:href="#ArialMT-65" x="205.615234"/>
      <use xlink:href="#ArialMT-6e" x="261.230469"/>
      <use xlink:href="#ArialMT-74" x="316.845703"/>
      <use xlink:href="#ArialMT-61" x="344.628906"/>
      <use xlink:href="#ArialMT-67" x="400.244141"/>
      <use xlink:href="#ArialMT-65" x="455.859375"/>
      <use xlink:href="#ArialMT-20" x="511.474609"/>
      <use xlink:href="#ArialMT-6f" x="539.257812"/>
      <use xlink:href="#ArialMT-66" x="594.873047"/>
      <use xlink:href="#ArialMT-20" x="622.65625"/>
      <use xlink:href="#ArialMT-76" x="650.439453"/>
      <use xlink:href="#ArialMT-61" x="700.439453"/>
      <use xlink:href="#ArialMT-72" x="756.054688"/>
      <use xlink:href="#ArialMT-69" x="789.355469"/>
      <use xlink:href="#ArialMT-61" x="811.572266"/>
      <use xlink:href="#ArialMT-62" x="867.1875"/>
      <use xlink:href="#ArialMT-69" x="922.802734"/>
      <use xlink:href="#ArialMT-6c" x="945.019531"/>
      <use xlink:href="#ArialMT-69" x="967.236328"/>
      <use xlink:href="#ArialMT-74" x="989.453125"/>
      <use xlink:href="#ArialMT-79" x="1017.236328"/>
     </g>
    </g>
   </g>
   <g id="PolyCollection_1">
    <defs>
     <path id="mc9569f6c93" d="M 142.000795 -627.745456 
L 142.000795 -624.27026 
L 183.060659 -625.175117 
L 224.120523 -622.326607 
L 265.180386 -621.005302 
L 306.24025 -620.570647 
L 347.300114 -618.564879 
L 388.359977 -619.490025 
L 429.419841 -620.406453 
L 470.479705 -621.254027 
L 511.539568 -621.37687 
L 511.539568 -630.65304 
L 511.539568 -630.65304 
L 470.479705 -630.32587 
L 429.419841 -629.476508 
L 388.359977 -628.170853 
L 347.300114 -627.862504 
L 306.24025 -630.365114 
L 265.180386 -629.099131 
L 224.120523 -627.536015 
L 183.060659 -629.273854 
L 142.000795 -627.745456 
z
" style="stroke: #008000; stroke-opacity: 0.2; stroke-width: 0.8"/>
    </defs>
    <g clip-path="url(#pd9c008ad5c)">
     <use xlink:href="#mc9569f6c93" x="0" y="720" style="fill: #008000; fill-opacity: 0.2; stroke: #008000; stroke-opacity: 0.2; stroke-width: 0.8"/>
    </g>
   </g>
   <g id="PolyCollection_2">
    <defs>
     <path id="mce17b52a19" d="M 142.000795 -632.343148 
L 142.000795 -598.498193 
L 183.060659 -576.090918 
L 224.120523 -560.540485 
L 265.180386 -532.092858 
L 306.24025 -520.518607 
L 347.300114 -500.220771 
L 388.359977 -480.352558 
L 429.419841 -462.634383 
L 470.479705 -461.4737 
L 511.539568 -450.428374 
L 511.539568 -505.874053 
L 511.539568 -505.874053 
L 470.479705 -515.944293 
L 429.419841 -529.561429 
L 388.359977 -549.77218 
L 347.300114 -554.440753 
L 306.24025 -576.980512 
L 265.180386 -591.902034 
L 224.120523 -614.606176 
L 183.060659 -631.305255 
L 142.000795 -632.343148 
z
" style="stroke: #6786c6; stroke-opacity: 0.2; stroke-width: 0.8"/>
    </defs>
    <g clip-path="url(#pd9c008ad5c)">
     <use xlink:href="#mce17b52a19" x="0" y="720" style="fill: #6786c6; fill-opacity: 0.2; stroke: #6786c6; stroke-opacity: 0.2; stroke-width: 0.8"/>
    </g>
   </g>
   <g id="PolyCollection_3">
    <defs>
     <path id="m1eea82bba3" d="M 142.000795 -627.884894 
L 142.000795 -615.759184 
L 183.060659 -617.113719 
L 224.120523 -608.988422 
L 265.180386 -600.773626 
L 306.24025 -594.989949 
L 347.300114 -587.510429 
L 388.359977 -583.56006 
L 429.419841 -574.03592 
L 470.479705 -565.356238 
L 511.539568 -559.607178 
L 511.539568 -617.286308 
L 511.539568 -617.286308 
L 470.479705 -624.273383 
L 429.419841 -630.240465 
L 388.359977 -623.411825 
L 347.300114 -619.641779 
L 306.24025 -624.886296 
L 265.180386 -624.808934 
L 224.120523 -621.751703 
L 183.060659 -626.379987 
L 142.000795 -627.884894 
z
" style="stroke: #e19252; stroke-opacity: 0.2; stroke-width: 0.8"/>
    </defs>
    <g clip-path="url(#pd9c008ad5c)">
     <use xlink:href="#m1eea82bba3" x="0" y="720" style="fill: #e19252; fill-opacity: 0.2; stroke: #e19252; stroke-opacity: 0.2; stroke-width: 0.8"/>
    </g>
   </g>
   <g id="line2d_14">
    <path d="M 100.940932 93.330801 
L 142.000795 94.025523 
L 183.060659 92.749623 
L 224.120523 94.929584 
L 265.180386 94.916059 
L 306.24025 94.451773 
L 347.300114 96.521046 
L 388.359977 95.86609 
L 429.419841 94.787294 
L 470.479705 93.923134 
L 511.539568 93.745163 
" clip-path="url(#pd9c008ad5c)" style="fill: none; stroke: #008000; stroke-width: 1.2; stroke-linecap: round"/>
   </g>
   <g id="line2d_15">
    <path d="M 100.940932 93.330801 
L 142.000795 102.968856 
L 183.060659 115.500431 
L 224.120523 133.475078 
L 265.180386 160.317129 
L 306.24025 172.820923 
L 347.300114 195.211134 
L 388.359977 208.717557 
L 429.419841 227.768686 
L 470.479705 233.03879 
L 511.539568 243.529793 
" clip-path="url(#pd9c008ad5c)" style="fill: none; stroke: #6786c6; stroke-width: 1.2; stroke-linecap: round"/>
   </g>
   <g id="line2d_16">
    <path d="M 100.940932 93.330801 
L 142.000795 98.234539 
L 183.060659 97.742598 
L 224.120523 104.396204 
L 265.180386 106.800881 
L 306.24025 109.490157 
L 347.300114 116.075073 
L 388.359977 115.902745 
L 429.419841 117.100992 
L 470.479705 124.552409 
L 511.539568 130.520319 
" clip-path="url(#pd9c008ad5c)" style="fill: none; stroke: #e19252; stroke-width: 1.2; stroke-linecap: round"/>
   </g>
   <g id="line2d_17"/>
   <g id="line2d_18"/>
   <g id="line2d_19"/>
   <g id="patch_3">
    <path d="M 80.411 340.396875 
L 80.411 81.56575 
" style="fill: none; stroke: #cccccc; stroke-linejoin: miter; stroke-linecap: square"/>
   </g>
   <g id="patch_4">
    <path d="M 532.0695 340.396875 
L 532.0695 81.56575 
" style="fill: none; stroke: #cccccc; stroke-linejoin: miter; stroke-linecap: square"/>
   </g>
   <g id="patch_5">
    <path d="M 80.411 340.396875 
L 532.0695 340.396875 
" style="fill: none; stroke: #cccccc; stroke-linejoin: miter; stroke-linecap: square"/>
   </g>
   <g id="patch_6">
    <path d="M 80.411 81.56575 
L 532.0695 81.56575 
" style="fill: none; stroke: #cccccc; stroke-linejoin: miter; stroke-linecap: square"/>
   </g>
   <g id="text_9">
    <!-- a -->
    <g style="fill: #262626" transform="translate(80.411 77.77675)scale(0.192 -0.192)">
     <defs>
      <path id="Arial-BoldMT-61" d="M 1116 2306 
L 319 2450 
Q 453 2931 781 3162 
Q 1109 3394 1756 3394 
Q 2344 3394 2631 3255 
Q 2919 3116 3036 2902 
Q 3153 2688 3153 2116 
L 3144 1091 
Q 3144 653 3186 445 
Q 3228 238 3344 0 
L 2475 0 
Q 2441 88 2391 259 
Q 2369 338 2359 363 
Q 2134 144 1878 34 
Q 1622 -75 1331 -75 
Q 819 -75 523 203 
Q 228 481 228 906 
Q 228 1188 362 1408 
Q 497 1628 739 1745 
Q 981 1863 1438 1950 
Q 2053 2066 2291 2166 
L 2291 2253 
Q 2291 2506 2166 2614 
Q 2041 2722 1694 2722 
Q 1459 2722 1328 2630 
Q 1197 2538 1116 2306 
z
M 2291 1594 
Q 2122 1538 1756 1459 
Q 1391 1381 1278 1306 
Q 1106 1184 1106 997 
Q 1106 813 1243 678 
Q 1381 544 1594 544 
Q 1831 544 2047 700 
Q 2206 819 2256 991 
Q 2291 1103 2291 1419 
L 2291 1594 
z
" transform="scale(0.015625)"/>
     </defs>
     <use xlink:href="#Arial-BoldMT-61"/>
    </g>
   </g>
   <g id="text_10">
    <!-- Dim. 1 -->
    <g style="fill: #262626" transform="translate(278.50525 75.56575)scale(0.192 -0.192)">
     <defs>
      <path id="ArialMT-44" d="M 494 0 
L 494 4581 
L 2072 4581 
Q 2606 4581 2888 4516 
Q 3281 4425 3559 4188 
Q 3922 3881 4101 3404 
Q 4281 2928 4281 2316 
Q 4281 1794 4159 1391 
Q 4038 988 3847 723 
Q 3656 459 3429 307 
Q 3203 156 2883 78 
Q 2563 0 2147 0 
L 494 0 
z
M 1100 541 
L 2078 541 
Q 2531 541 2789 625 
Q 3047 709 3200 863 
Q 3416 1078 3536 1442 
Q 3656 1806 3656 2325 
Q 3656 3044 3420 3430 
Q 3184 3816 2847 3947 
Q 2603 4041 2063 4041 
L 1100 4041 
L 1100 541 
z
" transform="scale(0.015625)"/>
      <path id="ArialMT-6d" d="M 422 0 
L 422 3319 
L 925 3319 
L 925 2853 
Q 1081 3097 1340 3245 
Q 1600 3394 1931 3394 
Q 2300 3394 2536 3241 
Q 2772 3088 2869 2813 
Q 3263 3394 3894 3394 
Q 4388 3394 4653 3120 
Q 4919 2847 4919 2278 
L 4919 0 
L 4359 0 
L 4359 2091 
Q 4359 2428 4304 2576 
Q 4250 2725 4106 2815 
Q 3963 2906 3769 2906 
Q 3419 2906 3187 2673 
Q 2956 2441 2956 1928 
L 2956 0 
L 2394 0 
L 2394 2156 
Q 2394 2531 2256 2718 
Q 2119 2906 1806 2906 
Q 1569 2906 1367 2781 
Q 1166 2656 1075 2415 
Q 984 2175 984 1722 
L 984 0 
L 422 0 
z
" transform="scale(0.015625)"/>
      <path id="ArialMT-2e" d="M 581 0 
L 581 641 
L 1222 641 
L 1222 0 
L 581 0 
z
" transform="scale(0.015625)"/>
     </defs>
     <use xlink:href="#ArialMT-44"/>
     <use xlink:href="#ArialMT-69" x="72.216797"/>
     <use xlink:href="#ArialMT-6d" x="94.433594"/>
     <use xlink:href="#ArialMT-2e" x="177.734375"/>
     <use xlink:href="#ArialMT-20" x="205.517578"/>
     <use xlink:href="#ArialMT-31" x="233.300781"/>
    </g>
   </g>
  </g>
  <g id="axes_2">
   <g id="patch_7">
    <path d="M 607.6055 340.396875 
L 1059.264 340.396875 
L 1059.264 81.56575 
L 607.6055 81.56575 
z
" style="fill: #ffffff"/>
   </g>
   <g id="matplotlib.axis_3">
    <g id="xtick_7">
     <g id="line2d_20">
      <path d="M 628.135432 340.396875 
L 628.135432 81.56575 
" clip-path="url(#p1a7379cd9a)" style="fill: none; stroke: #cccccc; stroke-width: 0.8; stroke-linecap: round"/>
     </g>
    </g>
    <g id="xtick_8">
     <g id="line2d_21">
      <path d="M 710.255159 340.396875 
L 710.255159 81.56575 
" clip-path="url(#p1a7379cd9a)" style="fill: none; stroke: #cccccc; stroke-width: 0.8; stroke-linecap: round"/>
     </g>
    </g>
    <g id="xtick_9">
     <g id="line2d_22">
      <path d="M 792.374886 340.396875 
L 792.374886 81.56575 
" clip-path="url(#p1a7379cd9a)" style="fill: none; stroke: #cccccc; stroke-width: 0.8; stroke-linecap: round"/>
     </g>
    </g>
    <g id="xtick_10">
     <g id="line2d_23">
      <path d="M 874.494614 340.396875 
L 874.494614 81.56575 
" clip-path="url(#p1a7379cd9a)" style="fill: none; stroke: #cccccc; stroke-width: 0.8; stroke-linecap: round"/>
     </g>
    </g>
    <g id="xtick_11">
     <g id="line2d_24">
      <path d="M 956.614341 340.396875 
L 956.614341 81.56575 
" clip-path="url(#p1a7379cd9a)" style="fill: none; stroke: #cccccc; stroke-width: 0.8; stroke-linecap: round"/>
     </g>
    </g>
    <g id="xtick_12">
     <g id="line2d_25">
      <path d="M 1038.734068 340.396875 
L 1038.734068 81.56575 
" clip-path="url(#p1a7379cd9a)" style="fill: none; stroke: #cccccc; stroke-width: 0.8; stroke-linecap: round"/>
     </g>
    </g>
   </g>
   <g id="matplotlib.axis_4">
    <g id="ytick_8">
     <g id="line2d_26">
      <path d="M 607.6055 340.396875 
L 1059.264 340.396875 
" clip-path="url(#p1a7379cd9a)" style="fill: none; stroke: #cccccc; stroke-width: 0.8; stroke-linecap: round"/>
     </g>
     <g id="text_11">
      <!-- 0.0 -->
      <g style="fill: #262626" transform="translate(574.8415 346.69575)scale(0.176 -0.176)">
       <use xlink:href="#ArialMT-30"/>
       <use xlink:href="#ArialMT-2e" x="55.615234"/>
       <use xlink:href="#ArialMT-30" x="83.398438"/>
      </g>
     </g>
    </g>
    <g id="ytick_9">
     <g id="line2d_27">
      <path d="M 607.6055 292.465185 
L 1059.264 292.465185 
" clip-path="url(#p1a7379cd9a)" style="fill: none; stroke: #cccccc; stroke-width: 0.8; stroke-linecap: round"/>
     </g>
     <g id="text_12">
      <!-- 0.5 -->
      <g style="fill: #262626" transform="translate(574.8415 298.76406)scale(0.176 -0.176)">
       <use xlink:href="#ArialMT-30"/>
       <use xlink:href="#ArialMT-2e" x="55.615234"/>
       <use xlink:href="#ArialMT-35" x="83.398438"/>
      </g>
     </g>
    </g>
    <g id="ytick_10">
     <g id="line2d_28">
      <path d="M 607.6055 244.533495 
L 1059.264 244.533495 
" clip-path="url(#p1a7379cd9a)" style="fill: none; stroke: #cccccc; stroke-width: 0.8; stroke-linecap: round"/>
     </g>
     <g id="text_13">
      <!-- 1.0 -->
      <g style="fill: #262626" transform="translate(574.8415 250.83237)scale(0.176 -0.176)">
       <use xlink:href="#ArialMT-31"/>
       <use xlink:href="#ArialMT-2e" x="55.615234"/>
       <use xlink:href="#ArialMT-30" x="83.398438"/>
      </g>
     </g>
    </g>
    <g id="ytick_11">
     <g id="line2d_29">
      <path d="M 607.6055 196.601806 
L 1059.264 196.601806 
" clip-path="url(#p1a7379cd9a)" style="fill: none; stroke: #cccccc; stroke-width: 0.8; stroke-linecap: round"/>
     </g>
     <g id="text_14">
      <!-- 1.5 -->
      <g style="fill: #262626" transform="translate(574.8415 202.900681)scale(0.176 -0.176)">
       <use xlink:href="#ArialMT-31"/>
       <use xlink:href="#ArialMT-2e" x="55.615234"/>
       <use xlink:href="#ArialMT-35" x="83.398438"/>
      </g>
     </g>
    </g>
    <g id="ytick_12">
     <g id="line2d_30">
      <path d="M 607.6055 148.670116 
L 1059.264 148.670116 
" clip-path="url(#p1a7379cd9a)" style="fill: none; stroke: #cccccc; stroke-width: 0.8; stroke-linecap: round"/>
     </g>
     <g id="text_15">
      <!-- 2.0 -->
      <g style="fill: #262626" transform="translate(574.8415 154.968991)scale(0.176 -0.176)">
       <defs>
        <path id="ArialMT-32" d="M 3222 541 
L 3222 0 
L 194 0 
Q 188 203 259 391 
Q 375 700 629 1000 
Q 884 1300 1366 1694 
Q 2113 2306 2375 2664 
Q 2638 3022 2638 3341 
Q 2638 3675 2398 3904 
Q 2159 4134 1775 4134 
Q 1369 4134 1125 3890 
Q 881 3647 878 3216 
L 300 3275 
Q 359 3922 746 4261 
Q 1134 4600 1788 4600 
Q 2447 4600 2831 4234 
Q 3216 3869 3216 3328 
Q 3216 3053 3103 2787 
Q 2991 2522 2730 2228 
Q 2469 1934 1863 1422 
Q 1356 997 1212 845 
Q 1069 694 975 541 
L 3222 541 
z
" transform="scale(0.015625)"/>
       </defs>
       <use xlink:href="#ArialMT-32"/>
       <use xlink:href="#ArialMT-2e" x="55.615234"/>
       <use xlink:href="#ArialMT-30" x="83.398438"/>
      </g>
     </g>
    </g>
    <g id="ytick_13">
     <g id="line2d_31">
      <path d="M 607.6055 100.738426 
L 1059.264 100.738426 
" clip-path="url(#p1a7379cd9a)" style="fill: none; stroke: #cccccc; stroke-width: 0.8; stroke-linecap: round"/>
     </g>
     <g id="text_16">
      <!-- 2.5 -->
      <g style="fill: #262626" transform="translate(574.8415 107.037301)scale(0.176 -0.176)">
       <use xlink:href="#ArialMT-32"/>
       <use xlink:href="#ArialMT-2e" x="55.615234"/>
       <use xlink:href="#ArialMT-35" x="83.398438"/>
      </g>
     </g>
    </g>
    <g id="text_17">
     <!-- Standard deviation -->
     <g style="fill: #262626" transform="translate(567.0255 291.033313)rotate(-90)scale(0.192 -0.192)">
      <defs>
       <path id="ArialMT-53" d="M 288 1472 
L 859 1522 
Q 900 1178 1048 958 
Q 1197 738 1509 602 
Q 1822 466 2213 466 
Q 2559 466 2825 569 
Q 3091 672 3220 851 
Q 3350 1031 3350 1244 
Q 3350 1459 3225 1620 
Q 3100 1781 2813 1891 
Q 2628 1963 1997 2114 
Q 1366 2266 1113 2400 
Q 784 2572 623 2826 
Q 463 3081 463 3397 
Q 463 3744 659 4045 
Q 856 4347 1234 4503 
Q 1613 4659 2075 4659 
Q 2584 4659 2973 4495 
Q 3363 4331 3572 4012 
Q 3781 3694 3797 3291 
L 3216 3247 
Q 3169 3681 2898 3903 
Q 2628 4125 2100 4125 
Q 1550 4125 1298 3923 
Q 1047 3722 1047 3438 
Q 1047 3191 1225 3031 
Q 1400 2872 2139 2705 
Q 2878 2538 3153 2413 
Q 3553 2228 3743 1945 
Q 3934 1663 3934 1294 
Q 3934 928 3725 604 
Q 3516 281 3123 101 
Q 2731 -78 2241 -78 
Q 1619 -78 1198 103 
Q 778 284 539 648 
Q 300 1013 288 1472 
z
" transform="scale(0.015625)"/>
       <path id="ArialMT-64" d="M 2575 0 
L 2575 419 
Q 2259 -75 1647 -75 
Q 1250 -75 917 144 
Q 584 363 401 755 
Q 219 1147 219 1656 
Q 219 2153 384 2558 
Q 550 2963 881 3178 
Q 1213 3394 1622 3394 
Q 1922 3394 2156 3267 
Q 2391 3141 2538 2938 
L 2538 4581 
L 3097 4581 
L 3097 0 
L 2575 0 
z
M 797 1656 
Q 797 1019 1065 703 
Q 1334 388 1700 388 
Q 2069 388 2326 689 
Q 2584 991 2584 1609 
Q 2584 2291 2321 2609 
Q 2059 2928 1675 2928 
Q 1300 2928 1048 2622 
Q 797 2316 797 1656 
z
" transform="scale(0.015625)"/>
      </defs>
      <use xlink:href="#ArialMT-53"/>
      <use xlink:href="#ArialMT-74" x="66.699219"/>
      <use xlink:href="#ArialMT-61" x="94.482422"/>
      <use xlink:href="#ArialMT-6e" x="150.097656"/>
      <use xlink:href="#ArialMT-64" x="205.712891"/>
      <use xlink:href="#ArialMT-61" x="261.328125"/>
      <use xlink:href="#ArialMT-72" x="316.943359"/>
      <use xlink:href="#ArialMT-64" x="350.244141"/>
      <use xlink:href="#ArialMT-20" x="405.859375"/>
      <use xlink:href="#ArialMT-64" x="433.642578"/>
      <use xlink:href="#ArialMT-65" x="489.257812"/>
      <use xlink:href="#ArialMT-76" x="544.873047"/>
      <use xlink:href="#ArialMT-69" x="594.873047"/>
      <use xlink:href="#ArialMT-61" x="617.089844"/>
      <use xlink:href="#ArialMT-74" x="672.705078"/>
      <use xlink:href="#ArialMT-69" x="700.488281"/>
      <use xlink:href="#ArialMT-6f" x="722.705078"/>
      <use xlink:href="#ArialMT-6e" x="778.320312"/>
     </g>
    </g>
   </g>
   <g id="PolyCollection_4">
    <defs>
     <path id="m5713564f8b" d="M 669.195295 -629.198645 
L 669.195295 -626.922681 
L 710.255159 -627.537063 
L 751.315023 -625.709208 
L 792.374886 -624.931098 
L 833.43475 -624.605152 
L 874.494614 -623.325728 
L 915.554477 -624.055757 
L 956.614341 -624.406067 
L 997.674205 -624.964318 
L 1038.734068 -625.133163 
L 1038.734068 -630.95574 
L 1038.734068 -630.95574 
L 997.674205 -631.007766 
L 956.614341 -630.311775 
L 915.554477 -629.31011 
L 874.494614 -629.022027 
L 833.43475 -630.774916 
L 792.374886 -629.932082 
L 751.315023 -629.095198 
L 710.255159 -630.141726 
L 669.195295 -629.198645 
z
" style="stroke: #008000; stroke-opacity: 0.2; stroke-width: 0.8"/>
    </defs>
    <g clip-path="url(#p1a7379cd9a)">
     <use xlink:href="#m5713564f8b" x="0" y="720" style="fill: #008000; fill-opacity: 0.2; stroke: #008000; stroke-opacity: 0.2; stroke-width: 0.8"/>
    </g>
   </g>
   <g id="PolyCollection_5">
    <defs>
     <path id="m1402695a7d" d="M 669.195295 -436.009098 
L 669.195295 -431.514383 
L 710.255159 -428.25485 
L 751.315023 -425.967888 
L 792.374886 -421.921959 
L 833.43475 -419.832024 
L 874.494614 -417.344021 
L 915.554477 -414.56157 
L 956.614341 -411.978299 
L 997.674205 -411.781253 
L 1038.734068 -410.288558 
L 1038.734068 -418.197377 
L 1038.734068 -418.197377 
L 997.674205 -419.436884 
L 956.614341 -421.281418 
L 915.554477 -423.790061 
L 874.494614 -425.194688 
L 833.43475 -428.3296 
L 792.374886 -430.865832 
L 751.315023 -433.607096 
L 710.255159 -436.305795 
L 669.195295 -436.009098 
z
" style="stroke: #6786c6; stroke-opacity: 0.2; stroke-width: 0.8"/>
    </defs>
    <g clip-path="url(#p1a7379cd9a)">
     <use xlink:href="#m1402695a7d" x="0" y="720" style="fill: #6786c6; fill-opacity: 0.2; stroke: #6786c6; stroke-opacity: 0.2; stroke-width: 0.8"/>
    </g>
   </g>
   <g id="PolyCollection_6">
    <defs>
     <path id="mec4bc3b1f4" d="M 669.195295 -522.304235 
L 669.195295 -518.050014 
L 710.255159 -518.371046 
L 751.315023 -515.396085 
L 792.374886 -512.270832 
L 833.43475 -510.844939 
L 874.494614 -507.704479 
L 915.554477 -506.35471 
L 956.614341 -502.835237 
L 997.674205 -500.062264 
L 1038.734068 -498.352576 
L 1038.734068 -518.48978 
L 1038.734068 -518.48978 
L 997.674205 -521.750277 
L 956.614341 -522.757565 
L 915.554477 -521.109621 
L 874.494614 -519.460543 
L 833.43475 -521.114706 
L 792.374886 -521.665589 
L 751.315023 -520.195044 
L 710.255159 -521.863086 
L 669.195295 -522.304235 
z
" style="stroke: #e19252; stroke-opacity: 0.2; stroke-width: 0.8"/>
    </defs>
    <g clip-path="url(#p1a7379cd9a)">
     <use xlink:href="#mec4bc3b1f4" x="0" y="720" style="fill: #e19252; fill-opacity: 0.2; stroke: #e19252; stroke-opacity: 0.2; stroke-width: 0.8"/>
    </g>
   </g>
   <g id="line2d_32">
    <path d="M 628.135432 91.501717 
L 669.195295 91.942632 
L 710.255159 91.132864 
L 751.315023 92.516407 
L 792.374886 92.507823 
L 833.43475 92.213157 
L 874.494614 93.526451 
L 915.554477 93.110774 
L 956.614341 92.426101 
L 997.674205 91.877649 
L 1038.734068 91.764698 
" clip-path="url(#p1a7379cd9a)" style="fill: none; stroke: #008000; stroke-width: 1.2; stroke-linecap: round"/>
   </g>
   <g id="line2d_33">
    <path d="M 628.135432 284.687121 
L 669.195295 286.056262 
L 710.255159 287.836443 
L 751.315023 290.389845 
L 792.374886 294.202911 
L 833.43475 295.979146 
L 874.494614 299.159803 
L 915.554477 301.078468 
L 956.614341 303.784789 
L 997.674205 304.533438 
L 1038.734068 306.023745 
" clip-path="url(#p1a7379cd9a)" style="fill: none; stroke: #6786c6; stroke-width: 1.2; stroke-linecap: round"/>
   </g>
   <g id="line2d_34">
    <path d="M 628.135432 198.093244 
L 669.195295 199.872632 
L 710.255159 199.694124 
L 751.315023 202.108476 
L 792.374886 202.981046 
L 833.43475 203.956886 
L 874.494614 206.346313 
L 915.554477 206.283781 
L 956.614341 206.718581 
L 997.674205 209.422429 
L 1038.734068 211.587967 
" clip-path="url(#p1a7379cd9a)" style="fill: none; stroke: #e19252; stroke-width: 1.2; stroke-linecap: round"/>
   </g>
   <g id="line2d_35"/>
   <g id="line2d_36"/>
   <g id="line2d_37"/>
   <g id="patch_8">
    <path d="M 607.6055 340.396875 
L 607.6055 81.56575 
" style="fill: none; stroke: #cccccc; stroke-linejoin: miter; stroke-linecap: square"/>
   </g>
   <g id="patch_9">
    <path d="M 1059.264 340.396875 
L 1059.264 81.56575 
" style="fill: none; stroke: #cccccc; stroke-linejoin: miter; stroke-linecap: square"/>
   </g>
   <g id="patch_10">
    <path d="M 607.6055 340.396875 
L 1059.264 340.396875 
" style="fill: none; stroke: #cccccc; stroke-linejoin: miter; stroke-linecap: square"/>
   </g>
   <g id="patch_11">
    <path d="M 607.6055 81.56575 
L 1059.264 81.56575 
" style="fill: none; stroke: #cccccc; stroke-linejoin: miter; stroke-linecap: square"/>
   </g>
   <g id="text_18">
    <!-- b -->
    <g style="fill: #262626" transform="translate(607.6055 77.77675)scale(0.192 -0.192)">
     <defs>
      <path id="Arial-BoldMT-62" d="M 422 0 
L 422 4581 
L 1300 4581 
L 1300 2931 
Q 1706 3394 2263 3394 
Q 2869 3394 3266 2955 
Q 3663 2516 3663 1694 
Q 3663 844 3258 384 
Q 2853 -75 2275 -75 
Q 1991 -75 1714 67 
Q 1438 209 1238 488 
L 1238 0 
L 422 0 
z
M 1294 1731 
Q 1294 1216 1456 969 
Q 1684 619 2063 619 
Q 2353 619 2558 867 
Q 2763 1116 2763 1650 
Q 2763 2219 2556 2470 
Q 2350 2722 2028 2722 
Q 1713 2722 1503 2476 
Q 1294 2231 1294 1731 
z
" transform="scale(0.015625)"/>
     </defs>
     <use xlink:href="#Arial-BoldMT-62"/>
    </g>
   </g>
   <g id="text_19">
    <!-- Dim. 1 -->
    <g style="fill: #262626" transform="translate(805.69975 75.56575)scale(0.192 -0.192)">
     <use xlink:href="#ArialMT-44"/>
     <use xlink:href="#ArialMT-69" x="72.216797"/>
     <use xlink:href="#ArialMT-6d" x="94.433594"/>
     <use xlink:href="#ArialMT-2e" x="177.734375"/>
     <use xlink:href="#ArialMT-20" x="205.517578"/>
     <use xlink:href="#ArialMT-31" x="233.300781"/>
    </g>
   </g>
  </g>
  <g id="axes_3">
   <g id="patch_12">
    <path d="M 80.411 650.964 
L 532.0695 650.964 
L 532.0695 392.132875 
L 80.411 392.132875 
z
" style="fill: #ffffff"/>
   </g>
   <g id="matplotlib.axis_5">
    <g id="xtick_13">
     <g id="line2d_38">
      <path d="M 100.940932 650.964 
L 100.940932 392.132875 
" clip-path="url(#p3ab53b112f)" style="fill: none; stroke: #cccccc; stroke-width: 0.8; stroke-linecap: round"/>
     </g>
     <g id="text_20">
      <!-- 0 -->
      <g style="fill: #262626" transform="translate(96.047307 671.86175)scale(0.176 -0.176)">
       <use xlink:href="#ArialMT-30"/>
      </g>
     </g>
    </g>
    <g id="xtick_14">
     <g id="line2d_39">
      <path d="M 183.060659 650.964 
L 183.060659 392.132875 
" clip-path="url(#p3ab53b112f)" style="fill: none; stroke: #cccccc; stroke-width: 0.8; stroke-linecap: round"/>
     </g>
     <g id="text_21">
      <!-- 2 -->
      <g style="fill: #262626" transform="translate(178.167034 671.86175)scale(0.176 -0.176)">
       <use xlink:href="#ArialMT-32"/>
      </g>
     </g>
    </g>
    <g id="xtick_15">
     <g id="line2d_40">
      <path d="M 265.180386 650.964 
L 265.180386 392.132875 
" clip-path="url(#p3ab53b112f)" style="fill: none; stroke: #cccccc; stroke-width: 0.8; stroke-linecap: round"/>
     </g>
     <g id="text_22">
      <!-- 4 -->
      <g style="fill: #262626" transform="translate(260.286761 671.86175)scale(0.176 -0.176)">
       <use xlink:href="#ArialMT-34"/>
      </g>
     </g>
    </g>
    <g id="xtick_16">
     <g id="line2d_41">
      <path d="M 347.300114 650.964 
L 347.300114 392.132875 
" clip-path="url(#p3ab53b112f)" style="fill: none; stroke: #cccccc; stroke-width: 0.8; stroke-linecap: round"/>
     </g>
     <g id="text_23">
      <!-- 6 -->
      <g style="fill: #262626" transform="translate(342.406489 671.86175)scale(0.176 -0.176)">
       <use xlink:href="#ArialMT-36"/>
      </g>
     </g>
    </g>
    <g id="xtick_17">
     <g id="line2d_42">
      <path d="M 429.419841 650.964 
L 429.419841 392.132875 
" clip-path="url(#p3ab53b112f)" style="fill: none; stroke: #cccccc; stroke-width: 0.8; stroke-linecap: round"/>
     </g>
     <g id="text_24">
      <!-- 8 -->
      <g style="fill: #262626" transform="translate(424.526216 671.86175)scale(0.176 -0.176)">
       <use xlink:href="#ArialMT-38"/>
      </g>
     </g>
    </g>
    <g id="xtick_18">
     <g id="line2d_43">
      <path d="M 511.539568 650.964 
L 511.539568 392.132875 
" clip-path="url(#p3ab53b112f)" style="fill: none; stroke: #cccccc; stroke-width: 0.8; stroke-linecap: round"/>
     </g>
     <g id="text_25">
      <!-- 10 -->
      <g style="fill: #262626" transform="translate(501.752318 671.86175)scale(0.176 -0.176)">
       <use xlink:href="#ArialMT-31"/>
       <use xlink:href="#ArialMT-30" x="55.615234"/>
      </g>
     </g>
    </g>
    <g id="text_26">
     <!-- iteration -->
     <g style="fill: #262626" transform="translate(272.08975 693.10275)scale(0.192 -0.192)">
      <use xlink:href="#ArialMT-69"/>
      <use xlink:href="#ArialMT-74" x="22.216797"/>
      <use xlink:href="#ArialMT-65" x="50"/>
      <use xlink:href="#ArialMT-72" x="105.615234"/>
      <use xlink:href="#ArialMT-61" x="138.916016"/>
      <use xlink:href="#ArialMT-74" x="194.53125"/>
      <use xlink:href="#ArialMT-69" x="222.314453"/>
      <use xlink:href="#ArialMT-6f" x="244.53125"/>
      <use xlink:href="#ArialMT-6e" x="300.146484"/>
     </g>
    </g>
   </g>
   <g id="matplotlib.axis_6">
    <g id="ytick_14">
     <g id="line2d_44">
      <path d="M 80.411 639.198949 
L 532.0695 639.198949 
" clip-path="url(#p3ab53b112f)" style="fill: none; stroke: #cccccc; stroke-width: 0.8; stroke-linecap: round"/>
     </g>
     <g id="text_27">
      <!-- 40 -->
      <g style="fill: #262626" transform="translate(52.5365 645.497824)scale(0.176 -0.176)">
       <use xlink:href="#ArialMT-34"/>
       <use xlink:href="#ArialMT-30" x="55.615234"/>
      </g>
     </g>
    </g>
    <g id="ytick_15">
     <g id="line2d_45">
      <path d="M 80.411 599.982112 
L 532.0695 599.982112 
" clip-path="url(#p3ab53b112f)" style="fill: none; stroke: #cccccc; stroke-width: 0.8; stroke-linecap: round"/>
     </g>
     <g id="text_28">
      <!-- 50 -->
      <g style="fill: #262626" transform="translate(52.5365 606.280987)scale(0.176 -0.176)">
       <use xlink:href="#ArialMT-35"/>
       <use xlink:href="#ArialMT-30" x="55.615234"/>
      </g>
     </g>
    </g>
    <g id="ytick_16">
     <g id="line2d_46">
      <path d="M 80.411 560.765275 
L 532.0695 560.765275 
" clip-path="url(#p3ab53b112f)" style="fill: none; stroke: #cccccc; stroke-width: 0.8; stroke-linecap: round"/>
     </g>
     <g id="text_29">
      <!-- 60 -->
      <g style="fill: #262626" transform="translate(52.5365 567.06415)scale(0.176 -0.176)">
       <use xlink:href="#ArialMT-36"/>
       <use xlink:href="#ArialMT-30" x="55.615234"/>
      </g>
     </g>
    </g>
    <g id="ytick_17">
     <g id="line2d_47">
      <path d="M 80.411 521.548437 
L 532.0695 521.548437 
" clip-path="url(#p3ab53b112f)" style="fill: none; stroke: #cccccc; stroke-width: 0.8; stroke-linecap: round"/>
     </g>
     <g id="text_30">
      <!-- 70 -->
      <g style="fill: #262626" transform="translate(52.5365 527.847313)scale(0.176 -0.176)">
       <use xlink:href="#ArialMT-37"/>
       <use xlink:href="#ArialMT-30" x="55.615234"/>
      </g>
     </g>
    </g>
    <g id="ytick_18">
     <g id="line2d_48">
      <path d="M 80.411 482.3316 
L 532.0695 482.3316 
" clip-path="url(#p3ab53b112f)" style="fill: none; stroke: #cccccc; stroke-width: 0.8; stroke-linecap: round"/>
     </g>
     <g id="text_31">
      <!-- 80 -->
      <g style="fill: #262626" transform="translate(52.5365 488.630475)scale(0.176 -0.176)">
       <use xlink:href="#ArialMT-38"/>
       <use xlink:href="#ArialMT-30" x="55.615234"/>
      </g>
     </g>
    </g>
    <g id="ytick_19">
     <g id="line2d_49">
      <path d="M 80.411 443.114763 
L 532.0695 443.114763 
" clip-path="url(#p3ab53b112f)" style="fill: none; stroke: #cccccc; stroke-width: 0.8; stroke-linecap: round"/>
     </g>
     <g id="text_32">
      <!-- 90 -->
      <g style="fill: #262626" transform="translate(52.5365 449.413638)scale(0.176 -0.176)">
       <use xlink:href="#ArialMT-39"/>
       <use xlink:href="#ArialMT-30" x="55.615234"/>
      </g>
     </g>
    </g>
    <g id="ytick_20">
     <g id="line2d_50">
      <path d="M 80.411 403.897926 
L 532.0695 403.897926 
" clip-path="url(#p3ab53b112f)" style="fill: none; stroke: #cccccc; stroke-width: 0.8; stroke-linecap: round"/>
     </g>
     <g id="text_33">
      <!-- 100 -->
      <g style="fill: #262626" transform="translate(42.74925 410.196801)scale(0.176 -0.176)">
       <use xlink:href="#ArialMT-31"/>
       <use xlink:href="#ArialMT-30" x="55.615234"/>
       <use xlink:href="#ArialMT-30" x="111.230469"/>
      </g>
     </g>
    </g>
    <g id="text_34">
     <!-- Percentage of variability -->
     <g style="fill: #262626" transform="translate(34.70825 623.996937)rotate(-90)scale(0.192 -0.192)">
      <use xlink:href="#ArialMT-50"/>
      <use xlink:href="#ArialMT-65" x="66.699219"/>
      <use xlink:href="#ArialMT-72" x="122.314453"/>
      <use xlink:href="#ArialMT-63" x="155.615234"/>
      <use xlink:href="#ArialMT-65" x="205.615234"/>
      <use xlink:href="#ArialMT-6e" x="261.230469"/>
      <use xlink:href="#ArialMT-74" x="316.845703"/>
      <use xlink:href="#ArialMT-61" x="344.628906"/>
      <use xlink:href="#ArialMT-67" x="400.244141"/>
      <use xlink:href="#ArialMT-65" x="455.859375"/>
      <use xlink:href="#ArialMT-20" x="511.474609"/>
      <use xlink:href="#ArialMT-6f" x="539.257812"/>
      <use xlink:href="#ArialMT-66" x="594.873047"/>
      <use xlink:href="#ArialMT-20" x="622.65625"/>
      <use xlink:href="#ArialMT-76" x="650.439453"/>
      <use xlink:href="#ArialMT-61" x="700.439453"/>
      <use xlink:href="#ArialMT-72" x="756.054688"/>
      <use xlink:href="#ArialMT-69" x="789.355469"/>
      <use xlink:href="#ArialMT-61" x="811.572266"/>
      <use xlink:href="#ArialMT-62" x="867.1875"/>
      <use xlink:href="#ArialMT-69" x="922.802734"/>
      <use xlink:href="#ArialMT-6c" x="945.019531"/>
      <use xlink:href="#ArialMT-69" x="967.236328"/>
      <use xlink:href="#ArialMT-74" x="989.453125"/>
      <use xlink:href="#ArialMT-79" x="1017.236328"/>
     </g>
    </g>
   </g>
   <g id="PolyCollection_7">
    <defs>
     <path id="mac9fbaaaf7" d="M 142.000795 -288.546388 
L 142.000795 -269.911724 
L 183.060659 -262.440693 
L 224.120523 -243.611692 
L 265.180386 -223.295355 
L 306.24025 -218.095932 
L 347.300114 -213.169585 
L 388.359977 -206.652688 
L 429.419841 -202.701081 
L 470.479705 -203.258362 
L 511.539568 -198.262255 
L 511.539568 -237.659312 
L 511.539568 -237.659312 
L 470.479705 -244.805195 
L 429.419841 -247.866562 
L 388.359977 -253.423008 
L 347.300114 -254.473884 
L 306.24025 -262.778065 
L 265.180386 -260.325732 
L 224.120523 -266.059459 
L 183.060659 -277.008815 
L 142.000795 -288.546388 
z
" style="stroke: #008000; stroke-opacity: 0.2; stroke-width: 0.8"/>
    </defs>
    <g clip-path="url(#p3ab53b112f)">
     <use xlink:href="#mac9fbaaaf7" x="0" y="720" style="fill: #008000; fill-opacity: 0.2; stroke: #008000; stroke-opacity: 0.2; stroke-width: 0.8"/>
    </g>
   </g>
   <g id="PolyCollection_8">
    <defs>
     <path id="mad72925816" d="M 142.000795 -244.734845 
L 142.000795 -172.526826 
L 183.060659 -139.834389 
L 224.120523 -132.804785 
L 265.180386 -105.909054 
L 306.24025 -98.506453 
L 347.300114 -94.337859 
L 388.359977 -83.163644 
L 429.419841 -76.503016 
L 470.479705 -73.869491 
L 511.539568 -75.321803 
L 511.539568 -102.235147 
L 511.539568 -102.235147 
L 470.479705 -97.802587 
L 429.419841 -99.992674 
L 388.359977 -119.090094 
L 347.300114 -117.148351 
L 306.24025 -144.174908 
L 265.180386 -128.78118 
L 224.120523 -168.399288 
L 183.060659 -211.301972 
L 142.000795 -244.734845 
z
" style="stroke: #6786c6; stroke-opacity: 0.2; stroke-width: 0.8"/>
    </defs>
    <g clip-path="url(#p3ab53b112f)">
     <use xlink:href="#mad72925816" x="0" y="720" style="fill: #6786c6; fill-opacity: 0.2; stroke: #6786c6; stroke-opacity: 0.2; stroke-width: 0.8"/>
    </g>
   </g>
   <g id="PolyCollection_9">
    <defs>
     <path id="m33367660ae" d="M 142.000795 -291.219429 
L 142.000795 -269.202139 
L 183.060659 -260.267276 
L 224.120523 -230.915979 
L 265.180386 -199.717713 
L 306.24025 -188.749974 
L 347.300114 -174.531625 
L 388.359977 -155.762842 
L 429.419841 -146.94961 
L 470.479705 -137.169646 
L 511.539568 -126.638247 
L 511.539568 -194.47289 
L 511.539568 -194.47289 
L 470.479705 -211.459681 
L 429.419841 -220.284131 
L 388.359977 -235.837001 
L 347.300114 -238.835635 
L 306.24025 -251.410443 
L 265.180386 -252.387848 
L 224.120523 -262.995262 
L 183.060659 -280.493142 
L 142.000795 -291.219429 
z
" style="stroke: #e19252; stroke-opacity: 0.2; stroke-width: 0.8"/>
    </defs>
    <g clip-path="url(#p3ab53b112f)">
     <use xlink:href="#m33367660ae" x="0" y="720" style="fill: #e19252; fill-opacity: 0.2; stroke: #e19252; stroke-opacity: 0.2; stroke-width: 0.8"/>
    </g>
   </g>
   <g id="line2d_51">
    <path d="M 100.940932 403.897926 
L 142.000795 441.008651 
L 183.060659 449.893623 
L 224.120523 465.967728 
L 265.180386 478.309093 
L 306.24025 480.119452 
L 347.300114 486.696406 
L 388.359977 488.774093 
L 429.419841 493.541008 
L 470.479705 495.9436 
L 511.539568 501.769284 
" clip-path="url(#p3ab53b112f)" style="fill: none; stroke: #008000; stroke-width: 1.2; stroke-linecap: round"/>
   </g>
   <g id="line2d_52">
    <path d="M 100.940932 403.897926 
L 142.000795 512.038193 
L 183.060659 547.122929 
L 224.120523 571.614235 
L 265.180386 602.603034 
L 306.24025 599.789867 
L 347.300114 614.129954 
L 388.359977 620.242336 
L 429.419841 632.606098 
L 470.479705 635.080445 
L 511.539568 632.281748 
" clip-path="url(#p3ab53b112f)" style="fill: none; stroke: #6786c6; stroke-width: 1.2; stroke-linecap: round"/>
   </g>
   <g id="line2d_53">
    <path d="M 100.940932 403.897926 
L 142.000795 439.582848 
L 183.060659 449.297083 
L 224.120523 473.196202 
L 265.180386 493.934732 
L 306.24025 500.20591 
L 347.300114 513.531318 
L 388.359977 522.144591 
L 429.419841 534.344489 
L 470.479705 542.529873 
L 511.539568 558.86713 
" clip-path="url(#p3ab53b112f)" style="fill: none; stroke: #e19252; stroke-width: 1.2; stroke-linecap: round"/>
   </g>
   <g id="line2d_54"/>
   <g id="line2d_55"/>
   <g id="line2d_56"/>
   <g id="patch_13">
    <path d="M 80.411 650.964 
L 80.411 392.132875 
" style="fill: none; stroke: #cccccc; stroke-linejoin: miter; stroke-linecap: square"/>
   </g>
   <g id="patch_14">
    <path d="M 532.0695 650.964 
L 532.0695 392.132875 
" style="fill: none; stroke: #cccccc; stroke-linejoin: miter; stroke-linecap: square"/>
   </g>
   <g id="patch_15">
    <path d="M 80.411 650.964 
L 532.0695 650.964 
" style="fill: none; stroke: #cccccc; stroke-linejoin: miter; stroke-linecap: square"/>
   </g>
   <g id="patch_16">
    <path d="M 80.411 392.132875 
L 532.0695 392.132875 
" style="fill: none; stroke: #cccccc; stroke-linejoin: miter; stroke-linecap: square"/>
   </g>
   <g id="text_35">
    <!-- c -->
    <g style="fill: #262626" transform="translate(80.411 388.343875)scale(0.192 -0.192)">
     <defs>
      <path id="Arial-BoldMT-63" d="M 3353 2338 
L 2488 2181 
Q 2444 2441 2289 2572 
Q 2134 2703 1888 2703 
Q 1559 2703 1364 2476 
Q 1169 2250 1169 1719 
Q 1169 1128 1367 884 
Q 1566 641 1900 641 
Q 2150 641 2309 783 
Q 2469 925 2534 1272 
L 3397 1125 
Q 3263 531 2881 228 
Q 2500 -75 1859 -75 
Q 1131 -75 698 384 
Q 266 844 266 1656 
Q 266 2478 700 2936 
Q 1134 3394 1875 3394 
Q 2481 3394 2839 3133 
Q 3197 2872 3353 2338 
z
" transform="scale(0.015625)"/>
     </defs>
     <use xlink:href="#Arial-BoldMT-63"/>
    </g>
   </g>
   <g id="text_36">
    <!-- Dim. 2 -->
    <g style="fill: #262626" transform="translate(278.50525 386.132875)scale(0.192 -0.192)">
     <use xlink:href="#ArialMT-44"/>
     <use xlink:href="#ArialMT-69" x="72.216797"/>
     <use xlink:href="#ArialMT-6d" x="94.433594"/>
     <use xlink:href="#ArialMT-2e" x="177.734375"/>
     <use xlink:href="#ArialMT-20" x="205.517578"/>
     <use xlink:href="#ArialMT-32" x="233.300781"/>
    </g>
   </g>
  </g>
  <g id="axes_4">
   <g id="patch_17">
    <path d="M 607.6055 650.964 
L 1059.264 650.964 
L 1059.264 392.132875 
L 607.6055 392.132875 
z
" style="fill: #ffffff"/>
   </g>
   <g id="matplotlib.axis_7">
    <g id="xtick_19">
     <g id="line2d_57">
      <path d="M 628.135432 650.964 
L 628.135432 392.132875 
" clip-path="url(#pa0e8a356f4)" style="fill: none; stroke: #cccccc; stroke-width: 0.8; stroke-linecap: round"/>
     </g>
     <g id="text_37">
      <!-- 0 -->
      <g style="fill: #262626" transform="translate(623.241807 671.86175)scale(0.176 -0.176)">
       <use xlink:href="#ArialMT-30"/>
      </g>
     </g>
    </g>
    <g id="xtick_20">
     <g id="line2d_58">
      <path d="M 710.255159 650.964 
L 710.255159 392.132875 
" clip-path="url(#pa0e8a356f4)" style="fill: none; stroke: #cccccc; stroke-width: 0.8; stroke-linecap: round"/>
     </g>
     <g id="text_38">
      <!-- 2 -->
      <g style="fill: #262626" transform="translate(705.361534 671.86175)scale(0.176 -0.176)">
       <use xlink:href="#ArialMT-32"/>
      </g>
     </g>
    </g>
    <g id="xtick_21">
     <g id="line2d_59">
      <path d="M 792.374886 650.964 
L 792.374886 392.132875 
" clip-path="url(#pa0e8a356f4)" style="fill: none; stroke: #cccccc; stroke-width: 0.8; stroke-linecap: round"/>
     </g>
     <g id="text_39">
      <!-- 4 -->
      <g style="fill: #262626" transform="translate(787.481261 671.86175)scale(0.176 -0.176)">
       <use xlink:href="#ArialMT-34"/>
      </g>
     </g>
    </g>
    <g id="xtick_22">
     <g id="line2d_60">
      <path d="M 874.494614 650.964 
L 874.494614 392.132875 
" clip-path="url(#pa0e8a356f4)" style="fill: none; stroke: #cccccc; stroke-width: 0.8; stroke-linecap: round"/>
     </g>
     <g id="text_40">
      <!-- 6 -->
      <g style="fill: #262626" transform="translate(869.600989 671.86175)scale(0.176 -0.176)">
       <use xlink:href="#ArialMT-36"/>
      </g>
     </g>
    </g>
    <g id="xtick_23">
     <g id="line2d_61">
      <path d="M 956.614341 650.964 
L 956.614341 392.132875 
" clip-path="url(#pa0e8a356f4)" style="fill: none; stroke: #cccccc; stroke-width: 0.8; stroke-linecap: round"/>
     </g>
     <g id="text_41">
      <!-- 8 -->
      <g style="fill: #262626" transform="translate(951.720716 671.86175)scale(0.176 -0.176)">
       <use xlink:href="#ArialMT-38"/>
      </g>
     </g>
    </g>
    <g id="xtick_24">
     <g id="line2d_62">
      <path d="M 1038.734068 650.964 
L 1038.734068 392.132875 
" clip-path="url(#pa0e8a356f4)" style="fill: none; stroke: #cccccc; stroke-width: 0.8; stroke-linecap: round"/>
     </g>
     <g id="text_42">
      <!-- 10 -->
      <g style="fill: #262626" transform="translate(1028.946818 671.86175)scale(0.176 -0.176)">
       <use xlink:href="#ArialMT-31"/>
       <use xlink:href="#ArialMT-30" x="55.615234"/>
      </g>
     </g>
    </g>
    <g id="text_43">
     <!-- iteration -->
     <g style="fill: #262626" transform="translate(799.28425 693.10275)scale(0.192 -0.192)">
      <use xlink:href="#ArialMT-69"/>
      <use xlink:href="#ArialMT-74" x="22.216797"/>
      <use xlink:href="#ArialMT-65" x="50"/>
      <use xlink:href="#ArialMT-72" x="105.615234"/>
      <use xlink:href="#ArialMT-61" x="138.916016"/>
      <use xlink:href="#ArialMT-74" x="194.53125"/>
      <use xlink:href="#ArialMT-69" x="222.314453"/>
      <use xlink:href="#ArialMT-6f" x="244.53125"/>
      <use xlink:href="#ArialMT-6e" x="300.146484"/>
     </g>
    </g>
   </g>
   <g id="matplotlib.axis_8">
    <g id="ytick_21">
     <g id="line2d_63">
      <path d="M 607.6055 650.964 
L 1059.264 650.964 
" clip-path="url(#pa0e8a356f4)" style="fill: none; stroke: #cccccc; stroke-width: 0.8; stroke-linecap: round"/>
     </g>
     <g id="text_44">
      <!-- 0.0 -->
      <g style="fill: #262626" transform="translate(574.8415 657.262875)scale(0.176 -0.176)">
       <use xlink:href="#ArialMT-30"/>
       <use xlink:href="#ArialMT-2e" x="55.615234"/>
       <use xlink:href="#ArialMT-30" x="83.398438"/>
      </g>
     </g>
    </g>
    <g id="ytick_22">
     <g id="line2d_64">
      <path d="M 607.6055 603.03231 
L 1059.264 603.03231 
" clip-path="url(#pa0e8a356f4)" style="fill: none; stroke: #cccccc; stroke-width: 0.8; stroke-linecap: round"/>
     </g>
     <g id="text_45">
      <!-- 0.5 -->
      <g style="fill: #262626" transform="translate(574.8415 609.331185)scale(0.176 -0.176)">
       <use xlink:href="#ArialMT-30"/>
       <use xlink:href="#ArialMT-2e" x="55.615234"/>
       <use xlink:href="#ArialMT-35" x="83.398438"/>
      </g>
     </g>
    </g>
    <g id="ytick_23">
     <g id="line2d_65">
      <path d="M 607.6055 555.10062 
L 1059.264 555.10062 
" clip-path="url(#pa0e8a356f4)" style="fill: none; stroke: #cccccc; stroke-width: 0.8; stroke-linecap: round"/>
     </g>
     <g id="text_46">
      <!-- 1.0 -->
      <g style="fill: #262626" transform="translate(574.8415 561.399495)scale(0.176 -0.176)">
       <use xlink:href="#ArialMT-31"/>
       <use xlink:href="#ArialMT-2e" x="55.615234"/>
       <use xlink:href="#ArialMT-30" x="83.398438"/>
      </g>
     </g>
    </g>
    <g id="ytick_24">
     <g id="line2d_66">
      <path d="M 607.6055 507.168931 
L 1059.264 507.168931 
" clip-path="url(#pa0e8a356f4)" style="fill: none; stroke: #cccccc; stroke-width: 0.8; stroke-linecap: round"/>
     </g>
     <g id="text_47">
      <!-- 1.5 -->
      <g style="fill: #262626" transform="translate(574.8415 513.467806)scale(0.176 -0.176)">
       <use xlink:href="#ArialMT-31"/>
       <use xlink:href="#ArialMT-2e" x="55.615234"/>
       <use xlink:href="#ArialMT-35" x="83.398438"/>
      </g>
     </g>
    </g>
    <g id="ytick_25">
     <g id="line2d_67">
      <path d="M 607.6055 459.237241 
L 1059.264 459.237241 
" clip-path="url(#pa0e8a356f4)" style="fill: none; stroke: #cccccc; stroke-width: 0.8; stroke-linecap: round"/>
     </g>
     <g id="text_48">
      <!-- 2.0 -->
      <g style="fill: #262626" transform="translate(574.8415 465.536116)scale(0.176 -0.176)">
       <use xlink:href="#ArialMT-32"/>
       <use xlink:href="#ArialMT-2e" x="55.615234"/>
       <use xlink:href="#ArialMT-30" x="83.398438"/>
      </g>
     </g>
    </g>
    <g id="ytick_26">
     <g id="line2d_68">
      <path d="M 607.6055 411.305551 
L 1059.264 411.305551 
" clip-path="url(#pa0e8a356f4)" style="fill: none; stroke: #cccccc; stroke-width: 0.8; stroke-linecap: round"/>
     </g>
     <g id="text_49">
      <!-- 2.5 -->
      <g style="fill: #262626" transform="translate(574.8415 417.604426)scale(0.176 -0.176)">
       <use xlink:href="#ArialMT-32"/>
       <use xlink:href="#ArialMT-2e" x="55.615234"/>
       <use xlink:href="#ArialMT-35" x="83.398438"/>
      </g>
     </g>
    </g>
    <g id="text_50">
     <!-- Standard deviation -->
     <g style="fill: #262626" transform="translate(567.0255 601.600437)rotate(-90)scale(0.192 -0.192)">
      <use xlink:href="#ArialMT-53"/>
      <use xlink:href="#ArialMT-74" x="66.699219"/>
      <use xlink:href="#ArialMT-61" x="94.482422"/>
      <use xlink:href="#ArialMT-6e" x="150.097656"/>
      <use xlink:href="#ArialMT-64" x="205.712891"/>
      <use xlink:href="#ArialMT-61" x="261.328125"/>
      <use xlink:href="#ArialMT-72" x="316.943359"/>
      <use xlink:href="#ArialMT-64" x="350.244141"/>
      <use xlink:href="#ArialMT-20" x="405.859375"/>
      <use xlink:href="#ArialMT-64" x="433.642578"/>
      <use xlink:href="#ArialMT-65" x="489.257812"/>
      <use xlink:href="#ArialMT-76" x="544.873047"/>
      <use xlink:href="#ArialMT-69" x="594.873047"/>
      <use xlink:href="#ArialMT-61" x="617.089844"/>
      <use xlink:href="#ArialMT-74" x="672.705078"/>
      <use xlink:href="#ArialMT-69" x="700.488281"/>
      <use xlink:href="#ArialMT-6f" x="722.705078"/>
      <use xlink:href="#ArialMT-6e" x="778.320312"/>
     </g>
    </g>
   </g>
   <g id="PolyCollection_10">
    <defs>
     <path id="m2de6dbae07" d="M 669.195295 -148.470996 
L 669.195295 -144.286856 
L 710.255159 -142.928148 
L 751.315023 -138.5518 
L 792.374886 -134.248116 
L 833.43475 -133.14548 
L 874.494614 -131.764858 
L 915.554477 -130.606877 
L 956.614341 -129.788213 
L 997.674205 -129.628139 
L 1038.734068 -128.940634 
L 1038.734068 -137.400234 
L 1038.734068 -137.400234 
L 997.674205 -138.580354 
L 956.614341 -139.807344 
L 915.554477 -141.200639 
L 874.494614 -141.334531 
L 833.43475 -142.839253 
L 792.374886 -142.525095 
L 751.315023 -143.485082 
L 710.255159 -146.024713 
L 669.195295 -148.470996 
z
" style="stroke: #008000; stroke-opacity: 0.2; stroke-width: 0.8"/>
    </defs>
    <g clip-path="url(#pa0e8a356f4)">
     <use xlink:href="#m2de6dbae07" x="0" y="720" style="fill: #008000; fill-opacity: 0.2; stroke: #008000; stroke-opacity: 0.2; stroke-width: 0.8"/>
    </g>
   </g>
   <g id="PolyCollection_11">
    <defs>
     <path id="me4159e20eb" d="M 669.195295 -93.090291 
L 669.195295 -87.746356 
L 710.255159 -85.148103 
L 751.315023 -84.689706 
L 792.374886 -82.71315 
L 833.43475 -82.174603 
L 874.494614 -81.88048 
L 915.554477 -80.95637 
L 956.614341 -80.411733 
L 997.674205 -80.335981 
L 1038.734068 -80.337826 
L 1038.734068 -82.378987 
L 1038.734068 -82.378987 
L 997.674205 -81.98982 
L 956.614341 -82.304319 
L 915.554477 -83.664169 
L 874.494614 -83.565561 
L 833.43475 -85.514876 
L 792.374886 -84.271749 
L 751.315023 -87.294258 
L 710.255159 -90.471168 
L 669.195295 -93.090291 
z
" style="stroke: #6786c6; stroke-opacity: 0.2; stroke-width: 0.8"/>
    </defs>
    <g clip-path="url(#pa0e8a356f4)">
     <use xlink:href="#me4159e20eb" x="0" y="720" style="fill: #6786c6; fill-opacity: 0.2; stroke: #6786c6; stroke-opacity: 0.2; stroke-width: 0.8"/>
    </g>
   </g>
   <g id="PolyCollection_12">
    <defs>
     <path id="m4f9040e286" d="M 669.195295 -197.896631 
L 669.195295 -190.232176 
L 710.255159 -187.031976 
L 751.315023 -177.246103 
L 792.374886 -165.675214 
L 833.43475 -161.855368 
L 874.494614 -156.977301 
L 915.554477 -151.395372 
L 956.614341 -146.893526 
L 997.674205 -144.479748 
L 1038.734068 -139.130899 
L 1038.734068 -163.849323 
L 1038.734068 -163.849323 
L 997.674205 -169.859943 
L 956.614341 -173.597098 
L 915.554477 -178.024221 
L 874.494614 -179.774955 
L 833.43475 -183.717767 
L 792.374886 -184.300296 
L 751.315023 -188.145134 
L 710.255159 -193.876052 
L 669.195295 -197.896631 
z
" style="stroke: #e19252; stroke-opacity: 0.2; stroke-width: 0.8"/>
    </defs>
    <g clip-path="url(#pa0e8a356f4)">
     <use xlink:href="#m4f9040e286" x="0" y="720" style="fill: #e19252; fill-opacity: 0.2; stroke: #e19252; stroke-opacity: 0.2; stroke-width: 0.8"/>
    </g>
   </g>
   <g id="line2d_69">
    <path d="M 628.135432 565.526288 
L 669.195295 573.611223 
L 710.255159 575.5469 
L 751.315023 579.048801 
L 792.374886 581.737488 
L 833.43475 582.131893 
L 874.494614 583.564746 
L 915.554477 584.017391 
L 956.614341 585.05591 
L 997.674205 585.579338 
L 1038.734068 586.84852 
" clip-path="url(#pa0e8a356f4)" style="fill: none; stroke: #008000; stroke-width: 1.2; stroke-linecap: round"/>
   </g>
   <g id="line2d_70">
    <path d="M 628.135432 621.526748 
L 669.195295 629.644058 
L 710.255159 632.277616 
L 751.315023 634.116002 
L 792.374886 636.442108 
L 833.43475 636.230944 
L 874.494614 637.30735 
L 915.554477 637.766163 
L 956.614341 638.694221 
L 997.674205 638.879953 
L 1038.734068 638.669875 
" clip-path="url(#pa0e8a356f4)" style="fill: none; stroke: #6786c6; stroke-width: 1.2; stroke-linecap: round"/>
   </g>
   <g id="line2d_71">
    <path d="M 628.135432 513.451487 
L 669.195295 525.964285 
L 710.255159 529.370548 
L 751.315023 537.750693 
L 792.374886 545.022589 
L 833.43475 547.221556 
L 874.494614 551.894065 
L 915.554477 554.91428 
L 956.614341 559.192133 
L 997.674205 562.062311 
L 1038.734068 567.790914 
" clip-path="url(#pa0e8a356f4)" style="fill: none; stroke: #e19252; stroke-width: 1.2; stroke-linecap: round"/>
   </g>
   <g id="line2d_72"/>
   <g id="line2d_73"/>
   <g id="line2d_74"/>
   <g id="patch_18">
    <path d="M 607.6055 650.964 
L 607.6055 392.132875 
" style="fill: none; stroke: #cccccc; stroke-linejoin: miter; stroke-linecap: square"/>
   </g>
   <g id="patch_19">
    <path d="M 1059.264 650.964 
L 1059.264 392.132875 
" style="fill: none; stroke: #cccccc; stroke-linejoin: miter; stroke-linecap: square"/>
   </g>
   <g id="patch_20">
    <path d="M 607.6055 650.964 
L 1059.264 650.964 
" style="fill: none; stroke: #cccccc; stroke-linejoin: miter; stroke-linecap: square"/>
   </g>
   <g id="patch_21">
    <path d="M 607.6055 392.132875 
L 1059.264 392.132875 
" style="fill: none; stroke: #cccccc; stroke-linejoin: miter; stroke-linecap: square"/>
   </g>
   <g id="text_51">
    <!-- d -->
    <g style="fill: #262626" transform="translate(607.6055 388.343875)scale(0.192 -0.192)">
     <defs>
      <path id="Arial-BoldMT-64" d="M 3503 0 
L 2688 0 
L 2688 488 
Q 2484 203 2207 64 
Q 1931 -75 1650 -75 
Q 1078 -75 670 386 
Q 263 847 263 1672 
Q 263 2516 659 2955 
Q 1056 3394 1663 3394 
Q 2219 3394 2625 2931 
L 2625 4581 
L 3503 4581 
L 3503 0 
z
M 1159 1731 
Q 1159 1200 1306 963 
Q 1519 619 1900 619 
Q 2203 619 2415 876 
Q 2628 1134 2628 1647 
Q 2628 2219 2422 2470 
Q 2216 2722 1894 2722 
Q 1581 2722 1370 2473 
Q 1159 2225 1159 1731 
z
" transform="scale(0.015625)"/>
     </defs>
     <use xlink:href="#Arial-BoldMT-64"/>
    </g>
   </g>
   <g id="text_52">
    <!-- Dim. 2 -->
    <g style="fill: #262626" transform="translate(805.69975 386.132875)scale(0.192 -0.192)">
     <use xlink:href="#ArialMT-44"/>
     <use xlink:href="#ArialMT-69" x="72.216797"/>
     <use xlink:href="#ArialMT-6d" x="94.433594"/>
     <use xlink:href="#ArialMT-2e" x="177.734375"/>
     <use xlink:href="#ArialMT-20" x="205.517578"/>
     <use xlink:href="#ArialMT-32" x="233.300781"/>
    </g>
   </g>
  </g>
  <g id="text_53">
   <!-- Variability conservation across avatarization iterations -->
   <g style="fill: #262626" transform="translate(266.8158 30.8916)scale(0.2304 -0.2304)">
    <defs>
     <path id="ArialMT-56" d="M 1803 0 
L 28 4581 
L 684 4581 
L 1875 1253 
Q 2019 853 2116 503 
Q 2222 878 2363 1253 
L 3600 4581 
L 4219 4581 
L 2425 0 
L 1803 0 
z
" transform="scale(0.015625)"/>
     <path id="ArialMT-73" d="M 197 991 
L 753 1078 
Q 800 744 1014 566 
Q 1228 388 1613 388 
Q 2000 388 2187 545 
Q 2375 703 2375 916 
Q 2375 1106 2209 1216 
Q 2094 1291 1634 1406 
Q 1016 1563 777 1677 
Q 538 1791 414 1992 
Q 291 2194 291 2438 
Q 291 2659 392 2848 
Q 494 3038 669 3163 
Q 800 3259 1026 3326 
Q 1253 3394 1513 3394 
Q 1903 3394 2198 3281 
Q 2494 3169 2634 2976 
Q 2775 2784 2828 2463 
L 2278 2388 
Q 2241 2644 2061 2787 
Q 1881 2931 1553 2931 
Q 1166 2931 1000 2803 
Q 834 2675 834 2503 
Q 834 2394 903 2306 
Q 972 2216 1119 2156 
Q 1203 2125 1616 2013 
Q 2213 1853 2448 1751 
Q 2684 1650 2818 1456 
Q 2953 1263 2953 975 
Q 2953 694 2789 445 
Q 2625 197 2315 61 
Q 2006 -75 1616 -75 
Q 969 -75 630 194 
Q 291 463 197 991 
z
" transform="scale(0.015625)"/>
     <path id="ArialMT-7a" d="M 125 0 
L 125 456 
L 2238 2881 
Q 1878 2863 1603 2863 
L 250 2863 
L 250 3319 
L 2963 3319 
L 2963 2947 
L 1166 841 
L 819 456 
Q 1197 484 1528 484 
L 3063 484 
L 3063 0 
L 125 0 
z
" transform="scale(0.015625)"/>
    </defs>
    <use xlink:href="#ArialMT-56"/>
    <use xlink:href="#ArialMT-61" x="59.324219"/>
    <use xlink:href="#ArialMT-72" x="114.939453"/>
    <use xlink:href="#ArialMT-69" x="148.240234"/>
    <use xlink:href="#ArialMT-61" x="170.457031"/>
    <use xlink:href="#ArialMT-62" x="226.072266"/>
    <use xlink:href="#ArialMT-69" x="281.6875"/>
    <use xlink:href="#ArialMT-6c" x="303.904297"/>
    <use xlink:href="#ArialMT-69" x="326.121094"/>
    <use xlink:href="#ArialMT-74" x="348.337891"/>
    <use xlink:href="#ArialMT-79" x="376.121094"/>
    <use xlink:href="#ArialMT-20" x="426.121094"/>
    <use xlink:href="#ArialMT-63" x="453.904297"/>
    <use xlink:href="#ArialMT-6f" x="503.904297"/>
    <use xlink:href="#ArialMT-6e" x="559.519531"/>
    <use xlink:href="#ArialMT-73" x="615.134766"/>
    <use xlink:href="#ArialMT-65" x="665.134766"/>
    <use xlink:href="#ArialMT-72" x="720.75"/>
    <use xlink:href="#ArialMT-76" x="754.050781"/>
    <use xlink:href="#ArialMT-61" x="804.050781"/>
    <use xlink:href="#ArialMT-74" x="859.666016"/>
    <use xlink:href="#ArialMT-69" x="887.449219"/>
    <use xlink:href="#ArialMT-6f" x="909.666016"/>
    <use xlink:href="#ArialMT-6e" x="965.28125"/>
    <use xlink:href="#ArialMT-20" x="1020.896484"/>
    <use xlink:href="#ArialMT-61" x="1048.679688"/>
    <use xlink:href="#ArialMT-63" x="1104.294922"/>
    <use xlink:href="#ArialMT-72" x="1154.294922"/>
    <use xlink:href="#ArialMT-6f" x="1187.595703"/>
    <use xlink:href="#ArialMT-73" x="1243.210938"/>
    <use xlink:href="#ArialMT-73" x="1293.210938"/>
    <use xlink:href="#ArialMT-20" x="1343.210938"/>
    <use xlink:href="#ArialMT-61" x="1370.994141"/>
    <use xlink:href="#ArialMT-76" x="1426.609375"/>
    <use xlink:href="#ArialMT-61" x="1476.609375"/>
    <use xlink:href="#ArialMT-74" x="1532.224609"/>
    <use xlink:href="#ArialMT-61" x="1560.007812"/>
    <use xlink:href="#ArialMT-72" x="1615.623047"/>
    <use xlink:href="#ArialMT-69" x="1648.923828"/>
    <use xlink:href="#ArialMT-7a" x="1671.140625"/>
    <use xlink:href="#ArialMT-61" x="1721.140625"/>
    <use xlink:href="#ArialMT-74" x="1776.755859"/>
    <use xlink:href="#ArialMT-69" x="1804.539062"/>
    <use xlink:href="#ArialMT-6f" x="1826.755859"/>
    <use xlink:href="#ArialMT-6e" x="1882.371094"/>
    <use xlink:href="#ArialMT-20" x="1937.986328"/>
    <use xlink:href="#ArialMT-69" x="1965.769531"/>
    <use xlink:href="#ArialMT-74" x="1987.986328"/>
    <use xlink:href="#ArialMT-65" x="2015.769531"/>
    <use xlink:href="#ArialMT-72" x="2071.384766"/>
    <use xlink:href="#ArialMT-61" x="2104.685547"/>
    <use xlink:href="#ArialMT-74" x="2160.300781"/>
    <use xlink:href="#ArialMT-69" x="2188.083984"/>
    <use xlink:href="#ArialMT-6f" x="2210.300781"/>
    <use xlink:href="#ArialMT-6e" x="2265.916016"/>
    <use xlink:href="#ArialMT-73" x="2321.53125"/>
   </g>
  </g>
  <g id="legend_1">
   <g id="patch_22">
    <path d="M 947.8 77.76 
L 1053.29875 77.76 
Q 1056.09875 77.76 1056.09875 74.96 
L 1056.09875 16.621562 
Q 1056.09875 13.821563 1053.29875 13.821563 
L 947.8 13.821563 
Q 945 13.821563 945 16.621562 
L 945 74.96 
Q 945 77.76 947.8 77.76 
z
" style="fill: #ffffff; opacity: 0.8; stroke: #cccccc; stroke-width: 0.8; stroke-linejoin: miter"/>
   </g>
   <g id="line2d_75">
    <path d="M 950.6 24.5425 
L 964.6 24.5425 
L 978.6 24.5425 
" style="fill: none; stroke: #008000; stroke-width: 1.2; stroke-linecap: round"/>
   </g>
   <g id="text_54">
    <!-- All -->
    <g style="fill: #262626" transform="translate(989.8 29.4425)scale(0.14 -0.14)">
     <defs>
      <path id="ArialMT-41" d="M -9 0 
L 1750 4581 
L 2403 4581 
L 4278 0 
L 3588 0 
L 3053 1388 
L 1138 1388 
L 634 0 
L -9 0 
z
M 1313 1881 
L 2866 1881 
L 2388 3150 
Q 2169 3728 2063 4100 
Q 1975 3659 1816 3225 
L 1313 1881 
z
" transform="scale(0.015625)"/>
     </defs>
     <use xlink:href="#ArialMT-41"/>
     <use xlink:href="#ArialMT-6c" x="66.699219"/>
     <use xlink:href="#ArialMT-6c" x="88.916016"/>
    </g>
   </g>
   <g id="line2d_76">
    <path d="M 950.6 44.345937 
L 964.6 44.345937 
L 978.6 44.345937 
" style="fill: none; stroke: #6786c6; stroke-width: 1.2; stroke-linecap: round"/>
   </g>
   <g id="text_55">
    <!-- Benign -->
    <g style="fill: #262626" transform="translate(989.8 49.245937)scale(0.14 -0.14)">
     <defs>
      <path id="ArialMT-42" d="M 469 0 
L 469 4581 
L 2188 4581 
Q 2713 4581 3030 4442 
Q 3347 4303 3526 4014 
Q 3706 3725 3706 3409 
Q 3706 3116 3547 2856 
Q 3388 2597 3066 2438 
Q 3481 2316 3704 2022 
Q 3928 1728 3928 1328 
Q 3928 1006 3792 729 
Q 3656 453 3456 303 
Q 3256 153 2954 76 
Q 2653 0 2216 0 
L 469 0 
z
M 1075 2656 
L 2066 2656 
Q 2469 2656 2644 2709 
Q 2875 2778 2992 2937 
Q 3109 3097 3109 3338 
Q 3109 3566 3000 3739 
Q 2891 3913 2687 3977 
Q 2484 4041 1991 4041 
L 1075 4041 
L 1075 2656 
z
M 1075 541 
L 2216 541 
Q 2509 541 2628 563 
Q 2838 600 2978 687 
Q 3119 775 3209 942 
Q 3300 1109 3300 1328 
Q 3300 1584 3169 1773 
Q 3038 1963 2805 2039 
Q 2572 2116 2134 2116 
L 1075 2116 
L 1075 541 
z
" transform="scale(0.015625)"/>
     </defs>
     <use xlink:href="#ArialMT-42"/>
     <use xlink:href="#ArialMT-65" x="66.699219"/>
     <use xlink:href="#ArialMT-6e" x="122.314453"/>
     <use xlink:href="#ArialMT-69" x="177.929688"/>
     <use xlink:href="#ArialMT-67" x="200.146484"/>
     <use xlink:href="#ArialMT-6e" x="255.761719"/>
    </g>
   </g>
   <g id="line2d_77">
    <path d="M 950.6 64.313438 
L 964.6 64.313438 
L 978.6 64.313438 
" style="fill: none; stroke: #e19252; stroke-width: 1.2; stroke-linecap: round"/>
   </g>
   <g id="text_56">
    <!-- Malignant -->
    <g style="fill: #262626" transform="translate(989.8 69.213438)scale(0.14 -0.14)">
     <defs>
      <path id="ArialMT-4d" d="M 475 0 
L 475 4581 
L 1388 4581 
L 2472 1338 
Q 2622 884 2691 659 
Q 2769 909 2934 1394 
L 4031 4581 
L 4847 4581 
L 4847 0 
L 4263 0 
L 4263 3834 
L 2931 0 
L 2384 0 
L 1059 3900 
L 1059 0 
L 475 0 
z
" transform="scale(0.015625)"/>
     </defs>
     <use xlink:href="#ArialMT-4d"/>
     <use xlink:href="#ArialMT-61" x="83.300781"/>
     <use xlink:href="#ArialMT-6c" x="138.916016"/>
     <use xlink:href="#ArialMT-69" x="161.132812"/>
     <use xlink:href="#ArialMT-67" x="183.349609"/>
     <use xlink:href="#ArialMT-6e" x="238.964844"/>
     <use xlink:href="#ArialMT-61" x="294.580078"/>
     <use xlink:href="#ArialMT-6e" x="350.195312"/>
     <use xlink:href="#ArialMT-74" x="405.810547"/>
    </g>
   </g>
  </g>
 </g>
 <defs>
  <clipPath id="pd9c008ad5c">
   <rect x="80.411" y="81.56575" width="451.6585" height="258.831125"/>
  </clipPath>
  <clipPath id="p1a7379cd9a">
   <rect x="607.6055" y="81.56575" width="451.6585" height="258.831125"/>
  </clipPath>
  <clipPath id="p3ab53b112f">
   <rect x="80.411" y="392.132875" width="451.6585" height="258.831125"/>
  </clipPath>
  <clipPath id="pa0e8a356f4">
   <rect x="607.6055" y="392.132875" width="451.6585" height="258.831125"/>
  </clipPath>
 </defs>
</svg>
